<svg width="48" height="17" viewBox="0 0 48 17" fill="none" xmlns="http://www.w3.org/2000/svg">
<path d="M0.881001 0L0 2.139H1.771L0.881001 0Z" transform="translate(33.6729 1.79785)" fill="#083482"/>
<path d="M0.881001 0L0 2.139H1.771L0.881001 0Z" transform="translate(33.6729 1.79785)" fill="url(#paint0_linear)"/>
<path d="M0.871 0L0 2.139H1.749L0.871 0Z" transform="translate(3.23389 1.79785)" fill="#083482"/>
<path d="M0.871 0L0 2.139H1.749L0.871 0Z" transform="translate(3.23389 1.79785)" fill="url(#paint1_linear)"/>
<path d="M2.188 0.0970001C2.036 0.0110001 1.802 0 1.58 0H0V1.191H1.559C1.806 1.191 2.014 1.187 2.193 1.081C2.358 0.993999 2.457 0.804999 2.457 0.570999C2.457 0.340999 2.354 0.175 2.188 0.0970001Z" transform="translate(22.1318 2.00391)" fill="#083482"/>
<path d="M2.188 0.0970001C2.036 0.0110001 1.802 0 1.58 0H0V1.191H1.559C1.806 1.191 2.014 1.187 2.193 1.081C2.358 0.993999 2.457 0.804999 2.457 0.570999C2.457 0.340999 2.354 0.175 2.188 0.0970001Z" transform="translate(22.1318 2.00391)" fill="url(#paint2_linear)"/>
<path d="M2.192 0.0970001C2.036 0.00400012 1.806 0 1.58 0H0V1.205H1.559C1.809 1.205 2.022 1.197 2.195 1.096C2.361 0.993999 2.46 0.811 2.46 0.58C2.457 0.349 2.358 0.183 2.192 0.0970001Z" transform="translate(27.624 11.2339)" fill="#083482"/>
<path d="M2.192 0.0970001C2.036 0.00400012 1.806 0 1.58 0H0V1.205H1.559C1.809 1.205 2.022 1.197 2.195 1.096C2.361 0.993999 2.46 0.811 2.46 0.58C2.457 0.349 2.358 0.183 2.192 0.0970001Z" transform="translate(27.624 11.2339)" fill="url(#paint3_linear)"/>
<path d="M1.672 0H0V1.367H1.656C2.149 1.367 2.456 1.123 2.456 0.66C2.455 0.188 2.136 0 1.672 0Z" transform="translate(21.8989 11.2319)" fill="#083482"/>
<path d="M1.672 0H0V1.367H1.656C2.149 1.367 2.456 1.123 2.456 0.66C2.455 0.188 2.136 0 1.672 0Z" transform="translate(21.8989 11.2319)" fill="url(#paint4_linear)"/>
<path d="M37.046 2.801C37.037 2.792 37.027 2.782 37.018 2.775C37.261 2.617 37.423 2.343 37.423 2.031V0.887999C37.423 0.396999 37.026 0.000999451 36.536 0.000999451H33.966C33.165 0.000999451 32.561 0.236998 32.121 0.592999C31.998 0.248998 31.682 0.000999451 31.295 0.000999451H28.725C28.018 0.000999451 27.461 0.175999 27.037 0.463999C26.883 0.188999 26.606 0.000999451 26.274 0.000999451H21.994C21.649 0.000999451 21.358 0.202 21.211 0.489C21.15 0.446 21.105 0.396 21.041 0.358C20.42 0.0259998 19.76 0.000999451 19.08 0.000999451H16.117C15.772 0.000999451 15.48 0.204 15.334 0.493C14.883 0.2 14.252 0.000999451 13.355 0.000999451H9.257C9.01 0.000999451 8.775 0.100999 8.606 0.282999L7.635 1.33L6.703 0.295C6.536 0.104 6.297 0 6.044 0H0.886001C0.396001 0 0 0.396999 0 0.886999V6.254C0 6.745 0.397001 7.141 0.886001 7.141H5.967C6.214 7.141 6.449 7.038 6.617 6.856L7.596 5.797L8.525 6.842C8.693 7.032 8.935 7.139 9.188 7.139H11.681C12.172 7.139 12.568 6.742 12.568 6.254V5.338H13.281C14.148 5.338 14.775 5.16 15.231 4.889V6.254C15.231 6.743 15.628 7.139 16.118 7.139H17.407C17.898 7.139 18.294 6.742 18.294 6.254V5.178H18.777C18.895 5.178 18.978 5.182 19.038 5.186C19.042 5.282 19.042 5.397 19.04 5.473V6.254C19.04 6.743 19.439 7.139 19.927 7.139H21.214C21.358 7.139 21.488 7.1 21.606 7.039C21.726 7.098 21.855 7.139 21.997 7.139H26.278C26.417 7.139 26.546 7.1 26.663 7.043C26.78 7.1 26.906 7.139 27.048 7.139H29.546C30.341 7.139 30.989 6.944 31.474 6.6C31.607 6.916 31.921 7.139 32.288 7.139H34.786C36.603 7.139 37.686 6.174 37.686 4.559C37.686 3.811 37.484 3.254 37.046 2.801ZM13.282 4.451H11.682V6.252H9.189L7.609 4.476L5.967 6.252H0.886001V0.883999H6.044L7.624 2.644L9.256 0.883999H13.354C14.371 0.883999 15.516 1.169 15.516 2.655C15.516 4.144 14.404 4.454 13.282 4.451ZM20.375 3.76C20.659 3.864 20.892 4.053 21 4.211C21.183 4.473 21.207 4.717 21.213 5.19V6.254H19.926V5.582C19.926 5.26 19.957 4.781 19.717 4.531C19.533 4.34 19.248 4.295 18.778 4.295H17.408V6.254H16.119V0.886999H19.082C19.73 0.886999 20.202 0.914 20.625 1.139C21.029 1.383 21.284 1.719 21.284 2.33C21.284 3.188 20.711 3.625 20.375 3.76ZM26.276 1.996H23.272V2.973H26.202V4.069H23.272V5.135L26.276 5.141V6.254H21.996V0.886999H26.276V1.996ZM29.547 6.248H27.049V5.095H29.536C29.778 5.095 29.951 5.065 30.059 4.962C30.147 4.88 30.209 4.757 30.209 4.611C30.209 4.455 30.143 4.332 30.053 4.257C29.953 4.175 29.821 4.138 29.596 4.138C28.398 4.099 26.895 4.175 26.895 2.478C26.895 1.697 27.383 0.879999 28.729 0.879999H31.299V2.022H28.946C28.711 2.022 28.56 2.032 28.432 2.12C28.291 2.208 28.238 2.337 28.238 2.507C28.238 2.71 28.357 2.845 28.518 2.907C28.655 2.954 28.799 2.968 29.018 2.968L29.707 2.988C30.402 3.007 30.881 3.127 31.17 3.42C31.422 3.679 31.555 4.007 31.555 4.558C31.555 5.715 30.836 6.254 29.547 6.248ZM34.788 6.248H32.29V5.095H34.778C35.02 5.095 35.193 5.065 35.3 4.962C35.388 4.88 35.45 4.757 35.45 4.611C35.45 4.455 35.384 4.332 35.294 4.257C35.195 4.175 35.063 4.138 34.837 4.138C33.638 4.099 32.136 4.175 32.136 2.478C32.136 1.697 32.624 0.879999 33.97 0.879999H36.54V2.022H34.188C33.952 2.022 33.8 2.032 33.673 2.12C33.532 2.208 33.48 2.337 33.48 2.507C33.48 2.71 33.6 2.845 33.759 2.907C33.897 2.954 34.04 2.968 34.259 2.968L34.948 2.988C35.644 3.007 36.124 3.127 36.413 3.42C36.663 3.679 36.798 4.007 36.798 4.558C36.798 5.715 36.077 6.254 34.788 6.248Z" transform="translate(10.2158 9.23682)" fill="#083482"/>
<path d="M37.046 2.801C37.037 2.792 37.027 2.782 37.018 2.775C37.261 2.617 37.423 2.343 37.423 2.031V0.887999C37.423 0.396999 37.026 0.000999451 36.536 0.000999451H33.966C33.165 0.000999451 32.561 0.236998 32.121 0.592999C31.998 0.248998 31.682 0.000999451 31.295 0.000999451H28.725C28.018 0.000999451 27.461 0.175999 27.037 0.463999C26.883 0.188999 26.606 0.000999451 26.274 0.000999451H21.994C21.649 0.000999451 21.358 0.202 21.211 0.489C21.15 0.446 21.105 0.396 21.041 0.358C20.42 0.0259998 19.76 0.000999451 19.08 0.000999451H16.117C15.772 0.000999451 15.48 0.204 15.334 0.493C14.883 0.2 14.252 0.000999451 13.355 0.000999451H9.257C9.01 0.000999451 8.775 0.100999 8.606 0.282999L7.635 1.33L6.703 0.295C6.536 0.104 6.297 0 6.044 0H0.886001C0.396001 0 0 0.396999 0 0.886999V6.254C0 6.745 0.397001 7.141 0.886001 7.141H5.967C6.214 7.141 6.449 7.038 6.617 6.856L7.596 5.797L8.525 6.842C8.693 7.032 8.935 7.139 9.188 7.139H11.681C12.172 7.139 12.568 6.742 12.568 6.254V5.338H13.281C14.148 5.338 14.775 5.16 15.231 4.889V6.254C15.231 6.743 15.628 7.139 16.118 7.139H17.407C17.898 7.139 18.294 6.742 18.294 6.254V5.178H18.777C18.895 5.178 18.978 5.182 19.038 5.186C19.042 5.282 19.042 5.397 19.04 5.473V6.254C19.04 6.743 19.439 7.139 19.927 7.139H21.214C21.358 7.139 21.488 7.1 21.606 7.039C21.726 7.098 21.855 7.139 21.997 7.139H26.278C26.417 7.139 26.546 7.1 26.663 7.043C26.78 7.1 26.906 7.139 27.048 7.139H29.546C30.341 7.139 30.989 6.944 31.474 6.6C31.607 6.916 31.921 7.139 32.288 7.139H34.786C36.603 7.139 37.686 6.174 37.686 4.559C37.686 3.811 37.484 3.254 37.046 2.801ZM13.282 4.451H11.682V6.252H9.189L7.609 4.476L5.967 6.252H0.886001V0.883999H6.044L7.624 2.644L9.256 0.883999H13.354C14.371 0.883999 15.516 1.169 15.516 2.655C15.516 4.144 14.404 4.454 13.282 4.451ZM20.375 3.76C20.659 3.864 20.892 4.053 21 4.211C21.183 4.473 21.207 4.717 21.213 5.19V6.254H19.926V5.582C19.926 5.26 19.957 4.781 19.717 4.531C19.533 4.34 19.248 4.295 18.778 4.295H17.408V6.254H16.119V0.886999H19.082C19.73 0.886999 20.202 0.914 20.625 1.139C21.029 1.383 21.284 1.719 21.284 2.33C21.284 3.188 20.711 3.625 20.375 3.76ZM26.276 1.996H23.272V2.973H26.202V4.069H23.272V5.135L26.276 5.141V6.254H21.996V0.886999H26.276V1.996ZM29.547 6.248H27.049V5.095H29.536C29.778 5.095 29.951 5.065 30.059 4.962C30.147 4.88 30.209 4.757 30.209 4.611C30.209 4.455 30.143 4.332 30.053 4.257C29.953 4.175 29.821 4.138 29.596 4.138C28.398 4.099 26.895 4.175 26.895 2.478C26.895 1.697 27.383 0.879999 28.729 0.879999H31.299V2.022H28.946C28.711 2.022 28.56 2.032 28.432 2.12C28.291 2.208 28.238 2.337 28.238 2.507C28.238 2.71 28.357 2.845 28.518 2.907C28.655 2.954 28.799 2.968 29.018 2.968L29.707 2.988C30.402 3.007 30.881 3.127 31.17 3.42C31.422 3.679 31.555 4.007 31.555 4.558C31.555 5.715 30.836 6.254 29.547 6.248ZM34.788 6.248H32.29V5.095H34.778C35.02 5.095 35.193 5.065 35.3 4.962C35.388 4.88 35.45 4.757 35.45 4.611C35.45 4.455 35.384 4.332 35.294 4.257C35.195 4.175 35.063 4.138 34.837 4.138C33.638 4.099 32.136 4.175 32.136 2.478C32.136 1.697 32.624 0.879999 33.97 0.879999H36.54V2.022H34.188C33.952 2.022 33.8 2.032 33.673 2.12C33.532 2.208 33.48 2.337 33.48 2.507C33.48 2.71 33.6 2.845 33.759 2.907C33.897 2.954 34.04 2.968 34.259 2.968L34.948 2.988C35.644 3.007 36.124 3.127 36.413 3.42C36.663 3.679 36.798 4.007 36.798 4.558C36.798 5.715 36.077 6.254 34.788 6.248Z" transform="translate(10.2158 9.23682)" fill="url(#paint5_linear)"/>
<path d="M43.2359 0H41.9229C41.4319 0 41.0359 0.397001 41.0359 0.886001V1.44L40.4269 0.429C40.2649 0.164 39.9779 0.000999451 39.6689 0.000999451H37.7139C37.2239 0.000999451 36.8279 0.398 36.8279 0.887V1.64L36.3569 0.537999C36.2179 0.212999 35.8979 0.000999451 35.5439 0.000999451H33.6219C33.4269 0.000999451 33.2409 0.065 33.0929 0.177C32.9459 0.066 32.7609 0.000999451 32.5619 0.000999451H31.3229C30.2689 0.000999451 29.4889 0.256001 28.9149 0.754001C28.8489 0.331001 28.4979 0.000999451 28.0559 0.000999451H26.7459C26.3959 0.000999451 26.1029 0.207999 25.9569 0.499999C25.9019 0.459999 25.8599 0.412 25.7979 0.376C25.1959 0.0280004 24.5629 0.000999451 23.7999 0.000999451H20.8499C20.6839 0.000999451 20.5389 0.0589995 20.4049 0.138C20.2739 0.0589995 20.1269 0.000999451 19.9609 0.000999451H15.6769C15.4959 0.000999451 15.3389 0.0679998 15.1989 0.16C15.0579 0.0679998 14.9009 0.000999451 14.7209 0.000999451H12.5829C12.2289 0.000999451 11.9079 0.214001 11.7689 0.542001L11.0069 2.338L10.1679 0.516C10.0219 0.202 9.7069 0.000999451 9.3629 0.000999451H7.2689C6.7789 0.000999451 6.3829 0.398 6.3829 0.887V1.658L5.9019 0.536C5.7619 0.211 5.4419 0 5.0869 0H3.1829C2.8279 0 2.5079 0.212 2.3679 0.537L0.0719045 5.904C-0.0460955 6.179 -0.0170955 6.491 0.145905 6.741C0.309905 6.989 0.587904 7.139 0.885904 7.139H2.2799C2.6359 7.139 2.9589 6.923 3.0959 6.593L3.3669 5.941H4.8529L5.1199 6.589C5.2559 6.921 5.5799 7.138 5.9399 7.138H8.5489C9.0389 7.138 9.43491 6.741 9.43491 6.252V6.231L9.6029 6.612C9.7449 6.932 10.0629 7.139 10.4129 7.139L11.5399 7.141C11.8919 7.141 12.2079 6.934 12.3499 6.613L12.5199 6.233V6.255C12.5199 6.744 12.9159 7.14 13.4059 7.14H14.7209C14.9009 7.14 15.0579 7.072 15.1989 6.981C15.3389 7.072 15.4959 7.14 15.6769 7.14H19.9609C20.1269 7.14 20.2739 7.082 20.4049 7.003C20.5379 7.082 20.6839 7.14 20.8499 7.14H22.1339C22.6239 7.14 23.0199 6.743 23.0199 6.254V5.188H23.5099C23.6209 5.188 23.6999 5.191 23.7589 5.195C23.7649 5.286 23.7629 5.394 23.7629 5.466L23.7609 5.584L23.7659 6.261C23.7699 6.747 24.1669 7.14 24.6529 7.14H25.9469C26.0919 7.14 26.2229 7.095 26.3439 7.033C26.4669 7.096 26.5989 7.14 26.7449 7.14H28.0549C28.4849 7.14 28.8249 6.83 28.9079 6.426C29.6349 7.037 30.6589 7.14 31.2289 7.14H32.7319C33.0899 7.14 33.4139 6.92 33.5489 6.585L33.8099 5.942H35.2879L35.5589 6.594C35.6959 6.923 36.0179 7.139 36.3769 7.139H38.9869C39.4769 7.139 39.8729 6.742 39.8729 6.253V5.406L40.6599 6.711C40.8209 6.976 41.1079 7.139 41.4199 7.139H43.2359C43.7259 7.139 44.1219 6.742 44.1219 6.253V0.886001C44.1219 0.397001 43.7239 0 43.2359 0ZM14.7199 6.252H13.4049L13.3999 2.049L11.5399 6.252H10.4129L8.5499 2.045V6.252H5.9389L5.4459 5.055H2.7759L2.2779 6.252H0.883905L3.1809 0.884999H5.0849L7.2679 5.967V0.884999H9.36191L11.0409 4.526L12.5819 0.884999H14.7199V6.252ZM19.9599 2.003H16.9579V2.97H19.8889V4.07H16.9579V5.142H19.9599V6.252H15.6759V0.884999H19.9599V2.003ZM25.0969 3.762C25.3779 3.87 25.6179 4.058 25.7319 4.214C25.9139 4.481 25.9449 4.719 25.9449 5.198V6.251H24.6509L24.6449 5.574C24.6449 5.252 24.6759 4.788 24.4429 4.529C24.2559 4.341 23.9699 4.3 23.5079 4.3H22.1329V6.252H20.8489H20.8479V0.886001H23.7979C24.4539 0.886001 24.9369 0.903001 25.3509 1.143C25.7569 1.383 25.9999 1.733 25.9999 2.332C25.9999 3.187 25.4289 3.63 25.0969 3.762ZM28.0559 6.252H26.7459V0.884999H28.0559V6.252ZM43.2359 6.252H41.4189L38.9859 2.224V6.252H36.3759L35.8759 5.055H33.2099L32.7279 6.252H31.2259C30.6029 6.252 29.8159 6.114 29.3699 5.659C28.9159 5.203 28.6819 4.585 28.6819 3.61C28.6819 2.814 28.8229 2.086 29.3689 1.51C29.7819 1.082 30.4309 0.884999 31.3169 0.884999H32.5559V2.035H31.3409C30.8739 2.035 30.6089 2.104 30.3549 2.353C30.1359 2.579 29.9869 3.006 29.9869 3.569C29.9869 4.143 30.1009 4.557 30.3409 4.828C30.5399 5.041 30.8999 5.105 31.2349 5.105H31.8099L33.6219 0.884999H35.5439L37.7139 5.961V0.884999H39.6689L41.9229 4.623V0.884999H43.2359V6.252ZM31.7879 2.922L31.2309 4.221C31.1079 4.221 31.0249 4.207 30.9789 4.195C30.9359 4.115 30.8769 3.938 30.8769 3.57C30.8769 3.198 30.9669 3.005 30.9789 2.988C31.0159 2.952 31.0469 2.921 31.3479 2.921L31.7879 2.922Z" fill="#083482"/>
<path d="M43.2359 0H41.9229C41.4319 0 41.0359 0.397001 41.0359 0.886001V1.44L40.4269 0.429C40.2649 0.164 39.9779 0.000999451 39.6689 0.000999451H37.7139C37.2239 0.000999451 36.8279 0.398 36.8279 0.887V1.64L36.3569 0.537999C36.2179 0.212999 35.8979 0.000999451 35.5439 0.000999451H33.6219C33.4269 0.000999451 33.2409 0.065 33.0929 0.177C32.9459 0.066 32.7609 0.000999451 32.5619 0.000999451H31.3229C30.2689 0.000999451 29.4889 0.256001 28.9149 0.754001C28.8489 0.331001 28.4979 0.000999451 28.0559 0.000999451H26.7459C26.3959 0.000999451 26.1029 0.207999 25.9569 0.499999C25.9019 0.459999 25.8599 0.412 25.7979 0.376C25.1959 0.0280004 24.5629 0.000999451 23.7999 0.000999451H20.8499C20.6839 0.000999451 20.5389 0.0589995 20.4049 0.138C20.2739 0.0589995 20.1269 0.000999451 19.9609 0.000999451H15.6769C15.4959 0.000999451 15.3389 0.0679998 15.1989 0.16C15.0579 0.0679998 14.9009 0.000999451 14.7209 0.000999451H12.5829C12.2289 0.000999451 11.9079 0.214001 11.7689 0.542001L11.0069 2.338L10.1679 0.516C10.0219 0.202 9.7069 0.000999451 9.3629 0.000999451H7.2689C6.7789 0.000999451 6.3829 0.398 6.3829 0.887V1.658L5.9019 0.536C5.7619 0.211 5.4419 0 5.0869 0H3.1829C2.8279 0 2.5079 0.212 2.3679 0.537L0.0719045 5.904C-0.0460955 6.179 -0.0170955 6.491 0.145905 6.741C0.309905 6.989 0.587904 7.139 0.885904 7.139H2.2799C2.6359 7.139 2.9589 6.923 3.0959 6.593L3.3669 5.941H4.8529L5.1199 6.589C5.2559 6.921 5.5799 7.138 5.9399 7.138H8.5489C9.0389 7.138 9.43491 6.741 9.43491 6.252V6.231L9.6029 6.612C9.7449 6.932 10.0629 7.139 10.4129 7.139L11.5399 7.141C11.8919 7.141 12.2079 6.934 12.3499 6.613L12.5199 6.233V6.255C12.5199 6.744 12.9159 7.14 13.4059 7.14H14.7209C14.9009 7.14 15.0579 7.072 15.1989 6.981C15.3389 7.072 15.4959 7.14 15.6769 7.14H19.9609C20.1269 7.14 20.2739 7.082 20.4049 7.003C20.5379 7.082 20.6839 7.14 20.8499 7.14H22.1339C22.6239 7.14 23.0199 6.743 23.0199 6.254V5.188H23.5099C23.6209 5.188 23.6999 5.191 23.7589 5.195C23.7649 5.286 23.7629 5.394 23.7629 5.466L23.7609 5.584L23.7659 6.261C23.7699 6.747 24.1669 7.14 24.6529 7.14H25.9469C26.0919 7.14 26.2229 7.095 26.3439 7.033C26.4669 7.096 26.5989 7.14 26.7449 7.14H28.0549C28.4849 7.14 28.8249 6.83 28.9079 6.426C29.6349 7.037 30.6589 7.14 31.2289 7.14H32.7319C33.0899 7.14 33.4139 6.92 33.5489 6.585L33.8099 5.942H35.2879L35.5589 6.594C35.6959 6.923 36.0179 7.139 36.3769 7.139H38.9869C39.4769 7.139 39.8729 6.742 39.8729 6.253V5.406L40.6599 6.711C40.8209 6.976 41.1079 7.139 41.4199 7.139H43.2359C43.7259 7.139 44.1219 6.742 44.1219 6.253V0.886001C44.1219 0.397001 43.7239 0 43.2359 0ZM14.7199 6.252H13.4049L13.3999 2.049L11.5399 6.252H10.4129L8.5499 2.045V6.252H5.9389L5.4459 5.055H2.7759L2.2779 6.252H0.883905L3.1809 0.884999H5.0849L7.2679 5.967V0.884999H9.36191L11.0409 4.526L12.5819 0.884999H14.7199V6.252ZM19.9599 2.003H16.9579V2.97H19.8889V4.07H16.9579V5.142H19.9599V6.252H15.6759V0.884999H19.9599V2.003ZM25.0969 3.762C25.3779 3.87 25.6179 4.058 25.7319 4.214C25.9139 4.481 25.9449 4.719 25.9449 5.198V6.251H24.6509L24.6449 5.574C24.6449 5.252 24.6759 4.788 24.4429 4.529C24.2559 4.341 23.9699 4.3 23.5079 4.3H22.1329V6.252H20.8489H20.8479V0.886001H23.7979C24.4539 0.886001 24.9369 0.903001 25.3509 1.143C25.7569 1.383 25.9999 1.733 25.9999 2.332C25.9999 3.187 25.4289 3.63 25.0969 3.762ZM28.0559 6.252H26.7459V0.884999H28.0559V6.252ZM43.2359 6.252H41.4189L38.9859 2.224V6.252H36.3759L35.8759 5.055H33.2099L32.7279 6.252H31.2259C30.6029 6.252 29.8159 6.114 29.3699 5.659C28.9159 5.203 28.6819 4.585 28.6819 3.61C28.6819 2.814 28.8229 2.086 29.3689 1.51C29.7819 1.082 30.4309 0.884999 31.3169 0.884999H32.5559V2.035H31.3409C30.8739 2.035 30.6089 2.104 30.3549 2.353C30.1359 2.579 29.9869 3.006 29.9869 3.569C29.9869 4.143 30.1009 4.557 30.3409 4.828C30.5399 5.041 30.8999 5.105 31.2349 5.105H31.8099L33.6219 0.884999H35.5439L37.7139 5.961V0.884999H39.6689L41.9229 4.623V0.884999H43.2359V6.252ZM31.7879 2.922L31.2309 4.221C31.1079 4.221 31.0249 4.207 30.9789 4.195C30.9359 4.115 30.8769 3.938 30.8769 3.57C30.8769 3.198 30.9669 3.005 30.9789 2.988C31.0159 2.952 31.0469 2.921 31.3479 2.921L31.7879 2.922Z" fill="url(#paint6_linear)"/>
<path d="M0 2.115L1.97 4.303V0L0 2.115Z" transform="translate(18.6509 10.7012)" fill="#083482"/>
<path d="M0 2.115L1.97 4.303V0L0 2.115Z" transform="translate(18.6509 10.7012)" fill="url(#paint7_linear)"/>
<path d="M3.214 0H0V0.975H2.815V2.071H0V3.139H3.152L4.617 1.562L3.214 0Z" transform="translate(12.3828 11.2339)" fill="#083482"/>
<path d="M3.214 0H0V0.975H2.815V2.071H0V3.139H3.152L4.617 1.562L3.214 0Z" transform="translate(12.3828 11.2339)" fill="url(#paint8_linear)"/>
<defs>
<linearGradient id="paint0_linear" x2="1" gradientUnits="userSpaceOnUse" gradientTransform="matrix(1.73029 -0.807937 0.668938 5.72334 -0.264676 -1.48701)">
<stop stop-color="#4998A7"/>
<stop offset="1" stop-color="#093783" stop-opacity="0.85"/>
</linearGradient>
<linearGradient id="paint1_linear" x2="1" gradientUnits="userSpaceOnUse" gradientTransform="matrix(1.70879 -0.807937 0.660628 5.72334 -0.261388 -1.48701)">
<stop stop-color="#4998A7"/>
<stop offset="1" stop-color="#093783" stop-opacity="0.85"/>
</linearGradient>
<linearGradient id="paint2_linear" x2="1" gradientUnits="userSpaceOnUse" gradientTransform="matrix(2.40052 -0.449861 0.928052 3.18677 -0.367198 -0.827972)">
<stop stop-color="#4998A7"/>
<stop offset="1" stop-color="#093783" stop-opacity="0.85"/>
</linearGradient>
<linearGradient id="paint3_linear" x2="1" gradientUnits="userSpaceOnUse" gradientTransform="matrix(2.40345 -0.455149 0.929185 3.22423 -0.367647 -0.837705)">
<stop stop-color="#4998A7"/>
<stop offset="1" stop-color="#093783" stop-opacity="0.85"/>
</linearGradient>
<linearGradient id="paint4_linear" x2="1" gradientUnits="userSpaceOnUse" gradientTransform="matrix(2.39954 -0.51634 0.927674 3.65769 -0.367049 -0.950326)">
<stop stop-color="#4998A7"/>
<stop offset="1" stop-color="#093783" stop-opacity="0.85"/>
</linearGradient>
<linearGradient id="paint5_linear" x2="1" gradientUnits="userSpaceOnUse" gradientTransform="matrix(36.8197 -2.69728 14.2347 19.1072 -5.63217 -4.96435)">
<stop stop-color="#4998A7"/>
<stop offset="1" stop-color="#093783" stop-opacity="0.85"/>
</linearGradient>
<linearGradient id="paint6_linear" x2="1" gradientUnits="userSpaceOnUse" gradientTransform="matrix(43.1076 -2.69728 16.6656 19.1072 -6.59401 -4.96436)">
<stop stop-color="#4998A7"/>
<stop offset="1" stop-color="#093783" stop-opacity="0.85"/>
</linearGradient>
<linearGradient id="paint7_linear" x2="1" gradientUnits="userSpaceOnUse" gradientTransform="matrix(1.92471 -1.62532 0.744104 11.5136 -0.294416 -2.99141)">
<stop stop-color="#4998A7"/>
<stop offset="1" stop-color="#093783" stop-opacity="0.85"/>
</linearGradient>
<linearGradient id="paint8_linear" x2="1" gradientUnits="userSpaceOnUse" gradientTransform="matrix(4.51086 -1.18565 1.74392 8.39904 -0.69001 -2.1822)">
<stop stop-color="#4998A7"/>
<stop offset="1" stop-color="#093783" stop-opacity="0.85"/>
</linearGradient>
</defs>
</svg>
