<svg width="39" height="38" viewBox="0 0 39 38" fill="none" xmlns="http://www.w3.org/2000/svg">
<path d="M1.6048 3.26562C2.49111 3.26562 3.2096 2.53459 3.2096 1.63281C3.2096 0.731035 2.49111 0 1.6048 0C0.718494 0 0 0.731035 0 1.63281C0 2.53459 0.718494 3.26562 1.6048 3.26562Z" transform="translate(7.60107 13.0366)" fill="white"/>
<path d="M1.67775 0C2.60377 0 3.35461 0.763878 3.35461 1.70613C3.35461 2.64838 2.60377 3.41234 1.67775 3.41234C0.751737 3.41234 0 2.64831 0 1.70613C0 0.763954 0.751737 0 1.67775 0Z" transform="translate(27.0142 26.7002)" fill="white"/>
<path d="M1.67731 0C2.60421 0 3.35506 0.763878 3.35506 1.70613C3.35506 2.64921 2.60421 3.41317 1.67731 3.41317C0.750849 3.41317 0 2.64921 0 1.70613C0 0.763878 0.750849 0 1.67731 0Z" transform="translate(18.376 21.0879)" fill="white"/>
<path d="M1.12365 0C1.7442 0 2.24648 0.511057 2.24648 1.14243C2.24648 1.77374 1.7442 2.28479 1.12365 2.28479C0.503104 2.28479 0 1.77366 0 1.14243C0 0.510981 0.503178 0 1.12365 0Z" transform="translate(25.8027 22.7959)" fill="white"/>
<path d="M1.12372 0C1.74427 0 2.24656 0.511885 2.24656 1.14326C2.24656 1.77381 1.74427 2.28562 1.12372 2.28562C0.503178 2.28562 0 1.77374 0 1.14326C0 0.511885 0.503178 0 1.12372 0Z" transform="translate(20.0527 26.1201)" fill="white"/>
<path d="M1.12328 0C1.74383 0 2.24656 0.51196 2.24656 1.14289C2.24656 1.77426 1.74383 2.28577 1.12328 2.28577C0.503177 2.28577 0 1.77426 0 1.14289C7.39097e-05 0.51196 0.503251 0 1.12328 0Z" transform="translate(11.4404 10.2358)" fill="white"/>
<path d="M0.852253 0C1.32261 0 1.70406 0.388106 1.70406 0.866677C1.70406 1.34525 1.32261 1.73335 0.852253 1.73335C0.381448 1.73335 0 1.34525 0 0.866677C7.39097e-05 0.388106 0.381522 0 0.852253 0Z" transform="translate(9.15527 6.02637)" fill="white"/>
<path d="M0.85181 0C1.32261 0 1.70406 0.388105 1.70406 0.867128C1.70406 1.3457 1.32261 1.73381 0.85181 1.73381C0.381449 1.73381 1.07367e-08 1.3457 1.07367e-08 0.867128C-7.3899e-05 0.388105 0.381449 0 0.85181 0Z" transform="translate(14.8032 17.1836)" fill="white"/>
<path d="M1.25964 0C1.95528 0 2.51884 0.573398 2.51884 1.28118C2.51884 1.98896 1.95528 2.56236 1.25964 2.56236C0.564005 2.56236 0 1.98896 0 1.28118C0 0.573398 0.564005 0 1.25964 0Z" transform="translate(12.5635 5.6123)" fill="white"/>
<path d="M0.851809 0C1.32217 0 1.70362 0.38773 1.70362 0.866677C1.70362 1.34525 1.32217 1.73335 0.851809 1.73335C0.381448 1.73335 0 1.34525 0 0.866677C0 0.38773 0.381448 0 0.851809 0Z" transform="translate(10.8594 19.3613)" fill="white"/>
<path d="M0.655062 1.33299C1.01684 1.33299 1.31012 1.03459 1.31012 0.666496C1.31012 0.298401 1.01684 0 0.655062 0C0.293282 0 0 0.298401 0 0.666496C0 1.03459 0.293282 1.33299 0.655062 1.33299Z" transform="translate(15.1963 24.1377)" fill="white"/>
<path d="M0.655062 0C1.0167 0 1.31012 0.29862 1.31012 0.66567C1.31012 1.03445 1.01663 1.33216 0.655062 1.33216C0.293496 1.33216 0 1.03445 0 0.66567C0 0.298545 0.293422 0 0.655062 0Z" transform="translate(30.3691 24.415)" fill="white"/>
<path d="M38.9998 21.2722C39.0188 20.3046 37.5447 20.3072 37.5265 21.2722C37.5162 21.7965 37.4662 22.3971 37.202 22.8555C37.0648 23.0943 36.4477 23.2708 36.2104 23.3779C36.061 23.4447 35.9066 23.4983 35.7538 23.558C35.6434 23.3095 35.5173 23.0663 35.3818 22.8292C36.0421 22.4033 36.7696 21.8931 37.0976 21.231C37.4842 20.4512 37.3401 19.4054 37.1692 18.5844C36.9725 17.6386 35.5519 18.0395 35.7486 18.9825C35.8454 19.451 35.9876 20.1482 35.7677 20.5917C35.5709 20.9877 34.9901 21.3398 34.5231 21.6199C34.2098 21.2555 33.8629 20.9236 33.4874 20.6303C33.9448 20.2378 34.3867 19.8049 34.6672 19.2982C35.0987 18.5185 34.8217 17.3524 34.5714 16.5541C34.2823 15.6369 32.8591 16.0299 33.15 16.9523C33.2941 17.4089 33.5764 18.2155 33.3295 18.6615C33.0879 19.0975 32.5985 19.4861 32.1601 19.8241C31.9012 19.71 31.6328 19.619 31.3575 19.5444C31.6155 19.1769 31.8409 18.7901 31.978 18.3774C32.255 17.5437 31.7225 16.4218 31.3393 15.704C30.8853 14.8544 29.6141 15.6104 30.0672 16.4605C30.2855 16.8701 30.6307 17.5015 30.5583 17.9792C30.4892 18.4297 30.0146 18.9557 29.6409 19.3667C29.5494 19.371 29.4605 19.3667 29.3682 19.3763C28.8987 19.4259 28.3938 19.4215 27.8726 19.3837C28.3498 18.9267 28.8219 18.4007 28.9737 17.8422C29.199 17.0107 28.9582 16.0763 28.651 15.2948C28.3015 14.4093 26.8766 14.7952 27.2304 15.6935C27.3944 16.1089 27.7715 16.9549 27.5695 17.3891C27.2942 17.9819 26.6288 18.5078 26.1593 18.9464C26.1076 18.9952 26.0834 19.0492 26.0489 19.1005C25.5682 18.9898 25.0797 18.8586 24.5791 18.6913C25.1038 18.3603 25.6243 17.9682 25.8771 17.4944C26.3216 16.6672 26.2327 15.6319 26.0756 14.7336C25.909 13.7835 24.4902 14.187 24.655 15.1322C24.7137 15.466 24.8854 16.3695 24.6473 16.683C24.246 17.2112 23.515 17.5853 22.9591 17.9216C22.916 17.9476 22.8936 17.9835 22.8599 18.0152C22.3903 17.8062 21.9191 17.5853 21.4462 17.3342C21.4056 17.3127 21.3711 17.2902 21.3314 17.2679C21.8656 17.0949 22.3826 16.8723 22.7692 16.5162C23.407 15.9297 23.5727 14.8083 23.6642 13.982C23.7712 13.0262 22.3117 13.0345 22.1936 13.9715C22.2013 13.9201 22.2091 13.8555 22.1901 13.982C22.1669 14.1449 22.1349 14.306 22.1004 14.4658C22.0313 14.7916 21.9502 15.1995 21.7266 15.4568C21.5013 15.715 20.8964 15.8146 20.5865 15.9139C20.3129 16.0008 20.0355 16.0798 19.758 16.151C19.7511 16.1527 19.7477 16.1571 19.7403 16.1602C19.0253 15.5056 18.5817 14.7877 18.337 13.9966C19.0732 14.1486 19.8474 14.2675 20.5736 14.1398C21.4126 13.9913 22.1254 12.9608 22.5534 12.2882C23.0713 11.4741 21.7957 10.7234 21.2822 11.5321C21.0242 11.9374 20.6453 12.5244 20.1831 12.6939C19.6644 12.8827 18.718 12.5516 18.1885 12.4348C18.1523 12.4265 18.1229 12.4366 18.0885 12.4339C18.0746 12.0085 18.0976 11.5624 18.1441 11.0983C18.9731 11.2173 19.8694 11.3419 20.6755 11.1343C21.5144 10.917 22.1504 9.89006 22.5371 9.16777C22.9911 8.31906 21.7189 7.5621 21.265 8.41171C21.0742 8.76778 20.6401 9.66168 20.2008 9.71259C19.7848 9.76132 19.3516 9.7174 18.936 9.68492C18.7764 9.67221 18.6171 9.65416 18.4571 9.63709C18.4415 9.63536 18.3876 9.62829 18.3293 9.6213C18.3962 8.94608 18.3927 8.29229 18.3237 7.66708C19.1458 7.51345 20.1823 7.34966 20.8291 6.80567C21.4729 6.2643 21.7474 5.26633 21.8863 4.45801C22.0503 3.5132 20.6298 3.10922 20.4658 4.05982C20.3734 4.58931 20.2478 5.27558 19.8712 5.67466C19.6636 5.89507 19.0379 5.9605 18.7552 6.03427C18.514 6.09616 18.2689 6.14752 18.0251 6.19715C17.8412 5.59082 17.5884 5.02531 17.2704 4.50944C17.8961 4.19202 18.5598 3.8052 18.914 3.26647C19.3818 2.55605 19.3914 1.54274 19.3128 0.718171C19.2217 -0.234986 17.7477 -0.243784 17.8395 0.718171C17.8901 1.24239 17.95 1.92513 17.7097 2.40768C17.5664 2.6957 16.9885 2.92664 16.7279 3.07944C16.5942 3.15758 16.4565 3.22608 16.3201 3.29985C15.5339 2.51394 14.5466 1.9252 13.3845 1.59944C12.8447 1.44836 12.2673 1.37203 11.67 1.37203C8.70674 1.37203 5.33432 3.33948 4.81569 6.63151C4.78894 6.80755 4.77208 6.97569 4.74659 7.14956C4.34526 7.30236 3.87489 7.43629 3.59049 7.30236C3.00446 7.02442 2.48495 6.35357 2.04822 5.87891C1.39966 5.1703 0.360561 6.23234 1.00735 6.93794C1.56573 7.54872 2.32567 8.50451 3.146 8.72928C3.59736 8.85306 4.07637 8.82636 4.54503 8.73018C4.48118 9.32727 4.43461 9.91082 4.40261 10.4829C3.98362 10.6599 3.19566 11.0151 2.78702 10.8219C2.20143 10.5439 1.68148 9.87397 1.246 9.39841C0.596998 8.6898 -0.442098 9.7523 0.203873 10.4583C0.76226 11.069 1.52257 12.0248 2.34252 12.2505C2.995 12.4296 3.70357 12.3054 4.35213 12.0885C4.34954 12.852 4.3814 13.5892 4.43971 14.308C4.03232 14.477 3.20594 14.8608 2.78606 14.6632C2.20047 14.3853 1.68051 13.7153 1.24504 13.2398C0.59685 12.5303 -0.442172 13.5923 0.203799 14.2979C0.762187 14.9078 1.5225 15.8645 2.34245 16.0892C3.08509 16.2925 3.8981 16.1037 4.61577 15.8302C4.71281 16.4778 4.82936 17.1127 4.98339 17.7229C4.95752 17.7384 4.93291 17.7392 4.90741 17.7581C4.54407 18.0259 3.84415 18.5905 3.3729 18.4979C2.74459 18.3749 2.0766 17.8388 1.54711 17.4855C0.751026 16.9533 0.0139247 18.2516 0.80402 18.7794C1.49574 19.2426 2.29921 19.8103 3.12301 19.9718C3.90756 20.1246 4.76669 19.6706 5.42692 19.2122C5.61769 19.7658 5.84119 20.2993 6.08324 20.8235C6.04703 20.8613 6.00645 20.8885 5.97578 20.9368C5.71769 21.3468 5.2508 22.088 4.72951 22.1011C4.03646 22.1196 3.31976 21.9598 2.64393 21.814C1.71658 21.6155 1.32264 23.0609 2.25213 23.2594C3.13979 23.4499 4.17888 23.7169 5.08465 23.5685C5.80054 23.4517 6.39085 22.8817 6.84703 22.2759C7.23926 22.9433 7.67851 23.5878 8.1675 24.2069C8.13039 24.2456 8.08856 24.2728 8.05708 24.3228C7.79898 24.7329 7.3321 25.4741 6.81081 25.4872C6.11695 25.5065 5.40017 25.3458 4.72523 25.2001C3.79877 25.0016 3.40394 26.4461 4.33343 26.6455C5.22109 26.8351 6.26018 27.1039 7.16595 26.9545C8.00482 26.8176 8.67023 26.0588 9.15094 25.3511C9.72965 25.9719 10.3583 26.5717 11.0458 27.1478C11.0104 27.1847 10.9716 27.2101 10.9404 27.2584C10.6824 27.6676 10.2159 28.4079 9.69469 28.4228C9.00076 28.4412 8.28405 28.2805 7.60867 28.1357C6.68169 27.9364 6.28775 29.3817 7.21724 29.582C8.10445 29.7715 9.14399 30.0394 10.0498 29.8909C10.9832 29.739 11.7008 28.8178 12.1884 28.0504C12.9245 28.5957 13.7005 29.1085 14.5074 29.5871C14.5039 29.5977 14.4957 29.6029 14.4923 29.6135C14.3607 30.0034 14.0892 30.8271 13.688 30.9904C13.0226 31.2627 12.1487 31.2275 11.4397 31.2486C10.4916 31.2776 10.4891 32.7765 11.4397 32.7476C12.3235 32.7204 13.5934 32.7845 14.3758 32.3129C15.0835 31.8845 15.506 31.0889 15.7986 30.3109C16.4377 30.6481 17.0897 30.9642 17.7517 31.2539C17.756 31.7317 17.7374 32.4921 17.4017 32.7345C16.8257 33.1472 16.1291 33.4317 15.4754 33.6925C14.6011 34.0428 14.9813 35.4935 15.8668 35.1388C16.7592 34.7822 17.7551 34.4081 18.4845 33.7591C18.9652 33.3298 19.1412 32.5562 19.1978 31.8431C20.0548 32.1689 20.9187 32.4587 21.78 32.6975C21.7809 32.7045 21.7792 32.7089 21.78 32.715C21.8707 33.1971 22.0174 34.0357 21.6488 34.4116C21.1552 34.9138 20.5148 35.2994 19.9214 35.6691C19.1127 36.1731 19.8524 37.47 20.665 36.9634C21.4115 36.4972 22.5602 35.9061 22.9951 35.1027C23.3265 34.4906 23.3741 33.7706 23.3084 33.0716C24.162 33.2578 25.0069 33.4 25.8311 33.4861C26.0539 33.9322 26.3369 34.5828 26.1168 34.9964C25.7871 35.6164 25.2969 36.1697 24.8378 36.6947C24.2085 37.4148 25.2468 38.4782 25.8803 37.7554C26.525 37.017 27.2542 36.21 27.5986 35.2756C27.7833 34.7759 27.6685 34.1586 27.4683 33.5861C27.5917 33.5896 27.7177 33.5966 27.8402 33.5966C28.3572 33.5966 28.8612 33.5651 29.3522 33.5194C29.6595 33.9672 30.0117 34.5662 29.8131 35.0403C29.5412 35.6919 29.1502 36.3083 28.7688 36.8993C28.244 37.7098 29.5205 38.4597 30.0409 37.6554C30.5355 36.8914 31.137 36.0203 31.3261 35.1141C31.4529 34.5056 31.226 33.8417 30.9126 33.2595C34.2492 32.399 36.4068 29.7936 36.4068 26.4419C36.4068 25.9607 36.3447 25.4716 36.2351 24.9851C36.9739 24.7243 37.7998 24.4081 38.2952 23.8532C38.8755 23.2005 38.9825 22.1178 38.9998 21.2722ZM29.3699 31.807C28.8797 31.8596 28.3652 31.8852 27.8406 31.8852C22.4854 31.8852 16.5299 29.2008 13.0034 26.5418C7.05826 22.0581 5.04695 16 6.47955 6.90268C6.85582 4.51373 9.41435 3.08599 11.6717 3.08599C12.1188 3.08599 12.5447 3.14178 12.94 3.2524C16.2701 4.1845 16.992 7.43532 16.5989 9.93578C16.1126 13.0219 16.2161 16.4944 20.6704 18.8548C23.8317 20.5311 27.0225 21.3468 29.5451 21.0799C32.388 20.7743 34.7252 23.8899 34.7252 26.4434C34.7242 29.9831 31.8391 31.5453 29.3699 31.807Z" fill="white"/>
</svg>
