<svg width="46" height="37" viewBox="0 0 46 37" fill="none" xmlns="http://www.w3.org/2000/svg">
<path d="M0.734043 4.39377C1.13953 4.39377 1.46809 4.06589 1.46809 3.66147V0.732294C1.46809 0.327873 1.13953 0 0.734043 0C0.328557 0 0 0.327873 0 0.732294V3.66147C0 4.06589 0.328557 4.39377 0.734043 4.39377Z" transform="translate(22.2661 4.43506)" fill="white"/>
<path d="M0.734043 20.2941C1.13953 20.2941 1.46809 19.9663 1.46809 19.5618V0.732294C1.46809 0.327873 1.13953 0 0.734043 0C0.328557 0 0 0.327873 0 0.732294V19.5618C0 19.9663 0.328557 20.2941 0.734043 20.2941Z" transform="translate(22.2661 10.2935)" fill="white"/>
<path d="M45.266 0C44.8605 0 44.5319 0.327873 44.5319 0.732294V31.3944H25.8121C25.4363 31.3944 25.0864 31.5725 24.8652 31.8736L24.2359 32.606L21.7643 32.6062L21.1347 31.8737C20.9131 31.5726 20.5631 31.3944 20.1877 31.3944H1.46809V0.732294C1.46809 0.327873 1.13953 0 0.734043 0C0.328557 0 0 0.327873 0 0.732294V32.1267C0 32.5312 0.328557 32.859 0.734043 32.859H20.0479L20.8696 33.8152C21.0091 33.9775 21.2127 34.0708 21.4269 34.0708L24.5737 34.0705C24.7879 34.0705 24.9916 33.9771 25.131 33.8147L25.952 32.8589H45.266C45.6714 32.8589 46 32.5311 46 32.1266V0.732294C46 0.327873 45.6714 0 45.266 0Z" transform="translate(0 2.9292)" fill="white"/>
<path d="M0.734043 32.859H17.2518C18.1382 32.859 18.9609 33.2993 19.4527 34.0368C19.5889 34.2409 19.8182 34.3635 20.0639 34.3635C20.3096 34.3635 20.539 34.2409 20.675 34.0367C21.1666 33.2993 21.9894 32.859 22.8759 32.859H39.3936C39.7991 32.859 40.1277 32.5312 40.1277 32.1267V0.732294C40.1277 0.327873 39.7991 0 39.3936 0H22.8759C21.8173 0 20.8172 0.403641 20.0638 1.11045C19.3104 0.403738 18.3103 0 17.2518 0H0.734043C0.328557 0 0 0.327873 0 0.732294V32.1267C0 32.5312 0.328557 32.859 0.734043 32.859ZM1.46809 1.46459H17.2518C18.1381 1.46459 18.9608 1.90533 19.4525 2.64358C19.5886 2.84784 19.818 2.97058 20.0638 2.97058C20.3097 2.97058 20.5391 2.84784 20.6752 2.64358C21.1669 1.90533 21.9896 1.46469 22.8759 1.46469H38.6596V31.3945H22.8759C21.8172 31.3945 20.8172 31.7979 20.0637 32.504C19.3103 31.7979 18.3103 31.3945 17.2518 31.3945H1.46809V1.46459Z" transform="translate(2.93604)" fill="white"/>
<path d="M12.234 0H0.734043C0.328557 0 0 0.327873 0 0.732294C0 1.13672 0.328557 1.46459 0.734043 1.46459H12.234C12.6395 1.46459 12.9681 1.13672 12.9681 0.732294C12.9681 0.327873 12.6395 0 12.234 0Z" transform="translate(6.85107 3.90576)" fill="white"/>
<path d="M12.234 0H0.734043C0.328557 0 0 0.327873 0 0.732294C0 1.13672 0.328557 1.46459 0.734043 1.46459H12.234C12.6395 1.46459 12.9681 1.13672 12.9681 0.732294C12.9681 0.327873 12.6395 0 12.234 0Z" transform="translate(6.85107 6.83496)" fill="white"/>
<path d="M12.234 0H0.734043C0.328557 0 0 0.327873 0 0.732294C0 1.13672 0.328557 1.46459 0.734043 1.46459H12.234C12.6395 1.46459 12.9681 1.13672 12.9681 0.732294C12.9681 0.327873 12.6395 0 12.234 0Z" transform="translate(6.85107 9.76367)" fill="white"/>
<path d="M12.234 0H0.734043C0.328557 0 0 0.327873 0 0.732294C0 1.13672 0.328557 1.46459 0.734043 1.46459H12.234C12.6395 1.46459 12.9681 1.13672 12.9681 0.732294C12.9681 0.327873 12.6395 0 12.234 0Z" transform="translate(6.85107 12.6929)" fill="white"/>
<path d="M12.234 0H0.734043C0.328557 0 0 0.327873 0 0.732294C0 1.13672 0.328557 1.46459 0.734043 1.46459H12.234C12.6395 1.46459 12.9681 1.13672 12.9681 0.732294C12.9681 0.327873 12.6395 0 12.234 0Z" transform="translate(6.85107 15.6226)" fill="white"/>
<path d="M0.734043 1.46459H6.48404C6.88953 1.46459 7.21808 1.13672 7.21808 0.732294C7.21808 0.327873 6.88953 0 6.48404 0H0.734043C0.328557 0 0 0.327873 0 0.732294C0 1.13672 0.328557 1.46459 0.734043 1.46459Z" transform="translate(6.85107 18.5513)" fill="white"/>
<path d="M12.234 0H0.734043C0.328557 0 0 0.327873 0 0.732294V6.74053C0 7.14495 0.328557 7.47282 0.734043 7.47282H12.234C12.6395 7.47282 12.9681 7.14495 12.9681 6.74053V0.732294C12.9681 0.327873 12.6395 0 12.234 0ZM11.5 6.00823H1.46809V1.46459H11.5V6.00823Z" transform="translate(6.85107 21.4805)" fill="white"/>
<path d="M0.734043 1.46459H12.234C12.6395 1.46459 12.9681 1.13672 12.9681 0.732294C12.9681 0.327873 12.6395 0 12.234 0H0.734043C0.328557 0 0 0.327873 0 0.732294C0 1.13672 0.328557 1.46459 0.734043 1.46459Z" transform="translate(25.2017 15.7725)" fill="white"/>
<path d="M0.734043 1.46459H12.234C12.6395 1.46459 12.9681 1.13672 12.9681 0.732294C12.9681 0.327873 12.6395 0 12.234 0H0.734043C0.328557 0 0 0.327873 0 0.732294C0 1.13672 0.328557 1.46459 0.734043 1.46459Z" transform="translate(25.2017 18.7012)" fill="white"/>
<path d="M0.734043 1.46459H12.234C12.6395 1.46459 12.9681 1.13672 12.9681 0.732294C12.9681 0.327873 12.6395 0 12.234 0H0.734043C0.328557 0 0 0.327873 0 0.732294C0 1.13672 0.328557 1.46459 0.734043 1.46459Z" transform="translate(25.2017 21.6304)" fill="white"/>
<path d="M0.734043 1.46459H12.234C12.6395 1.46459 12.9681 1.13672 12.9681 0.732294C12.9681 0.327873 12.6395 0 12.234 0H0.734043C0.328557 0 0 0.327873 0 0.732294C0 1.13672 0.328557 1.46459 0.734043 1.46459Z" transform="translate(25.2017 24.5601)" fill="white"/>
<path d="M0.734043 1.46459H6.48404C6.88953 1.46459 7.21808 1.13672 7.21808 0.732294C7.21808 0.327873 6.88953 0 6.48404 0H0.734043C0.328557 0 0 0.327873 0 0.732294C0 1.13672 0.328557 1.46459 0.734043 1.46459Z" transform="translate(25.2017 27.4888)" fill="white"/>
<path d="M0.734043 8.9375C0.328557 8.9375 0 9.26538 0 9.6698C0 10.0742 0.328557 10.4021 0.734043 10.4021C1.78646 10.4021 2.66957 10.1377 3.43258 9.70534C3.47124 9.68708 3.50804 9.66589 3.54268 9.64148C4.76981 8.90909 5.6812 7.73928 6.48404 6.54261C7.2866 7.73879 8.19759 8.90821 9.42403 9.64061C9.45975 9.66589 9.49783 9.68796 9.53795 9.70661C10.3004 10.1381 11.1828 10.402 12.2341 10.402C12.6396 10.402 12.9682 10.0741 12.9682 9.6697C12.9682 9.26528 12.6396 8.93741 12.2341 8.93741C11.6128 8.93741 11.07 8.81643 10.5825 8.60046V1.80154C11.07 1.58556 11.6128 1.46459 12.2341 1.46459C12.6396 1.46459 12.9682 1.13672 12.9682 0.732294C12.9682 0.327873 12.6396 0 12.2341 0C11.1824 0 10.2997 0.264114 9.53697 0.695875C9.49753 0.714426 9.45985 0.736102 9.42462 0.761C8.19789 1.49339 7.28679 2.66291 6.48414 3.85929C5.6811 2.66243 4.76961 1.49251 3.54219 0.760121C3.50804 0.736102 3.47173 0.715207 3.43366 0.697242C2.67045 0.264602 1.78705 0 0.734141 0C0.328656 0 9.85653e-05 0.327873 9.85653e-05 0.732294C9.85653e-05 1.13672 0.328656 1.46459 0.734141 1.46459C1.35543 1.46459 1.89833 1.58556 2.38574 1.80154V8.60046C1.89823 8.81653 1.35534 8.9375 0.734043 8.9375ZM9.11436 2.8578V7.54439C8.4824 6.90085 7.92844 6.084 7.35687 5.20114C7.92844 4.31819 8.4824 3.50125 9.11436 2.8578ZM3.85372 2.8578C4.48569 3.50134 5.03964 4.31819 5.61122 5.20105C5.03955 6.0839 4.48569 6.90085 3.85372 7.54429V2.8578Z" transform="translate(25.2017 3.90576)" fill="white"/>
</svg>
