<svg width="20" height="32" viewBox="0 0 20 32" fill="none" xmlns="http://www.w3.org/2000/svg">
<path d="M5.8158 7.19105L5.79316 7.05683L5.79338 7.0568C2.7574 7.56595 0.542459 10.2287 0.552665 13.3342V15.4667V15.9667H1.05267H3.68423C3.68782 15.9667 3.69012 15.9673 3.69211 15.9681C3.69445 15.9691 3.69745 15.971 3.7005 15.9741C3.70649 15.9802 3.71055 15.9885 3.71055 16C3.71055 16.0115 3.70649 16.0198 3.7005 16.0259C3.69745 16.029 3.69445 16.0309 3.69211 16.0319C3.69012 16.0327 3.68782 16.0333 3.68423 16.0333H1.05267H0.552665V16.5333V25.0667V25.5667H1.05267H3.68423C3.68782 25.5667 3.69012 25.5673 3.69211 25.5681C3.69445 25.5691 3.69745 25.571 3.7005 25.5741C3.70649 25.5802 3.71055 25.5885 3.71055 25.6C3.71055 25.6115 3.70649 25.6198 3.7005 25.6259C3.69745 25.629 3.69445 25.6309 3.69211 25.6319C3.69012 25.6327 3.68782 25.6333 3.68423 25.6333H1.05267H0.552665V26.1333V30.9333V31.4333H1.05267H18.9473H19.4473V30.9333V26.1333V25.6333H18.9473H16.3158C16.3122 25.6333 16.3099 25.6327 16.3079 25.6319C16.3056 25.6309 16.3026 25.629 16.2995 25.6259C16.2935 25.6198 16.2895 25.6115 16.2895 25.6C16.2895 25.5885 16.2935 25.5802 16.2995 25.5741C16.3026 25.571 16.3056 25.5691 16.3079 25.5681C16.3087 25.5678 16.3095 25.5675 16.3104 25.5673C16.3119 25.5669 16.3136 25.5667 16.3158 25.5667H18.9473H19.4473V25.0667V16.5333V16.0333H18.9473H16.3158C16.3122 16.0333 16.3099 16.0327 16.3079 16.0319C16.3056 16.0309 16.3026 16.029 16.2995 16.0259C16.2935 16.0198 16.2895 16.0115 16.2895 16C16.2895 15.9885 16.2935 15.9802 16.2995 15.9741C16.3026 15.971 16.3056 15.9691 16.3079 15.9681C16.3099 15.9673 16.3122 15.9667 16.3158 15.9667H18.9473H19.4473V15.4667V13.3339C19.4574 10.2284 17.2424 7.56577 14.2063 7.05675L14.1842 7.05301V5.33333V4.83333H13.6842H6.3158H5.8158V5.33333V7.05301M5.8158 7.19105V7.47573H5.86383M5.8158 7.19105V7.18884L5.8639 7.47573M5.8158 7.19105L5.86383 7.47573M5.86383 7.47573L5.87633 7.54987L5.8639 7.47573M5.86383 7.47573H5.8639M5.8639 7.47573H6.3158L6.23263 6.9827L5.8158 7.05301M5.8158 7.05301L5.79366 7.05675L5.8158 7.05301ZM14.2368 6.5872V6.98263L14.6216 7.07374C17.4823 7.75116 19.5097 10.3434 19.5 13.3317V13.3333V31.5H0.500037L0.50004 13.3333L0.500035 13.3317C0.490316 10.3434 2.51771 7.75116 5.37839 7.07374L5.76318 6.98263V6.5872V5.33333V4.83333H5.26318H4.73686C4.14719 4.83333 3.65792 4.34712 3.65792 3.73333V1.6C3.65792 0.98621 4.14719 0.5 4.73686 0.5H15.2631C15.8528 0.5 16.3421 0.98621 16.3421 1.6V3.73333C16.3421 4.34712 15.8528 4.83333 15.2631 4.83333H14.7368H14.2368V5.33333V6.5872ZM3.71055 3.73333C3.71055 4.29774 4.16384 4.76667 4.73686 4.76667H15.2631C15.8362 4.76667 16.2895 4.29774 16.2895 3.73333V1.6C16.2895 1.03559 15.8362 0.566667 15.2631 0.566667H4.73686C4.16384 0.566667 3.71055 1.03559 3.71055 1.6V3.73333Z" fill="url(#paint0_linear)" stroke="#3C963E"/>
<path d="M0.552628 1.6C0.552628 1.61148 0.548572 1.61984 0.542579 1.62591C0.539528 1.62901 0.536526 1.63085 0.534187 1.63186C0.532203 1.63271 0.529895 1.63333 0.526314 1.63333C0.522733 1.63333 0.520425 1.63271 0.51844 1.63186C0.516102 1.63085 0.5131 1.62901 0.510048 1.62591C0.504056 1.61984 0.5 1.61148 0.5 1.6V0.533333C0.5 0.521855 0.504056 0.513493 0.510048 0.50742C0.5131 0.504328 0.516102 0.502479 0.51844 0.501477C0.520425 0.500626 0.522733 0.5 0.526314 0.5C0.529895 0.5 0.532203 0.500626 0.534187 0.501477C0.536526 0.502479 0.539528 0.504328 0.542579 0.50742C0.548572 0.513493 0.552628 0.521856 0.552628 0.533333V1.6Z" transform="translate(7.36865 1.6001)" fill="url(#paint1_linear)" stroke="#3C963E"/>
<path d="M0.552628 1.6C0.552628 1.61148 0.548572 1.61984 0.542579 1.62591C0.539528 1.62901 0.536526 1.63085 0.534187 1.63186C0.532203 1.63271 0.529895 1.63333 0.526314 1.63333C0.522733 1.63333 0.520425 1.63271 0.51844 1.63186C0.516102 1.63085 0.5131 1.62901 0.510048 1.62591C0.504056 1.61984 0.5 1.61148 0.5 1.6V0.533333C0.5 0.521855 0.504056 0.513493 0.510048 0.50742C0.5131 0.504328 0.516102 0.502479 0.51844 0.501477C0.520425 0.500626 0.522733 0.5 0.526314 0.5C0.529895 0.5 0.532203 0.500626 0.534187 0.501477C0.536526 0.502479 0.539528 0.504328 0.542579 0.50742C0.548572 0.513493 0.552628 0.521856 0.552628 0.533333V1.6Z" transform="translate(9.47363 1.6001)" fill="url(#paint2_linear)" stroke="#3C963E"/>
<path d="M0.552628 1.6C0.552628 1.61148 0.548572 1.61984 0.542579 1.62591C0.539528 1.62901 0.536526 1.63085 0.534187 1.63186C0.532203 1.63271 0.529895 1.63333 0.526314 1.63333C0.522733 1.63333 0.520425 1.63271 0.51844 1.63186C0.516102 1.63085 0.5131 1.62901 0.510048 1.62591C0.504056 1.61984 0.5 1.61148 0.5 1.6V0.533333C0.5 0.521855 0.504056 0.513493 0.510048 0.50742C0.5131 0.504328 0.516102 0.502479 0.51844 0.501477C0.520425 0.500626 0.522733 0.5 0.526314 0.5C0.529895 0.5 0.532203 0.500626 0.534187 0.501477C0.536526 0.502479 0.539528 0.504328 0.542579 0.50742C0.548572 0.513493 0.552628 0.521856 0.552628 0.533333V1.6Z" transform="translate(11.5786 1.6001)" fill="url(#paint3_linear)" stroke="#3C963E"/>
<path d="M0.552628 1.6C0.552628 1.61148 0.548572 1.61984 0.542579 1.62591C0.539528 1.62901 0.536526 1.63085 0.534187 1.63186C0.532203 1.63271 0.529895 1.63333 0.526314 1.63333C0.522733 1.63333 0.520425 1.63271 0.51844 1.63186C0.516102 1.63085 0.5131 1.62901 0.510048 1.62591C0.504056 1.61984 0.5 1.61148 0.5 1.6V0.533333C0.5 0.521855 0.504056 0.513493 0.510048 0.50742C0.5131 0.504328 0.516102 0.502479 0.51844 0.501477C0.520425 0.500626 0.522733 0.5 0.526314 0.5C0.529895 0.5 0.532203 0.500626 0.534187 0.501477C0.536526 0.502479 0.539528 0.504328 0.542579 0.50742C0.548572 0.513493 0.552628 0.521856 0.552628 0.533333V1.6Z" transform="translate(5.26318 1.6001)" fill="url(#paint4_linear)" stroke="#3C963E"/>
<path d="M0.552628 1.6C0.552628 1.61148 0.548572 1.61984 0.542579 1.62591C0.539528 1.62901 0.536526 1.63085 0.534187 1.63186C0.532203 1.63271 0.529895 1.63333 0.526314 1.63333C0.522733 1.63333 0.520425 1.63271 0.51844 1.63186C0.516102 1.63085 0.5131 1.62901 0.510048 1.62591C0.504056 1.61984 0.5 1.61148 0.5 1.6V0.533333C0.5 0.521855 0.504056 0.513493 0.510048 0.50742C0.5131 0.504328 0.516102 0.502479 0.51844 0.501477C0.520425 0.500626 0.522733 0.5 0.526314 0.5C0.529895 0.5 0.532203 0.500626 0.534187 0.501477C0.536526 0.502479 0.539528 0.504328 0.542579 0.50742C0.548572 0.513493 0.552628 0.521856 0.552628 0.533333V1.6Z" transform="translate(13.6836 1.6001)" fill="url(#paint5_linear)" stroke="#3C963E"/>
<path d="M6.84208 13.3H6.84267C10.3204 13.2959 13.1275 10.4418 13.1315 6.93391V6.93333C13.1315 3.42339 10.3219 0.566667 6.84208 0.566667C3.36229 0.566667 0.552628 3.42339 0.552628 6.93333C0.552628 10.4433 3.36229 13.3 6.84208 13.3ZM0.5 6.93333C0.5 3.37411 3.34548 0.500164 6.84178 0.5C10.3367 0.504226 13.1801 3.37611 13.1842 6.9339C13.1839 10.493 10.3383 13.3667 6.84208 13.3667C3.34564 13.3667 0.5 10.4927 0.5 6.93333Z" transform="translate(3.15771 13.8667)" fill="url(#paint6_linear)" stroke="#3C963E"/>
<path d="M2.10526 2.63333H2.60526V2.13333V0.5H4.76314V2.13333V2.63333H5.26314H6.86839V4.83333H5.26314H4.76314V5.33333V6.96667H2.60526V5.33333V4.83333H2.10526H0.5V2.63333H2.10526ZM6.81577 3.2V2.7H6.31577H4.71051V1.06667V0.566667H4.21051H3.15788H2.65788V1.06667V2.7H1.05263H0.552628V3.2V4.26667V4.76667H1.05263H2.65788V6.4V6.9H3.15788H4.21051H4.71051V6.4V4.76667H6.31577H6.81577V4.26667V3.2Z" transform="translate(6.31543 17.0667)" fill="url(#paint7_linear)" stroke="#3C963E"/>
<defs>
<linearGradient id="paint0_linear" x2="1" gradientUnits="userSpaceOnUse" gradientTransform="translate(26.0478 32.1493) scale(32.0957 -32.5237) rotate(90)">
<stop stop-color="#006DF0"/>
<stop offset="1" stop-color="#00E7F0"/>
</linearGradient>
<linearGradient id="paint1_linear" x2="1" gradientUnits="userSpaceOnUse" gradientTransform="translate(16.5742 30.5493) scale(32.0957 -32.5237) rotate(90)">
<stop stop-color="#006DF0"/>
<stop offset="1" stop-color="#00E7F0"/>
</linearGradient>
<linearGradient id="paint2_linear" x2="1" gradientUnits="userSpaceOnUse" gradientTransform="translate(16.5742 30.5493) scale(32.0957 -32.5237) rotate(90)">
<stop stop-color="#006DF0"/>
<stop offset="1" stop-color="#00E7F0"/>
</linearGradient>
<linearGradient id="paint3_linear" x2="1" gradientUnits="userSpaceOnUse" gradientTransform="translate(16.5742 30.5493) scale(32.0957 -32.5237) rotate(90)">
<stop stop-color="#006DF0"/>
<stop offset="1" stop-color="#00E7F0"/>
</linearGradient>
<linearGradient id="paint4_linear" x2="1" gradientUnits="userSpaceOnUse" gradientTransform="translate(16.5742 30.5493) scale(32.0957 -32.5237) rotate(90)">
<stop stop-color="#006DF0"/>
<stop offset="1" stop-color="#00E7F0"/>
</linearGradient>
<linearGradient id="paint5_linear" x2="1" gradientUnits="userSpaceOnUse" gradientTransform="translate(16.5742 30.5493) scale(32.0957 -32.5237) rotate(90)">
<stop stop-color="#006DF0"/>
<stop offset="1" stop-color="#00E7F0"/>
</linearGradient>
<linearGradient id="paint6_linear" x2="1" gradientUnits="userSpaceOnUse" gradientTransform="translate(22.8899 18.2827) scale(32.0957 -32.5237) rotate(90)">
<stop stop-color="#006DF0"/>
<stop offset="1" stop-color="#00E7F0"/>
</linearGradient>
<linearGradient id="paint7_linear" x2="1" gradientUnits="userSpaceOnUse" gradientTransform="translate(19.732 15.0827) scale(32.0957 -32.5237) rotate(90)">
<stop stop-color="#006DF0"/>
<stop offset="1" stop-color="#00E7F0"/>
</linearGradient>
</defs>
</svg>
