<svg width="64" height="72" viewBox="0 0 64 72" fill="none" xmlns="http://www.w3.org/2000/svg">
<path d="M0.26811 3.17314C0.298689 3.46644 0.548225 3.68479 0.839145 3.68479C0.858918 3.68479 0.878844 3.6838 0.898924 3.68175C1.21468 3.64936 1.44421 3.36921 1.41156 3.05599L1.14654 0.511586C1.1139 0.198288 0.831558 -0.0292542 0.51573 0.00305637C0.199978 0.0354429 -0.0295551 0.315594 0.003093 0.628816L0.26811 3.17314Z" transform="translate(28.3672 33.2383) scale(4)" fill="white"/>
<path d="M0.515743 3.68175C0.535823 3.6838 0.55575 3.68479 0.575523 3.68479C0.866367 3.68479 1.11598 3.46644 1.14656 3.17314L1.41157 0.62874C1.44422 0.315442 1.21469 0.0352902 0.898937 0.00297964C0.583109 -0.0288748 0.300696 0.198288 0.268124 0.51151L0.00310671 3.05591C-0.0296181 3.36921 0.199915 3.64936 0.515743 3.68175Z" transform="translate(41.7676 33.2383) scale(4)" fill="white"/>
<path d="M1.77917 0C0.798117 0 0 0.791723 0 1.76492C0 2.73834 0.798117 3.53029 1.77917 3.53029C2.76022 3.53029 3.55842 2.73834 3.55842 1.76492C3.55842 0.791723 2.76022 0 1.77917 0ZM1.77917 2.38984C1.432 2.38984 1.14958 2.10946 1.14958 1.76484C1.14958 1.42045 1.432 1.1403 1.77917 1.1403C2.12634 1.1403 2.40883 1.42045 2.40883 1.76484C2.40883 2.10946 2.12634 2.38984 1.77917 2.38984Z" transform="translate(18.9102 57.8789) scale(4)" fill="white"/>
<path d="M1.77925 0C0.798193 0 0 0.791723 0 1.76492C0 2.73834 0.798193 3.53029 1.77925 3.53029C2.76038 3.53029 3.55865 2.73834 3.55865 1.76492C3.55865 0.791723 2.76038 0 1.77925 0ZM1.77925 2.38984C1.43207 2.38984 1.14958 2.10946 1.14958 1.76484C1.14958 1.42045 1.43207 1.1403 1.77925 1.1403C2.1265 1.1403 2.40906 1.42045 2.40906 1.76484C2.40906 2.10946 2.1265 2.38984 1.77925 2.38984Z" transform="translate(42.6484 57.8789) scale(4)" fill="white"/>
<path d="M15.8799 2.48343C15.771 2.34377 15.6031 2.26197 15.4252 2.26197H3.96805L3.48699 0.426652C3.42108 0.17539 3.19239 0 2.93067 0H0.574791C0.257353 0 0 0.255291 0 0.570186C0 0.885081 0.257353 1.14037 0.574791 1.14037H2.48624L2.96301 2.95904C2.96562 2.97044 2.9686 2.98177 2.9719 2.99295L4.74609 9.76083C4.812 10.0121 5.04069 10.1875 5.30241 10.1875H13.6464C13.9081 10.1875 14.1368 10.0121 14.2027 9.76083L15.9816 2.97561C16.0262 2.80486 15.9887 2.62301 15.8799 2.48343ZM13.2019 9.04718H5.74676L4.26694 3.40234H14.6817L13.2019 9.04718Z" transform="translate(0 15.709) scale(4)" fill="white"/>
<path d="M0.574791 2.9854L3.94115 2.98555L3.06226 3.85748C2.83778 4.08016 2.83778 4.4412 3.06226 4.6638C3.17446 4.7751 3.3216 4.83083 3.46867 4.83083C3.61574 4.83083 3.76289 4.77518 3.87509 4.6638L5.73458 2.81921C5.95905 2.59653 5.95905 2.23549 5.73458 2.01289L3.87379 0.167008C3.64931 -0.0556692 3.28535 -0.0556692 3.06088 0.167008C2.8364 0.389684 2.8364 0.750726 3.06088 0.973403L3.93977 1.84526L0.574791 1.8451C0.257353 1.8451 0 2.10039 0 2.41529C7.66388e-05 2.73011 0.257353 2.9854 0.574791 2.9854Z" transform="translate(26.0898) scale(4)" fill="white"/>
</svg>
