<svg width="28" height="17" viewBox="0 0 28 17" fill="none" xmlns="http://www.w3.org/2000/svg">
<path d="M0.120399 0.0200363C0.114842 0.0137752 0.108049 0.00751375 0.101258 0.00563543C0.0926139 0.00250491 0.0771783 0 0.0543337 0H0V0.0901597H0.0580386C0.0852051 0.0901597 0.103728 0.0857771 0.113606 0.0770116C0.122868 0.0688722 0.127806 0.0582284 0.127806 0.0444541C0.127806 0.0338103 0.125338 0.0275496 0.120399 0.0200363Z" transform="translate(27.0869 13.1133)" fill="#083482"/>
<path d="M0.120399 0.0200363C0.114842 0.0137752 0.108049 0.00751375 0.101258 0.00563543C0.0926139 0.00250491 0.0771783 0 0.0543337 0H0V0.0901597H0.0580386C0.0852051 0.0901597 0.103728 0.0857771 0.113606 0.0770116C0.122868 0.0688722 0.127806 0.0582284 0.127806 0.0444541C0.127806 0.0338103 0.125338 0.0275496 0.120399 0.0200363Z" transform="translate(27.0869 13.1133)" fill="url(#paint0_linear)"/>
<path d="M0.506901 0.137744C0.482822 0.0939165 0.448863 0.0594803 0.405644 0.0363144C0.363042 0.0118963 0.317352 0 0.272898 0C0.227209 0 0.181521 0.0118963 0.138919 0.0363144C0.0956992 0.0594803 0.0617402 0.0932904 0.0376608 0.137744C0.012964 0.182197 0 0.227903 0 0.275486C0 0.322444 0.0135821 0.369402 0.0364266 0.412603C0.060506 0.455805 0.094465 0.49024 0.137684 0.514659C0.180904 0.538451 0.225974 0.551599 0.272898 0.551599C0.319822 0.551599 0.364895 0.538451 0.407497 0.514659C0.450099 0.49024 0.484057 0.455805 0.506901 0.412603C0.530981 0.367524 0.543945 0.322444 0.543945 0.275486C0.543945 0.227903 0.530981 0.180319 0.506901 0.137744ZM0.342668 0.42763L0.316117 0.381299C0.296977 0.344985 0.280925 0.32307 0.267959 0.313052C0.259315 0.305539 0.245732 0.30241 0.229679 0.30241H0.201896V0.42763H0.154972V0.131483H0.254993C0.289569 0.131483 0.314266 0.133987 0.327849 0.140248C0.346372 0.145883 0.356868 0.155275 0.366129 0.168423C0.374156 0.180945 0.379095 0.196598 0.379095 0.210998C0.379095 0.232286 0.371686 0.252321 0.357485 0.2686C0.340815 0.283 0.321059 0.293017 0.295744 0.295522C0.307475 0.2974 0.31365 0.303662 0.321059 0.309297C0.332172 0.322445 0.346371 0.341854 0.363041 0.368776L0.39947 0.42763H0.342668Z" transform="translate(26.8862 12.9414)" fill="#083482"/>
<path d="M0.506901 0.137744C0.482822 0.0939165 0.448863 0.0594803 0.405644 0.0363144C0.363042 0.0118963 0.317352 0 0.272898 0C0.227209 0 0.181521 0.0118963 0.138919 0.0363144C0.0956992 0.0594803 0.0617402 0.0932904 0.0376608 0.137744C0.012964 0.182197 0 0.227903 0 0.275486C0 0.322444 0.0135821 0.369402 0.0364266 0.412603C0.060506 0.455805 0.094465 0.49024 0.137684 0.514659C0.180904 0.538451 0.225974 0.551599 0.272898 0.551599C0.319822 0.551599 0.364895 0.538451 0.407497 0.514659C0.450099 0.49024 0.484057 0.455805 0.506901 0.412603C0.530981 0.367524 0.543945 0.322444 0.543945 0.275486C0.543945 0.227903 0.530981 0.180319 0.506901 0.137744ZM0.342668 0.42763L0.316117 0.381299C0.296977 0.344985 0.280925 0.32307 0.267959 0.313052C0.259315 0.305539 0.245732 0.30241 0.229679 0.30241H0.201896V0.42763H0.154972V0.131483H0.254993C0.289569 0.131483 0.314266 0.133987 0.327849 0.140248C0.346372 0.145883 0.356868 0.155275 0.366129 0.168423C0.374156 0.180945 0.379095 0.196598 0.379095 0.210998C0.379095 0.232286 0.371686 0.252321 0.357485 0.2686C0.340815 0.283 0.321059 0.293017 0.295744 0.295522C0.307475 0.2974 0.31365 0.303662 0.321059 0.309297C0.332172 0.322445 0.346371 0.341854 0.363041 0.368776L0.39947 0.42763H0.342668Z" transform="translate(26.8862 12.9414)" fill="url(#paint1_linear)"/>
<path d="M19.6191 3.09099e-07C17.4569 0.000626414 15.4837 0.832094 13.9981 2.19763C12.5108 0.833972 10.5406 0.00250455 8.37963 0.00250455C8.36172 0.00250455 8.34381 0.00250455 8.32591 0.00250455C3.7249 0.0319315 0 3.82738 0 8.5C0 13.1908 3.75391 16.9975 8.38024 16.9975C10.5412 16.9975 12.512 16.166 13.9981 14.8024C13.6876 14.5175 13.4067 14.2019 13.1412 13.8732H14.8718C14.6094 14.1969 14.3248 14.5018 14.021 14.783H14.0191C14.0191 14.7836 14.0198 14.7836 14.0198 14.7836C14.0123 14.7892 14.0056 14.7949 13.9981 14.8024C15.4843 16.1685 17.4582 17.0006 19.6228 17C24.251 16.9987 28.0012 13.1933 28 8.5C28 8.49875 28 8.49687 28 8.49562C27.9988 3.80234 24.2461 -0.0012519 19.6191 3.09099e-07ZM13.2356 3.0748H14.828C15.0644 3.36281 15.2836 3.66647 15.4793 3.98516H12.6386C12.8201 3.68024 13.0214 3.36844 13.2356 3.0748ZM12.1416 4.87798H15.9615C16.0992 5.17225 16.2196 5.47591 16.3234 5.78771H11.6902C11.7353 5.70006 11.8977 5.34568 12.1416 4.87798ZM6.86695 10.7039C6.06245 10.9318 5.29932 11.0076 4.49482 10.7364C3.77676 10.4835 3.19268 9.82797 3.14514 9.11985C2.98214 7.98346 3.51806 6.82079 4.60966 6.28735C5.62408 5.82403 6.78236 5.90417 7.8542 6.18341C7.77455 6.53904 7.73319 6.74002 7.62452 7.17203C6.95462 6.8834 6.05504 6.73251 5.366 7.16953C4.71462 7.58964 4.49482 8.24518 4.54236 8.97083C4.59052 9.32145 4.8486 9.66268 5.2135 9.80981C5.84388 10.0459 6.4471 9.96133 7.11762 9.61384C7.02192 10.0515 6.94968 10.394 6.86695 10.7039ZM8.98531 10.8949H7.62082L8.43211 7.03053H9.7966L8.98531 10.8949ZM11.2796 10.8917H9.85896L9.92441 10.6325C10.1738 9.43603 10.4931 8.22827 10.6727 7.03241H11.9211C11.9508 7.23276 11.8606 7.42498 11.8415 7.62596C12.1107 7.37739 12.3953 6.87651 13.3999 7.01112L12.9658 8.09241L12.7405 8.04733C12.3731 7.99286 12.0385 8.27335 11.8711 8.56449C11.5513 9.29202 11.4482 10.1066 11.2796 10.8917ZM15.4892 12.9973H12.5163C12.3361 12.703 12.1663 12.4031 12.0212 12.0876H15.977C15.8325 12.4019 15.6695 12.7055 15.4892 12.9973ZM15.8455 8.04733C15.4775 7.99348 15.1428 8.27335 14.9755 8.56449C14.6551 9.29202 14.5526 10.1078 14.384 10.893H12.9627L13.0282 10.6325C13.2776 9.43665 13.5968 8.22952 13.7771 7.03366H15.0255C15.0558 7.23402 14.9638 7.4256 14.9459 7.62658C15.2138 7.37802 15.4991 6.87714 16.5036 7.01175L16.0696 8.09303L15.8455 8.04733ZM20.3903 10.8949H19.1036L19.2123 10.2656H19.1974C18.7961 10.6951 18.3818 10.9831 17.649 10.9831C16.8401 10.9831 16.4011 10.4071 16.4011 9.65391C16.4011 9.39596 16.4228 9.24632 16.5086 8.84123L16.879 7.04744H18.2392L17.8539 8.84749C17.8163 9.0397 17.7619 9.23317 17.7619 9.43102C17.7619 9.6608 17.9879 9.88933 18.3732 9.87493C18.9585 9.87493 19.3055 9.38657 19.4055 8.81806L19.7988 7.04619H21.1843L20.5601 9.88933C20.4909 10.2212 20.4292 10.5455 20.3903 10.8949ZM24.6851 7.94652C24.3319 7.90958 23.9584 7.88704 23.6855 7.88704C23.236 7.88704 23.0045 7.99661 23.0045 8.20824C23.0045 8.39168 23.073 8.43614 23.6552 8.63461C24.3523 8.87379 24.6357 9.19059 24.6357 9.72842C24.6357 10.6263 23.9571 11.0407 22.4901 11.0407C22.3099 11.0407 22.0536 11.0288 21.7227 11.0069C21.5628 10.995 21.4424 10.985 21.3596 10.9725L21.1047 10.9324L21.0429 10.9237L21.2337 10.0171C21.6801 10.126 22.066 10.173 22.4809 10.173C23.0322 10.173 23.2792 10.064 23.2792 9.8192C23.2792 9.64076 23.1922 9.58191 22.6291 9.38594C21.8931 9.12924 21.5702 8.78738 21.5702 8.29088C21.5646 7.56585 22.103 6.96229 23.6589 6.96166C23.9763 6.96166 24.5221 6.9961 24.8826 7.03867L24.6851 7.94652ZM25.476 11.1722C25.4519 11.216 25.4186 11.2505 25.3753 11.2749C25.3315 11.2981 25.2877 11.3112 25.2408 11.3112C25.1938 11.3112 25.1469 11.2981 25.1049 11.2749C25.0629 11.2505 25.0296 11.216 25.0049 11.1722C24.9814 11.1278 24.9685 11.0827 24.9685 11.0357C24.9685 10.9888 24.9814 10.9406 25.0061 10.898C25.0302 10.8542 25.0642 10.8197 25.1074 10.7959C25.1506 10.7728 25.1969 10.7596 25.2408 10.7596C25.2864 10.7596 25.3321 10.7728 25.3741 10.7959C25.4173 10.8197 25.4513 10.8535 25.4754 10.898C25.5001 10.9424 25.513 10.9888 25.513 11.0357C25.513 11.0827 25.5007 11.1284 25.476 11.1722Z" fill="#083482"/>
<path d="M19.6191 3.09099e-07C17.4569 0.000626414 15.4837 0.832094 13.9981 2.19763C12.5108 0.833972 10.5406 0.00250455 8.37963 0.00250455C8.36172 0.00250455 8.34381 0.00250455 8.32591 0.00250455C3.7249 0.0319315 0 3.82738 0 8.5C0 13.1908 3.75391 16.9975 8.38024 16.9975C10.5412 16.9975 12.512 16.166 13.9981 14.8024C13.6876 14.5175 13.4067 14.2019 13.1412 13.8732H14.8718C14.6094 14.1969 14.3248 14.5018 14.021 14.783H14.0191C14.0191 14.7836 14.0198 14.7836 14.0198 14.7836C14.0123 14.7892 14.0056 14.7949 13.9981 14.8024C15.4843 16.1685 17.4582 17.0006 19.6228 17C24.251 16.9987 28.0012 13.1933 28 8.5C28 8.49875 28 8.49687 28 8.49562C27.9988 3.80234 24.2461 -0.0012519 19.6191 3.09099e-07ZM13.2356 3.0748H14.828C15.0644 3.36281 15.2836 3.66647 15.4793 3.98516H12.6386C12.8201 3.68024 13.0214 3.36844 13.2356 3.0748ZM12.1416 4.87798H15.9615C16.0992 5.17225 16.2196 5.47591 16.3234 5.78771H11.6902C11.7353 5.70006 11.8977 5.34568 12.1416 4.87798ZM6.86695 10.7039C6.06245 10.9318 5.29932 11.0076 4.49482 10.7364C3.77676 10.4835 3.19268 9.82797 3.14514 9.11985C2.98214 7.98346 3.51806 6.82079 4.60966 6.28735C5.62408 5.82403 6.78236 5.90417 7.8542 6.18341C7.77455 6.53904 7.73319 6.74002 7.62452 7.17203C6.95462 6.8834 6.05504 6.73251 5.366 7.16953C4.71462 7.58964 4.49482 8.24518 4.54236 8.97083C4.59052 9.32145 4.8486 9.66268 5.2135 9.80981C5.84388 10.0459 6.4471 9.96133 7.11762 9.61384C7.02192 10.0515 6.94968 10.394 6.86695 10.7039ZM8.98531 10.8949H7.62082L8.43211 7.03053H9.7966L8.98531 10.8949ZM11.2796 10.8917H9.85896L9.92441 10.6325C10.1738 9.43603 10.4931 8.22827 10.6727 7.03241H11.9211C11.9508 7.23276 11.8606 7.42498 11.8415 7.62596C12.1107 7.37739 12.3953 6.87651 13.3999 7.01112L12.9658 8.09241L12.7405 8.04733C12.3731 7.99286 12.0385 8.27335 11.8711 8.56449C11.5513 9.29202 11.4482 10.1066 11.2796 10.8917ZM15.4892 12.9973H12.5163C12.3361 12.703 12.1663 12.4031 12.0212 12.0876H15.977C15.8325 12.4019 15.6695 12.7055 15.4892 12.9973ZM15.8455 8.04733C15.4775 7.99348 15.1428 8.27335 14.9755 8.56449C14.6551 9.29202 14.5526 10.1078 14.384 10.893H12.9627L13.0282 10.6325C13.2776 9.43665 13.5968 8.22952 13.7771 7.03366H15.0255C15.0558 7.23402 14.9638 7.4256 14.9459 7.62658C15.2138 7.37802 15.4991 6.87714 16.5036 7.01175L16.0696 8.09303L15.8455 8.04733ZM20.3903 10.8949H19.1036L19.2123 10.2656H19.1974C18.7961 10.6951 18.3818 10.9831 17.649 10.9831C16.8401 10.9831 16.4011 10.4071 16.4011 9.65391C16.4011 9.39596 16.4228 9.24632 16.5086 8.84123L16.879 7.04744H18.2392L17.8539 8.84749C17.8163 9.0397 17.7619 9.23317 17.7619 9.43102C17.7619 9.6608 17.9879 9.88933 18.3732 9.87493C18.9585 9.87493 19.3055 9.38657 19.4055 8.81806L19.7988 7.04619H21.1843L20.5601 9.88933C20.4909 10.2212 20.4292 10.5455 20.3903 10.8949ZM24.6851 7.94652C24.3319 7.90958 23.9584 7.88704 23.6855 7.88704C23.236 7.88704 23.0045 7.99661 23.0045 8.20824C23.0045 8.39168 23.073 8.43614 23.6552 8.63461C24.3523 8.87379 24.6357 9.19059 24.6357 9.72842C24.6357 10.6263 23.9571 11.0407 22.4901 11.0407C22.3099 11.0407 22.0536 11.0288 21.7227 11.0069C21.5628 10.995 21.4424 10.985 21.3596 10.9725L21.1047 10.9324L21.0429 10.9237L21.2337 10.0171C21.6801 10.126 22.066 10.173 22.4809 10.173C23.0322 10.173 23.2792 10.064 23.2792 9.8192C23.2792 9.64076 23.1922 9.58191 22.6291 9.38594C21.8931 9.12924 21.5702 8.78738 21.5702 8.29088C21.5646 7.56585 22.103 6.96229 23.6589 6.96166C23.9763 6.96166 24.5221 6.9961 24.8826 7.03867L24.6851 7.94652ZM25.476 11.1722C25.4519 11.216 25.4186 11.2505 25.3753 11.2749C25.3315 11.2981 25.2877 11.3112 25.2408 11.3112C25.1938 11.3112 25.1469 11.2981 25.1049 11.2749C25.0629 11.2505 25.0296 11.216 25.0049 11.1722C24.9814 11.1278 24.9685 11.0827 24.9685 11.0357C24.9685 10.9888 24.9814 10.9406 25.0061 10.898C25.0302 10.8542 25.0642 10.8197 25.1074 10.7959C25.1506 10.7728 25.1969 10.7596 25.2408 10.7596C25.2864 10.7596 25.3321 10.7728 25.3741 10.7959C25.4173 10.8197 25.4513 10.8535 25.4754 10.898C25.5001 10.9424 25.513 10.9888 25.513 11.0357C25.513 11.0827 25.5007 11.1284 25.476 11.1722Z" fill="url(#paint2_linear)"/>
<path d="M0.424168 0.115203C0.405028 0.0782631 0.376008 0.0500889 0.339581 0.0294275C0.302535 0.0100182 0.267343 0 0.227828 0C0.188313 0 0.15312 0.0100182 0.116075 0.0294275C0.079647 0.0500889 0.0506276 0.0770109 0.0314876 0.115203C0.0111128 0.152143 0 0.190336 0 0.229781C0 0.270478 0.0111134 0.307418 0.0302535 0.344358C0.0500109 0.381925 0.0777938 0.410099 0.113604 0.430134C0.151267 0.449543 0.187078 0.460813 0.227828 0.460813C0.268577 0.460813 0.304387 0.449543 0.340815 0.430134C0.37786 0.409473 0.405644 0.381925 0.425402 0.344358C0.444542 0.307418 0.455038 0.269852 0.455038 0.229781C0.455038 0.18971 0.444543 0.152143 0.424168 0.115203ZM0.29883 0.381297L0.273518 0.335592C0.253143 0.299904 0.237089 0.277365 0.224123 0.266095C0.215479 0.259834 0.201278 0.256077 0.18646 0.256077H0.158677V0.381924H0.110519V0.381297V0.085777H0.211774C0.245732 0.085777 0.269812 0.0882806 0.28463 0.0939155C0.3013 0.100803 0.313031 0.109569 0.32291 0.122717C0.330936 0.135865 0.335876 0.150891 0.335876 0.165292C0.335876 0.187205 0.328467 0.20724 0.313649 0.222267C0.297596 0.237293 0.277839 0.247312 0.252525 0.24919C0.263021 0.251695 0.271046 0.25733 0.27722 0.264217C0.288951 0.276739 0.303152 0.296148 0.320439 0.323696L0.356251 0.381297H0.29883Z" transform="translate(25.0127 10.8057)" fill="#083482"/>
<path d="M0.424168 0.115203C0.405028 0.0782631 0.376008 0.0500889 0.339581 0.0294275C0.302535 0.0100182 0.267343 0 0.227828 0C0.188313 0 0.15312 0.0100182 0.116075 0.0294275C0.079647 0.0500889 0.0506276 0.0770109 0.0314876 0.115203C0.0111128 0.152143 0 0.190336 0 0.229781C0 0.270478 0.0111134 0.307418 0.0302535 0.344358C0.0500109 0.381925 0.0777938 0.410099 0.113604 0.430134C0.151267 0.449543 0.187078 0.460813 0.227828 0.460813C0.268577 0.460813 0.304387 0.449543 0.340815 0.430134C0.37786 0.409473 0.405644 0.381925 0.425402 0.344358C0.444542 0.307418 0.455038 0.269852 0.455038 0.229781C0.455038 0.18971 0.444543 0.152143 0.424168 0.115203ZM0.29883 0.381297L0.273518 0.335592C0.253143 0.299904 0.237089 0.277365 0.224123 0.266095C0.215479 0.259834 0.201278 0.256077 0.18646 0.256077H0.158677V0.381924H0.110519V0.381297V0.085777H0.211774C0.245732 0.085777 0.269812 0.0882806 0.28463 0.0939155C0.3013 0.100803 0.313031 0.109569 0.32291 0.122717C0.330936 0.135865 0.335876 0.150891 0.335876 0.165292C0.335876 0.187205 0.328467 0.20724 0.313649 0.222267C0.297596 0.237293 0.277839 0.247312 0.252525 0.24919C0.263021 0.251695 0.271046 0.25733 0.27722 0.264217C0.288951 0.276739 0.303152 0.296148 0.320439 0.323696L0.356251 0.381297H0.29883Z" transform="translate(25.0127 10.8057)" fill="url(#paint3_linear)"/>
<path d="M0.120397 0.0206609C0.114223 0.0150259 0.109902 0.00939206 0.100641 0.00563543C0.0926143 0.0018788 0.0765609 0 0.0543337 0H0V0.0901585H0.0580386C0.0858225 0.0901585 0.10311 0.0851498 0.113606 0.0770104C0.12472 0.0682449 0.129659 0.0576015 0.127806 0.0438272C0.127806 0.0344356 0.125336 0.027548 0.120397 0.0206609Z" transform="translate(25.1689 10.9316)" fill="#083482"/>
<path d="M0.120397 0.0206609C0.114223 0.0150259 0.109902 0.00939206 0.100641 0.00563543C0.0926143 0.0018788 0.0765609 0 0.0543337 0H0V0.0901585H0.0580386C0.0858225 0.0901585 0.10311 0.0851498 0.113606 0.0770104C0.12472 0.0682449 0.129659 0.0576015 0.127806 0.0438272C0.127806 0.0344356 0.125336 0.027548 0.120397 0.0206609Z" transform="translate(25.1689 10.9316)" fill="url(#paint4_linear)"/>
<defs>
<linearGradient id="paint0_linear" x2="1" gradientUnits="userSpaceOnUse" gradientTransform="matrix(0.124868 -0.0340549 0.0482747 0.241241 -0.0191006 -0.0626782)">
<stop stop-color="#4998A7"/>
<stop offset="1" stop-color="#093783" stop-opacity="0.85"/>
</linearGradient>
<linearGradient id="paint1_linear" x2="1" gradientUnits="userSpaceOnUse" gradientTransform="matrix(0.531441 -0.208348 0.205458 1.47592 -0.0812925 -0.383466)">
<stop stop-color="#4998A7"/>
<stop offset="1" stop-color="#093783" stop-opacity="0.85"/>
</linearGradient>
<linearGradient id="paint2_linear" x2="1" gradientUnits="userSpaceOnUse" gradientTransform="matrix(27.3563 -6.42119 10.5761 45.487 -4.1846 -11.8182)">
<stop stop-color="#4998A7"/>
<stop offset="1" stop-color="#093783" stop-opacity="0.85"/>
</linearGradient>
<linearGradient id="paint3_linear" x2="1" gradientUnits="userSpaceOnUse" gradientTransform="matrix(0.444578 -0.174057 0.171876 1.233 -0.0680054 -0.320353)">
<stop stop-color="#4998A7"/>
<stop offset="1" stop-color="#093783" stop-opacity="0.85"/>
</linearGradient>
<linearGradient id="paint4_linear" x2="1" gradientUnits="userSpaceOnUse" gradientTransform="matrix(0.12524 -0.0340544 0.0484184 0.241238 -0.0191575 -0.0626774)">
<stop stop-color="#4998A7"/>
<stop offset="1" stop-color="#093783" stop-opacity="0.85"/>
</linearGradient>
</defs>
</svg>
