<svg width="48" height="48" viewBox="0 0 48 48" fill="none" xmlns="http://www.w3.org/2000/svg">
<path d="M0.05 12C0.05 5.41082 5.41082 0.05 12 0.05C18.5892 0.05 23.95 5.41082 23.95 12C23.95 18.5892 18.5892 23.95 12 23.95C5.41082 23.95 0.05 18.5892 0.05 12ZM2.50315 12C2.50315 17.2367 6.76358 21.4966 12 21.4966C17.2364 21.4966 21.4968 17.2367 21.4968 12C21.4968 6.76333 17.2364 2.5034 12 2.5034C6.76358 2.5034 2.50315 6.76333 2.50315 12Z" transform="scale(2)" fill="#3C963E" stroke="white" stroke-width="0.1"/>
<path d="M1.92612 7.47221V7.52221H1.97612H7.36896C7.887 7.52221 8.30702 7.94223 8.30702 8.46027C8.30702 8.97831 7.887 9.39833 7.36896 9.39833H0.988061C0.470018 9.39833 0.05 8.97831 0.05 8.46027V0.988061C0.05 0.470018 0.470018 0.05 0.988061 0.05C1.5061 0.05 1.92612 0.470018 1.92612 0.988061V7.47221Z" transform="translate(21.7695 8.31445) scale(2)" fill="#3C963E" stroke="white" stroke-width="0.1"/>
</svg>
