<svg width="39" height="39" viewBox="0 0 39 39" fill="none" xmlns="http://www.w3.org/2000/svg">
<path d="M37.1129 21.3871V13.2097C37.1129 12.1693 36.2662 11.3226 35.2258 11.3226H33.9677C33.4828 11.3226 33.0443 11.5119 32.7097 11.8132C32.375 11.5113 31.9366 11.3226 31.4516 11.3226H30.1935C29.7086 11.3226 29.2701 11.5119 28.9355 11.8132C28.6008 11.5113 28.1624 11.3226 27.6774 11.3226H26.4194C25.3789 11.3226 24.5323 12.1693 24.5323 13.2097V21.2814C23.0811 20.2756 20.9631 19.4195 17.862 19.0572L18.8527 12.1215C18.8647 12.0378 18.871 11.9529 18.871 11.868C18.871 10.8735 18.062 10.0645 17.0675 10.0645H11.3226V4.40323C11.3226 4.05663 11.605 3.77419 11.9516 3.77419H16.9839C18.0243 3.77419 18.871 2.92752 18.871 1.8871C18.871 0.846677 18.0243 0 16.9839 0H11.3226C9.24111 0 7.54839 1.69273 7.54839 3.77419V10.0645H1.80344C0.808936 10.0645 0 10.8735 0 11.868C0 11.9529 0.00629032 12.0378 0.0182419 12.1233L1.53421 22.7339C0.0389999 24.5146 0 26.2709 0 26.4194C0 27.5164 0.709548 28.4411 1.69021 28.7851C1.41784 29.1871 1.25806 29.6721 1.25806 30.1935C1.25806 30.8641 1.5254 31.4699 1.9544 31.9215C0.790694 32.565 0 33.8042 0 35.2258C0 37.3073 1.69273 39 3.77419 39H22.6452H23.9032H39V25.7903V25.1613V23.2742C39 22.2338 38.1533 21.3871 37.1129 21.3871ZM33.3387 13.2097C33.3387 12.8631 33.6211 12.5806 33.9677 12.5806H35.2258C35.5724 12.5806 35.8548 12.8631 35.8548 13.2097V21.3871H33.3387V13.2097ZM29.5645 13.2097C29.5645 12.8631 29.847 12.5806 30.1935 12.5806H31.4516C31.7982 12.5806 32.0806 12.8631 32.0806 13.2097V21.3871H29.5645V13.2097ZM25.7903 13.2097C25.7903 12.8631 26.0728 12.5806 26.4194 12.5806H27.6774C28.024 12.5806 28.3065 12.8631 28.3065 13.2097V21.3871H25.7903V13.2097ZM15.7258 1.25806H16.9839C17.3305 1.25806 17.6129 1.5405 17.6129 1.8871C17.6129 2.23369 17.3305 2.51613 16.9839 2.51613H15.7258V1.25806ZM13.2097 1.25806H14.4677V2.51613H13.2097V1.25806ZM8.80645 3.77419C8.80645 2.38655 9.93494 1.25806 11.3226 1.25806H11.9516V2.51613C10.9112 2.51613 10.0645 3.36281 10.0645 4.40323V10.0645H8.80645V3.77419ZM1.35431 12.5806L1.26373 11.9472C1.25995 11.9208 1.25806 11.8944 1.25806 11.868C1.25806 11.5673 1.50276 11.3226 1.80344 11.3226H7.54839H11.3226H17.0675C17.3682 11.3226 17.6129 11.5673 17.6129 11.868C17.6129 11.8944 17.611 11.9208 17.6079 11.9453L17.5167 12.5806H15.7258V13.8387H17.3368L16.9776 16.3548H1.89339L1.53421 13.8387H14.4677V12.5806H1.35431ZM16.7983 17.6129L16.6083 18.9439C15.9346 18.8974 15.2251 18.871 14.4677 18.871H13.2097C7.72829 18.871 4.52652 20.1473 2.65011 21.6507L2.07329 17.6129H16.7983ZM1.25806 26.4194C1.25806 26.3565 1.39456 20.129 13.2097 20.129H14.4677C26.2011 20.129 26.4162 26.1665 26.4194 26.4194C26.4194 27.1132 25.8551 27.6774 25.1613 27.6774H24.5323H23.9032H3.77419H2.51613C1.82231 27.6774 1.25806 27.1132 1.25806 26.4194ZM3.77419 31.4516C3.08037 31.4516 2.51613 30.8874 2.51613 30.1935C2.51613 29.4997 3.08037 28.9355 3.77419 28.9355H23.9032C24.597 28.9355 25.1613 29.4997 25.1613 30.1935C25.1613 30.8874 24.597 31.4516 23.9032 31.4516H3.77419ZM21.2776 32.7097L18.6967 35.7209L11.8132 32.7097H21.2776ZM23.9032 37.7419H22.6452H3.77419C2.38655 37.7419 1.25806 36.6135 1.25806 35.2258C1.25806 33.8382 2.38655 32.7097 3.77419 32.7097H8.67498L19.0452 37.2469L22.9345 32.7097H23.9032C25.2909 32.7097 26.4194 33.8382 26.4194 35.2258C26.4194 36.6135 25.2909 37.7419 23.9032 37.7419ZM25.7236 31.9215C26.152 31.4699 26.4194 30.8641 26.4194 30.1935C26.4194 29.7331 26.286 29.3072 26.0696 28.9355H35.2258V35.2258H27.6774C27.6774 34.7842 27.5969 34.3621 27.4573 33.9677H31.4516V32.7097H26.7087C26.4269 32.3958 26.0954 32.1272 25.7236 31.9215ZM37.7419 25.1613H36.4839V26.4194H37.7419V37.7419H26.7087C27.0352 37.3784 27.2912 36.9531 27.4573 36.4839H36.4839V27.6774H27.3277C27.5441 27.3057 27.6774 26.8798 27.6774 26.4194H35.2258V25.1613H27.4642C27.2597 24.4618 26.8559 23.5541 26.0684 22.6452H37.1129C37.4595 22.6452 37.7419 22.927 37.7419 23.2742V25.1613Z" fill="white"/>
<path d="M1.25806 0H0V1.25806H1.25806V0Z" transform="translate(32.7095 32.7095)" fill="white"/>
<path d="M1.25806 0H0V1.25806H1.25806V0Z" transform="translate(8.17725 21.3872)" fill="white"/>
<path d="M1.25806 0H0V1.25806H1.25806V0Z" transform="translate(10.6934 22.645)" fill="white"/>
<path d="M1.25806 0H0V1.25806H1.25806V0Z" transform="translate(13.2095 21.3872)" fill="white"/>
<path d="M1.25806 0H0V1.25806H1.25806V0Z" transform="translate(16.9844 23.2744)" fill="white"/>
<path d="M1.25806 0H0V1.25806H1.25806V0Z" transform="translate(20.1289 21.3872)" fill="white"/>
<path d="M1.25806 0H0V1.25806H1.25806V0Z" transform="translate(4.40332 23.9033)" fill="white"/>
</svg>
