<svg width="56" height="34" viewBox="0 0 56 34" fill="none" xmlns="http://www.w3.org/2000/svg">
<path d="M19.6193 2.70971e-07C17.4563 0.000586538 15.4848 0.831914 13.9988 2.19733C12.5118 0.833673 10.5413 0.00175923 8.38069 0.00175923C8.36276 0.00175923 8.34426 0.00175923 8.32692 0.00175923C3.72578 0.0322451 0 3.82774 0 8.49971C0 13.1904 3.75469 16.9971 8.38011 16.9971C10.5408 16.9971 12.5112 16.1663 13.9977 14.8015C13.6872 14.5172 13.4062 14.2023 13.1408 13.8728H14.8713C14.6106 14.1971 14.3261 14.5007 14.0202 14.7833H14.0191C14.0121 14.7909 14.0046 14.7956 13.9977 14.8021C15.4853 16.1681 17.4581 17.0006 19.6222 17C24.2505 16.9982 28.0012 13.1922 28 8.49971C28 8.49795 28 8.49677 28 8.4956C28.0006 3.80312 24.2476 -0.00117226 19.6193 2.70971e-07ZM13.2368 3.07497H14.8297C15.0644 3.36342 15.2824 3.6671 15.4801 3.98486H12.6384C12.8217 3.68117 13.0229 3.36869 13.2368 3.07497ZM12.1435 4.87716H15.9635C16.0994 5.17147 16.2196 5.47574 16.3249 5.78763H11.6908C11.737 5.69969 11.8989 5.34559 12.1435 4.87716ZM3.42108 10.6642L3.9293 7.41511L2.78277 10.6642H2.16817L2.08838 7.41511L1.54547 10.6642H0.684563L1.39803 6.35514H2.70009L2.74577 8.99921L3.62518 6.35514H5.03766L4.33402 10.6642H3.42108ZM6.46519 10.6572L6.49467 10.313C6.4808 10.3148 6.20905 10.7287 5.57942 10.7287C5.24986 10.7287 4.71793 10.5464 4.71793 9.75373C4.71793 8.74594 5.52854 8.41177 6.3004 8.41177C6.42182 8.41177 6.68374 8.43404 6.68374 8.43404C6.68374 8.43404 6.71322 8.37249 6.71322 8.20599C6.71322 7.9322 6.47039 7.89468 6.13794 7.89468C5.55224 7.89468 5.16544 8.05356 5.16544 8.05356L5.29495 7.27382C5.29495 7.27382 5.76443 7.07449 6.37557 7.07449C6.69183 7.07449 7.6013 7.10849 7.6013 8.16553L7.25093 10.6572H6.46519ZM9.78566 9.55968C9.78566 10.7621 8.63682 10.7105 8.43619 10.7105C7.68745 10.7105 7.45618 10.6056 7.43479 10.5997L7.55389 9.80825C7.55505 9.80122 7.92971 9.94603 8.34658 9.94603C8.5871 9.94603 8.89931 9.92199 8.89931 9.63062C8.89931 9.19443 7.78227 9.29879 7.78227 8.26285C7.78227 7.34886 8.4518 7.08152 9.11208 7.08152C9.62204 7.08152 9.93541 7.15246 9.93541 7.15246L9.82266 7.95096C9.82266 7.95096 9.33873 7.91051 9.21326 7.91051C8.89584 7.91051 8.72297 7.98086 8.72297 8.20599C8.72239 8.65858 9.78566 8.43698 9.78566 9.55968ZM11.1652 9.87509C11.2444 9.87509 11.334 9.84754 11.3953 9.84754L11.2837 10.6161C11.1941 10.6413 10.9403 10.7328 10.6148 10.7351C10.1991 10.7387 9.90361 10.503 9.90361 9.96831C9.90361 9.60951 10.4107 6.65296 10.4303 6.63362H11.3225L11.2317 7.16243H11.6769L11.563 8.01428H11.0906L10.8397 9.58371C10.8206 9.70859 10.8547 9.87509 11.1652 9.87509ZM13.1275 7.06276C14.107 7.06276 14.4001 7.78974 14.4001 8.38597C14.4001 8.62458 14.2821 9.21085 14.2821 9.21085H12.469C12.469 9.21085 12.3013 9.93489 13.2594 9.93489C13.7086 9.93489 14.207 9.71211 14.207 9.71211L14.0497 10.5839C14.0497 10.5839 13.7618 10.7328 13.1073 10.7328C12.3979 10.7328 11.5659 10.4285 11.5659 9.15046C11.5664 8.043 12.2302 7.06276 13.1275 7.06276ZM15.4905 12.9976H12.5176C12.3366 12.7044 12.1678 12.4037 12.0226 12.0877H15.9791C15.8334 12.4019 15.6704 12.7056 15.4905 12.9976ZM15.2911 10.6707H14.3752L14.932 7.1636H15.7629L15.6831 7.6719C15.6831 7.6719 15.9791 7.11905 16.3786 7.11905C16.4948 7.11905 16.5509 7.13077 16.5509 7.13077C16.4324 7.37583 16.3277 7.60037 16.219 8.18019C15.5992 7.95741 15.5518 9.17274 15.2911 10.6707ZM18.7804 10.6161C18.7804 10.6161 18.3005 10.7404 17.9998 10.7404C16.9348 10.7404 16.3942 9.99527 16.3942 8.86671C16.3942 7.16477 17.3962 6.25841 18.426 6.25841C18.8914 6.25841 19.4308 6.48001 19.4308 6.48001L19.2851 7.43856C19.2851 7.43856 18.9203 7.18002 18.4664 7.18002C17.8593 7.18002 17.3147 7.76746 17.3147 8.83505C17.3147 9.36093 17.5685 9.85105 18.2022 9.85105C18.5034 9.85105 18.94 9.62886 18.94 9.62886L18.7804 10.6161ZM20.9283 10.6589L20.9584 10.3124C20.9439 10.3142 20.6722 10.7281 20.0431 10.7281C19.7136 10.7281 19.1816 10.5458 19.1816 9.75315C19.1816 8.74535 19.9922 8.41118 20.7635 8.41118C20.8849 8.41118 21.1474 8.43346 21.1474 8.43346C21.1474 8.43346 21.1775 8.37249 21.1775 8.20599C21.1775 7.9322 20.9347 7.89468 20.6016 7.89468C20.0159 7.89468 19.6297 8.05356 19.6297 8.05356L19.7592 7.27382C19.7592 7.27382 20.2287 7.07449 20.8404 7.07449C21.1561 7.07449 22.0662 7.10849 22.0656 8.16553L21.7152 10.6572C21.7146 10.6589 20.9283 10.6589 20.9283 10.6589ZM22.7825 10.6707H21.8667L22.4235 7.1636H23.2549L23.1751 7.6719C23.1751 7.6719 23.4717 7.11905 23.8712 7.11905C23.9874 7.11905 24.0429 7.13077 24.0429 7.13077C23.925 7.37583 23.8192 7.60037 23.7111 8.18019C23.0907 7.95741 23.0433 9.17274 22.7825 10.6707ZM25.5167 10.6613L25.5555 10.3382C25.5555 10.3382 25.2594 10.717 24.724 10.717C23.9822 10.717 23.6186 9.99058 23.6186 9.24837C23.6186 8.10046 24.2997 7.0997 25.1172 7.0997C25.6433 7.10087 25.9793 7.57164 25.9793 7.57164L26.1724 6.361L27.0668 6.35924L26.3846 10.6613H25.5167ZM27.2813 10.5399C27.2576 10.5833 27.2241 10.6167 27.1813 10.6425C27.1391 10.6666 27.094 10.6789 27.0466 10.6789C27.0003 10.6789 26.9558 10.6666 26.913 10.6425C26.8702 10.6167 26.8367 10.5833 26.813 10.5399C26.7887 10.4959 26.7772 10.4514 26.7772 10.4039C26.7772 10.3558 26.7893 10.3101 26.813 10.2667C26.8367 10.2233 26.872 10.1882 26.9142 10.1647C26.9581 10.1407 27.0015 10.1284 27.0466 10.1284C27.0928 10.1284 27.1368 10.1407 27.1796 10.1647C27.2235 10.1887 27.257 10.2222 27.2813 10.2667C27.3062 10.3107 27.3172 10.3564 27.3172 10.4039C27.3172 10.4514 27.3056 10.4965 27.2813 10.5399Z" transform="scale(2)" fill="#083482"/>
<path d="M19.6193 2.70971e-07C17.4563 0.000586538 15.4848 0.831914 13.9988 2.19733C12.5118 0.833673 10.5413 0.00175923 8.38069 0.00175923C8.36276 0.00175923 8.34426 0.00175923 8.32692 0.00175923C3.72578 0.0322451 0 3.82774 0 8.49971C0 13.1904 3.75469 16.9971 8.38011 16.9971C10.5408 16.9971 12.5112 16.1663 13.9977 14.8015C13.6872 14.5172 13.4062 14.2023 13.1408 13.8728H14.8713C14.6106 14.1971 14.3261 14.5007 14.0202 14.7833H14.0191C14.0121 14.7909 14.0046 14.7956 13.9977 14.8021C15.4853 16.1681 17.4581 17.0006 19.6222 17C24.2505 16.9982 28.0012 13.1922 28 8.49971C28 8.49795 28 8.49677 28 8.4956C28.0006 3.80312 24.2476 -0.00117226 19.6193 2.70971e-07ZM13.2368 3.07497H14.8297C15.0644 3.36342 15.2824 3.6671 15.4801 3.98486H12.6384C12.8217 3.68117 13.0229 3.36869 13.2368 3.07497ZM12.1435 4.87716H15.9635C16.0994 5.17147 16.2196 5.47574 16.3249 5.78763H11.6908C11.737 5.69969 11.8989 5.34559 12.1435 4.87716ZM3.42108 10.6642L3.9293 7.41511L2.78277 10.6642H2.16817L2.08838 7.41511L1.54547 10.6642H0.684563L1.39803 6.35514H2.70009L2.74577 8.99921L3.62518 6.35514H5.03766L4.33402 10.6642H3.42108ZM6.46519 10.6572L6.49467 10.313C6.4808 10.3148 6.20905 10.7287 5.57942 10.7287C5.24986 10.7287 4.71793 10.5464 4.71793 9.75373C4.71793 8.74594 5.52854 8.41177 6.3004 8.41177C6.42182 8.41177 6.68374 8.43404 6.68374 8.43404C6.68374 8.43404 6.71322 8.37249 6.71322 8.20599C6.71322 7.9322 6.47039 7.89468 6.13794 7.89468C5.55224 7.89468 5.16544 8.05356 5.16544 8.05356L5.29495 7.27382C5.29495 7.27382 5.76443 7.07449 6.37557 7.07449C6.69183 7.07449 7.6013 7.10849 7.6013 8.16553L7.25093 10.6572H6.46519ZM9.78566 9.55968C9.78566 10.7621 8.63682 10.7105 8.43619 10.7105C7.68745 10.7105 7.45618 10.6056 7.43479 10.5997L7.55389 9.80825C7.55505 9.80122 7.92971 9.94603 8.34658 9.94603C8.5871 9.94603 8.89931 9.92199 8.89931 9.63062C8.89931 9.19443 7.78227 9.29879 7.78227 8.26285C7.78227 7.34886 8.4518 7.08152 9.11208 7.08152C9.62204 7.08152 9.93541 7.15246 9.93541 7.15246L9.82266 7.95096C9.82266 7.95096 9.33873 7.91051 9.21326 7.91051C8.89584 7.91051 8.72297 7.98086 8.72297 8.20599C8.72239 8.65858 9.78566 8.43698 9.78566 9.55968ZM11.1652 9.87509C11.2444 9.87509 11.334 9.84754 11.3953 9.84754L11.2837 10.6161C11.1941 10.6413 10.9403 10.7328 10.6148 10.7351C10.1991 10.7387 9.90361 10.503 9.90361 9.96831C9.90361 9.60951 10.4107 6.65296 10.4303 6.63362H11.3225L11.2317 7.16243H11.6769L11.563 8.01428H11.0906L10.8397 9.58371C10.8206 9.70859 10.8547 9.87509 11.1652 9.87509ZM13.1275 7.06276C14.107 7.06276 14.4001 7.78974 14.4001 8.38597C14.4001 8.62458 14.2821 9.21085 14.2821 9.21085H12.469C12.469 9.21085 12.3013 9.93489 13.2594 9.93489C13.7086 9.93489 14.207 9.71211 14.207 9.71211L14.0497 10.5839C14.0497 10.5839 13.7618 10.7328 13.1073 10.7328C12.3979 10.7328 11.5659 10.4285 11.5659 9.15046C11.5664 8.043 12.2302 7.06276 13.1275 7.06276ZM15.4905 12.9976H12.5176C12.3366 12.7044 12.1678 12.4037 12.0226 12.0877H15.9791C15.8334 12.4019 15.6704 12.7056 15.4905 12.9976ZM15.2911 10.6707H14.3752L14.932 7.1636H15.7629L15.6831 7.6719C15.6831 7.6719 15.9791 7.11905 16.3786 7.11905C16.4948 7.11905 16.5509 7.13077 16.5509 7.13077C16.4324 7.37583 16.3277 7.60037 16.219 8.18019C15.5992 7.95741 15.5518 9.17274 15.2911 10.6707ZM18.7804 10.6161C18.7804 10.6161 18.3005 10.7404 17.9998 10.7404C16.9348 10.7404 16.3942 9.99527 16.3942 8.86671C16.3942 7.16477 17.3962 6.25841 18.426 6.25841C18.8914 6.25841 19.4308 6.48001 19.4308 6.48001L19.2851 7.43856C19.2851 7.43856 18.9203 7.18002 18.4664 7.18002C17.8593 7.18002 17.3147 7.76746 17.3147 8.83505C17.3147 9.36093 17.5685 9.85105 18.2022 9.85105C18.5034 9.85105 18.94 9.62886 18.94 9.62886L18.7804 10.6161ZM20.9283 10.6589L20.9584 10.3124C20.9439 10.3142 20.6722 10.7281 20.0431 10.7281C19.7136 10.7281 19.1816 10.5458 19.1816 9.75315C19.1816 8.74535 19.9922 8.41118 20.7635 8.41118C20.8849 8.41118 21.1474 8.43346 21.1474 8.43346C21.1474 8.43346 21.1775 8.37249 21.1775 8.20599C21.1775 7.9322 20.9347 7.89468 20.6016 7.89468C20.0159 7.89468 19.6297 8.05356 19.6297 8.05356L19.7592 7.27382C19.7592 7.27382 20.2287 7.07449 20.8404 7.07449C21.1561 7.07449 22.0662 7.10849 22.0656 8.16553L21.7152 10.6572C21.7146 10.6589 20.9283 10.6589 20.9283 10.6589ZM22.7825 10.6707H21.8667L22.4235 7.1636H23.2549L23.1751 7.6719C23.1751 7.6719 23.4717 7.11905 23.8712 7.11905C23.9874 7.11905 24.0429 7.13077 24.0429 7.13077C23.925 7.37583 23.8192 7.60037 23.7111 8.18019C23.0907 7.95741 23.0433 9.17274 22.7825 10.6707ZM25.5167 10.6613L25.5555 10.3382C25.5555 10.3382 25.2594 10.717 24.724 10.717C23.9822 10.717 23.6186 9.99058 23.6186 9.24837C23.6186 8.10046 24.2997 7.0997 25.1172 7.0997C25.6433 7.10087 25.9793 7.57164 25.9793 7.57164L26.1724 6.361L27.0668 6.35924L26.3846 10.6613H25.5167ZM27.2813 10.5399C27.2576 10.5833 27.2241 10.6167 27.1813 10.6425C27.1391 10.6666 27.094 10.6789 27.0466 10.6789C27.0003 10.6789 26.9558 10.6666 26.913 10.6425C26.8702 10.6167 26.8367 10.5833 26.813 10.5399C26.7887 10.4959 26.7772 10.4514 26.7772 10.4039C26.7772 10.3558 26.7893 10.3101 26.813 10.2667C26.8367 10.2233 26.872 10.1882 26.9142 10.1647C26.9581 10.1407 27.0015 10.1284 27.0466 10.1284C27.0928 10.1284 27.1368 10.1407 27.1796 10.1647C27.2235 10.1887 27.257 10.2222 27.2813 10.2667C27.3062 10.3107 27.3172 10.3564 27.3172 10.4039C27.3172 10.4514 27.3056 10.4965 27.2813 10.5399Z" transform="scale(2)" fill="url(#paint0_linear)"/>
<path d="M0.120839 0.0193474C0.115057 0.0152435 0.109854 0.00879335 0.100603 0.00527575C0.091352 0.00175814 0.0768965 0 0.0543475 0H0V0.087941H0.0578169C0.0849913 0.087941 0.102915 0.085596 0.113322 0.0756295C0.123151 0.0674217 0.127778 0.057455 0.127778 0.0433846C0.127778 0.0340043 0.125464 0.0275551 0.120839 0.0193474Z" transform="translate(54.1777 26.2275) scale(2)" fill="#083482"/>
<path d="M0.120839 0.0193474C0.115057 0.0152435 0.109854 0.00879335 0.100603 0.00527575C0.091352 0.00175814 0.0768965 0 0.0543475 0H0V0.087941H0.0578169C0.0849913 0.087941 0.102915 0.085596 0.113322 0.0756295C0.123151 0.0674217 0.127778 0.057455 0.127778 0.0433846C0.127778 0.0340043 0.125464 0.0275551 0.120839 0.0193474Z" transform="translate(54.1777 26.2275) scale(2)" fill="url(#paint1_linear)"/>
<path d="M0.505328 0.138359C0.480466 0.0926303 0.446355 0.0603857 0.402991 0.0363487C0.359628 0.0123118 0.315686 0 0.270589 0C0.224334 0 0.180393 0.0123118 0.137608 0.0363487C0.0948228 0.0603857 0.0595525 0.0938028 0.0358472 0.138359C0.0109855 0.181743 0 0.227471 0 0.274372C0 0.321274 0.0121419 0.36759 0.0358472 0.410388C0.0607088 0.453771 0.094243 0.488947 0.13645 0.512984C0.179235 0.537021 0.224334 0.549333 0.271744 0.549333C0.317999 0.549333 0.363096 0.537021 0.405303 0.512984C0.44751 0.488947 0.481623 0.453771 0.505328 0.410388C0.529611 0.36759 0.541175 0.32186 0.541175 0.274372C0.541175 0.226885 0.529033 0.181157 0.505328 0.138359ZM0.338814 0.426803L0.313372 0.380487C0.293136 0.344138 0.27637 0.320101 0.26365 0.310721C0.255555 0.304858 0.242836 0.30017 0.226647 0.30017H0.199472V0.426217H0.152061V0.130151H0.252664C0.287355 0.130151 0.312218 0.133082 0.326094 0.138945C0.341705 0.144808 0.355002 0.153015 0.363097 0.167672C0.372348 0.181156 0.376394 0.195814 0.376394 0.211057C0.376394 0.232749 0.368301 0.250923 0.353847 0.267925C0.338814 0.283168 0.317998 0.293133 0.293136 0.294892C0.303543 0.298409 0.31164 0.304272 0.318 0.310721C0.330141 0.322446 0.344016 0.341793 0.361361 0.368761L0.397208 0.426803H0.338814Z" transform="translate(53.7812 25.8838) scale(2)" fill="#083482"/>
<path d="M0.505328 0.138359C0.480466 0.0926303 0.446355 0.0603857 0.402991 0.0363487C0.359628 0.0123118 0.315686 0 0.270589 0C0.224334 0 0.180393 0.0123118 0.137608 0.0363487C0.0948228 0.0603857 0.0595525 0.0938028 0.0358472 0.138359C0.0109855 0.181743 0 0.227471 0 0.274372C0 0.321274 0.0121419 0.36759 0.0358472 0.410388C0.0607088 0.453771 0.094243 0.488947 0.13645 0.512984C0.179235 0.537021 0.224334 0.549333 0.271744 0.549333C0.317999 0.549333 0.363096 0.537021 0.405303 0.512984C0.44751 0.488947 0.481623 0.453771 0.505328 0.410388C0.529611 0.36759 0.541175 0.32186 0.541175 0.274372C0.541175 0.226885 0.529033 0.181157 0.505328 0.138359ZM0.338814 0.426803L0.313372 0.380487C0.293136 0.344138 0.27637 0.320101 0.26365 0.310721C0.255555 0.304858 0.242836 0.30017 0.226647 0.30017H0.199472V0.426217H0.152061V0.130151H0.252664C0.287355 0.130151 0.312218 0.133082 0.326094 0.138945C0.341705 0.144808 0.355002 0.153015 0.363097 0.167672C0.372348 0.181156 0.376394 0.195814 0.376394 0.211057C0.376394 0.232749 0.368301 0.250923 0.353847 0.267925C0.338814 0.283168 0.317998 0.293133 0.293136 0.294892C0.303543 0.298409 0.31164 0.304272 0.318 0.310721C0.330141 0.322446 0.344016 0.341793 0.361361 0.368761L0.397208 0.426803H0.338814Z" transform="translate(53.7812 25.8838) scale(2)" fill="url(#paint2_linear)"/>
<path d="M0.786322 0C0.132403 0 0 0.297824 0 0.545815C0 0.673621 0.0722723 0.887023 0.349219 0.887023C0.886347 0.887023 0.997935 0.172948 0.98059 0.0211052C0.95515 0.0158288 0.938961 0.000586268 0.786322 0Z" transform="translate(11.1719 18.1689) scale(2)" fill="#083482"/>
<path d="M0.786322 0C0.132403 0 0 0.297824 0 0.545815C0 0.673621 0.0722723 0.887023 0.349219 0.887023C0.886347 0.887023 0.997935 0.172948 0.98059 0.0211052C0.95515 0.0158288 0.938961 0.000586268 0.786322 0Z" transform="translate(11.1719 18.1689) scale(2)" fill="url(#paint3_linear)"/>
<path d="M0.579913 0C0.093665 0 0 0.561058 0 0.620271H0.990418C0.990418 0.575129 1.08351 0 0.579913 0Z" transform="translate(25.1016 15.7451) scale(2)" fill="#083482"/>
<path d="M0.579913 0C0.093665 0 0 0.561058 0 0.620271H0.990418C0.990418 0.575129 1.08351 0 0.579913 0Z" transform="translate(25.1016 15.7451) scale(2)" fill="url(#paint4_linear)"/>
<path d="M0.702487 0C0.309904 0 -0.000577372 0.461978 8.06194e-07 1.16374C8.06194e-07 1.59172 0.150328 1.86609 0.471795 1.86609C0.955152 1.86609 1.18816 1.22647 1.18816 0.749836C1.18816 0.223954 1.02338 0 0.702487 0Z" transform="translate(49.1387 15.9404) scale(2)" fill="#083482"/>
<path d="M0.702487 0C0.309904 0 -0.000577372 0.461978 8.06194e-07 1.16374C8.06194e-07 1.59172 0.150328 1.86609 0.471795 1.86609C0.955152 1.86609 1.18816 1.22647 1.18816 0.749836C1.18816 0.223954 1.02338 0 0.702487 0Z" transform="translate(49.1387 15.9404) scale(2)" fill="url(#paint5_linear)"/>
<path d="M0.420336 0.115495C0.4001 0.0791464 0.371769 0.0510053 0.335922 0.0304859C0.300075 0.00996657 0.263649 0 0.225489 0C0.188486 0 0.150905 0.0105528 0.115058 0.0304859C0.0792111 0.0492465 0.0508805 0.0785601 0.0306442 0.115495C0.010408 0.15243 0 0.19171 0 0.229817C0 0.269097 0.0104064 0.307791 0.0294863 0.343553C0.0508789 0.379902 0.0780532 0.407456 0.1139 0.429148C0.149747 0.449081 0.186751 0.460807 0.225489 0.460807C0.264227 0.460807 0.302387 0.449081 0.337078 0.429148C0.372925 0.408629 0.400677 0.380488 0.421492 0.343553C0.441728 0.307204 0.450978 0.269097 0.450978 0.229817C0.450978 0.191123 0.440572 0.15243 0.420336 0.115495ZM0.29487 0.380488L0.268853 0.334759C0.248617 0.297825 0.232428 0.274374 0.220286 0.26558C0.210457 0.257958 0.198892 0.25444 0.182125 0.25444H0.15553V0.379902H0.106964V0.0844231H0.208144C0.242257 0.0844231 0.267696 0.0873549 0.28215 0.0938038C0.296605 0.0990802 0.309324 0.109046 0.319153 0.121944C0.328982 0.134842 0.332453 0.149499 0.332453 0.165328C0.332453 0.18702 0.324358 0.205194 0.309325 0.221609C0.294292 0.238611 0.273478 0.245647 0.249195 0.248578C0.260758 0.253269 0.268274 0.258544 0.274056 0.263821C0.286197 0.276132 0.300075 0.293721 0.316842 0.321862L0.352689 0.380488H0.29487Z" transform="translate(53.6406 20.3496) scale(2)" fill="#083482"/>
<path d="M0.420336 0.115495C0.4001 0.0791464 0.371769 0.0510053 0.335922 0.0304859C0.300075 0.00996657 0.263649 0 0.225489 0C0.188486 0 0.150905 0.0105528 0.115058 0.0304859C0.0792111 0.0492465 0.0508805 0.0785601 0.0306442 0.115495C0.010408 0.15243 0 0.19171 0 0.229817C0 0.269097 0.0104064 0.307791 0.0294863 0.343553C0.0508789 0.379902 0.0780532 0.407456 0.1139 0.429148C0.149747 0.449081 0.186751 0.460807 0.225489 0.460807C0.264227 0.460807 0.302387 0.449081 0.337078 0.429148C0.372925 0.408629 0.400677 0.380488 0.421492 0.343553C0.441728 0.307204 0.450978 0.269097 0.450978 0.229817C0.450978 0.191123 0.440572 0.15243 0.420336 0.115495ZM0.29487 0.380488L0.268853 0.334759C0.248617 0.297825 0.232428 0.274374 0.220286 0.26558C0.210457 0.257958 0.198892 0.25444 0.182125 0.25444H0.15553V0.379902H0.106964V0.0844231H0.208144C0.242257 0.0844231 0.267696 0.0873549 0.28215 0.0938038C0.296605 0.0990802 0.309324 0.109046 0.319153 0.121944C0.328982 0.134842 0.332453 0.149499 0.332453 0.165328C0.332453 0.18702 0.324358 0.205194 0.309325 0.221609C0.294292 0.238611 0.273478 0.245647 0.249195 0.248578C0.260758 0.253269 0.268274 0.258544 0.274056 0.263821C0.286197 0.276132 0.300075 0.293721 0.316842 0.321862L0.352689 0.380488H0.29487Z" transform="translate(53.6406 20.3496) scale(2)" fill="url(#paint6_linear)"/>
<path d="M0.786322 0C0.132403 0 0 0.297824 0 0.545815C0 0.673621 0.0716941 0.887023 0.349219 0.887023C0.886347 0.887023 0.997356 0.172948 0.980589 0.0211052C0.954571 0.0158288 0.938383 0.000586268 0.786322 0Z" transform="translate(40.1016 18.1689) scale(2)" fill="#083482"/>
<path d="M0.786322 0C0.132403 0 0 0.297824 0 0.545815C0 0.673621 0.0716941 0.887023 0.349219 0.887023C0.886347 0.887023 0.997356 0.172948 0.980589 0.0211052C0.954571 0.0158288 0.938383 0.000586268 0.786322 0Z" transform="translate(40.1016 18.1689) scale(2)" fill="url(#paint7_linear)"/>
<path d="M0.119681 0.0205193C0.115056 0.0146566 0.108698 0.00996556 0.100025 0.00586169C0.090196 0.00293035 0.0757411 0 0.052614 0V0.000585945H0V0.0896989H0.0572391C0.0844134 0.0896989 0.102337 0.0861813 0.113322 0.0773873C0.121995 0.0685933 0.127198 0.0574532 0.127198 0.0445553C0.127198 0.0345888 0.124885 0.028727 0.119681 0.0205193Z" transform="translate(53.9531 20.5977) scale(2)" fill="#083482"/>
<path d="M0.119681 0.0205193C0.115056 0.0146566 0.108698 0.00996556 0.100025 0.00586169C0.090196 0.00293035 0.0757411 0 0.052614 0V0.000585945H0V0.0896989H0.0572391C0.0844134 0.0896989 0.102337 0.0861813 0.113322 0.0773873C0.121995 0.0685933 0.127198 0.0574532 0.127198 0.0445553C0.127198 0.0345888 0.124885 0.028727 0.119681 0.0205193Z" transform="translate(53.9531 20.5977) scale(2)" fill="url(#paint8_linear)"/>
<defs>
<linearGradient id="paint0_linear" x2="1" gradientUnits="userSpaceOnUse" gradientTransform="matrix(27.3563 -6.42119 10.5761 45.487 -4.1846 -11.8182)">
<stop stop-color="#4998A7"/>
<stop offset="1" stop-color="#093783" stop-opacity="0.85"/>
</linearGradient>
<linearGradient id="paint1_linear" x2="1" gradientUnits="userSpaceOnUse" gradientTransform="matrix(0.12484 -0.0332168 0.0482639 0.235304 -0.0190964 -0.0611358)">
<stop stop-color="#4998A7"/>
<stop offset="1" stop-color="#093783" stop-opacity="0.85"/>
</linearGradient>
<linearGradient id="paint2_linear" x2="1" gradientUnits="userSpaceOnUse" gradientTransform="matrix(0.528734 -0.207493 0.204411 1.46985 -0.0808785 -0.381891)">
<stop stop-color="#4998A7"/>
<stop offset="1" stop-color="#093783" stop-opacity="0.85"/>
</linearGradient>
<linearGradient id="paint3_linear" x2="1" gradientUnits="userSpaceOnUse" gradientTransform="matrix(0.959678 -0.335044 0.371016 2.37341 -0.146798 -0.61665)">
<stop stop-color="#4998A7"/>
<stop offset="1" stop-color="#093783" stop-opacity="0.85"/>
</linearGradient>
<linearGradient id="paint4_linear" x2="1" gradientUnits="userSpaceOnUse" gradientTransform="matrix(0.974276 -0.234287 0.37666 1.65966 -0.149031 -0.431207)">
<stop stop-color="#4998A7"/>
<stop offset="1" stop-color="#093783" stop-opacity="0.85"/>
</linearGradient>
<linearGradient id="paint5_linear" x2="1" gradientUnits="userSpaceOnUse" gradientTransform="matrix(1.16084 -0.704854 0.448787 4.99311 -0.17757 -1.29729)">
<stop stop-color="#4998A7"/>
<stop offset="1" stop-color="#093783" stop-opacity="0.85"/>
</linearGradient>
<linearGradient id="paint6_linear" x2="1" gradientUnits="userSpaceOnUse" gradientTransform="matrix(0.440611 -0.174055 0.170342 1.23298 -0.0673986 -0.320349)">
<stop stop-color="#4998A7"/>
<stop offset="1" stop-color="#093783" stop-opacity="0.85"/>
</linearGradient>
<linearGradient id="paint7_linear" x2="1" gradientUnits="userSpaceOnUse" gradientTransform="matrix(0.959585 -0.335044 0.37098 2.37341 -0.146784 -0.61665)">
<stop stop-color="#4998A7"/>
<stop offset="1" stop-color="#093783" stop-opacity="0.85"/>
</linearGradient>
<linearGradient id="paint8_linear" x2="1" gradientUnits="userSpaceOnUse" gradientTransform="matrix(0.124274 -0.0338808 0.0480448 0.240008 -0.0190097 -0.0623578)">
<stop stop-color="#4998A7"/>
<stop offset="1" stop-color="#093783" stop-opacity="0.85"/>
</linearGradient>
</defs>
</svg>
