<svg width="110" height="30" viewBox="0 0 110 30" fill="none" xmlns="http://www.w3.org/2000/svg">
<path d="M9.85752 1.51144C9.67749 1.14759 9.39272 0.847505 9.03921 0.622163C8.67043 0.394623 8.23509 0.235235 7.73756 0.140702C7.2313 0.0483663 6.64649 0.00659537 5.96893 0L2.84082 0.00219935C2.51568 0.00659626 2.19709 0.261615 2.12071 0.578193L0.0160296 9.81391C-0.0603455 10.1261 0.143685 10.3877 0.468825 10.3877H1.96687C2.29201 10.3877 2.61388 10.1338 2.68589 9.81391L3.19978 7.57149C3.26852 7.25931 3.5893 6.99879 3.91771 6.99879H4.3465C6.17841 6.99659 7.59681 6.61955 8.61587 5.86438C9.64039 5.10811 10.1456 4.10892 10.1456 2.87118C10.1445 2.32926 10.0561 1.87418 9.85752 1.51144ZM6.62685 4.52882C6.17405 4.86299 5.5445 5.03007 4.73274 5.03007H4.36614C4.03991 5.03007 3.84024 4.77065 3.91116 4.45407L4.36178 2.49305C4.42506 2.17867 4.75347 1.91815 5.07534 1.92035L5.56632 1.91705C6.13914 1.91705 6.57666 2.01708 6.86906 2.21055C7.1582 2.40181 7.30331 2.7063 7.30113 3.10972C7.30986 3.72309 7.07746 4.19466 6.62685 4.52882Z" transform="translate(0 1.86426) scale(2)" fill="#083482"/>
<path d="M9.85752 1.51144C9.67749 1.14759 9.39272 0.847505 9.03921 0.622163C8.67043 0.394623 8.23509 0.235235 7.73756 0.140702C7.2313 0.0483663 6.64649 0.00659537 5.96893 0L2.84082 0.00219935C2.51568 0.00659626 2.19709 0.261615 2.12071 0.578193L0.0160296 9.81391C-0.0603455 10.1261 0.143685 10.3877 0.468825 10.3877H1.96687C2.29201 10.3877 2.61388 10.1338 2.68589 9.81391L3.19978 7.57149C3.26852 7.25931 3.5893 6.99879 3.91771 6.99879H4.3465C6.17841 6.99659 7.59681 6.61955 8.61587 5.86438C9.64039 5.10811 10.1456 4.10892 10.1456 2.87118C10.1445 2.32926 10.0561 1.87418 9.85752 1.51144ZM6.62685 4.52882C6.17405 4.86299 5.5445 5.03007 4.73274 5.03007H4.36614C4.03991 5.03007 3.84024 4.77065 3.91116 4.45407L4.36178 2.49305C4.42506 2.17867 4.75347 1.91815 5.07534 1.92035L5.56632 1.91705C6.13914 1.91705 6.57666 2.01708 6.86906 2.21055C7.1582 2.40181 7.30331 2.7063 7.30113 3.10972C7.30986 3.72309 7.07746 4.19466 6.62685 4.52882Z" transform="translate(0 1.86426) scale(2)" fill="url(#paint0_linear)"/>
<path d="M0.905589 1.65544L0.811758 1.68402L0.686283 1.70161L0.532443 1.67742L0.453887 1.60048L0.417881 1.47956L0.4157 1.29819V0.62656H0.916502V0.418805H0.4157V0H0.168025V0.418805H0V0.62656H0.168025V1.40811L0.283677 1.79504L0.624093 1.91815L0.767024 1.90606L0.918683 1.87638V1.65544H0.905589Z" transform="translate(103.313) scale(2)" fill="#083482"/>
<path d="M0.905589 1.65544L0.811758 1.68402L0.686283 1.70161L0.532443 1.67742L0.453887 1.60048L0.417881 1.47956L0.4157 1.29819V0.62656H0.916502V0.418805H0.4157V0H0.168025V0.418805H0V0.62656H0.168025V1.40811L0.283677 1.79504L0.624093 1.91815L0.767024 1.90606L0.918683 1.87638V1.65544H0.905589Z" transform="translate(103.313) scale(2)" fill="url(#paint1_linear)"/>
<path d="M2.0163 0.148394L1.65843 0L1.39439 0.053862L1.12599 0.236332L0.969965 0.0615565L0.716833 0.00109862L0.473524 0.0549606L0.243309 0.204455V0.0417687H0V1.50924H0.242219V0.413309L0.44625 0.285798L0.649186 0.235234L0.81503 0.264913L0.896861 0.349553L0.932868 0.490255L0.944867 0.671627V1.51034H1.18818V0.571597L1.18381 0.493553L1.17945 0.422103L1.38675 0.289096L1.59188 0.237433L1.75226 0.26711L1.83955 0.351753L1.8701 0.493553L1.88647 0.672727V1.51144H2.13087V0.558407L2.0163 0.148394Z" transform="translate(105.738 0.753906) scale(2)" fill="#083482"/>
<path d="M2.0163 0.148394L1.65843 0L1.39439 0.053862L1.12599 0.236332L0.969965 0.0615565L0.716833 0.00109862L0.473524 0.0549606L0.243309 0.204455V0.0417687H0V1.50924H0.242219V0.413309L0.44625 0.285798L0.649186 0.235234L0.81503 0.264913L0.896861 0.349553L0.932868 0.490255L0.944867 0.671627V1.51034H1.18818V0.571597L1.18381 0.493553L1.17945 0.422103L1.38675 0.289096L1.59188 0.237433L1.75226 0.26711L1.83955 0.351753L1.8701 0.493553L1.88647 0.672727V1.51144H2.13087V0.558407L2.0163 0.148394Z" transform="translate(105.738 0.753906) scale(2)" fill="url(#paint2_linear)"/>
<path d="M7.76736 0.481462C7.20218 0.160487 6.30968 0 5.08986 0C4.4865 0 3.88531 0.0472665 3.27759 0.1418C2.82916 0.211052 2.78551 0.224241 2.50947 0.284699C1.93993 0.410011 1.85046 0.982709 1.85046 0.982709L1.66716 1.74228C1.56351 2.22704 1.84064 2.20835 1.9563 2.16768C2.20506 2.09293 2.34363 2.01598 2.85207 1.90166C3.3376 1.79064 3.84931 1.7071 4.25519 1.7126C4.85419 1.7126 5.31244 1.77635 5.61794 1.90606C5.91908 2.03797 6.06964 2.26441 6.06964 2.59198L6.04346 2.80523L5.82743 2.93934C4.97748 2.9932 4.3632 3.07234 3.618 3.18117C2.88916 3.28339 2.2498 3.46257 1.71844 3.7077C1.14781 3.96052 0.724474 4.30018 0.428793 4.73218C0.142931 5.16637 0 5.6929 0 6.31067C0 6.89216 0.207304 7.37252 0.60991 7.74406C1.0147 8.10901 1.54933 8.28708 2.18869 8.28708C2.59348 8.28488 2.90662 8.25301 3.1292 8.19914L3.85476 7.94742L4.46904 7.60446L5.03421 7.22853L5.04185 7.23952L4.98512 7.48135L4.98184 7.49124V7.49344C4.92074 7.78803 5.0975 8.02986 5.38227 8.05844L5.38772 8.06504H5.41391H6.56281H6.77884L6.79848 8.05624C7.09744 8.02107 7.37784 7.77924 7.44331 7.49124L8.53547 2.72829L8.59221 2.34026L8.61839 1.97641C8.62276 1.30149 8.33362 0.801337 7.76736 0.481462ZM5.35172 5.8369L5.11823 6.14688L4.52905 6.45357C4.25191 6.56679 3.98897 6.62395 3.74566 6.62395C3.37687 6.62395 3.08774 6.57009 2.89244 6.46016L2.6033 5.89406C2.6033 5.58738 2.67313 5.34445 2.82261 5.15758L3.45761 4.72228C3.72929 4.62995 4.06098 4.5519 4.44504 4.49804C4.78763 4.45517 5.4641 4.37713 5.55248 4.37493L5.65613 4.5585C5.6354 4.66293 5.44337 5.47196 5.35172 5.8369Z" transform="translate(18.6299 6.56445) scale(2)" fill="#083482"/>
<path d="M7.76736 0.481462C7.20218 0.160487 6.30968 0 5.08986 0C4.4865 0 3.88531 0.0472665 3.27759 0.1418C2.82916 0.211052 2.78551 0.224241 2.50947 0.284699C1.93993 0.410011 1.85046 0.982709 1.85046 0.982709L1.66716 1.74228C1.56351 2.22704 1.84064 2.20835 1.9563 2.16768C2.20506 2.09293 2.34363 2.01598 2.85207 1.90166C3.3376 1.79064 3.84931 1.7071 4.25519 1.7126C4.85419 1.7126 5.31244 1.77635 5.61794 1.90606C5.91908 2.03797 6.06964 2.26441 6.06964 2.59198L6.04346 2.80523L5.82743 2.93934C4.97748 2.9932 4.3632 3.07234 3.618 3.18117C2.88916 3.28339 2.2498 3.46257 1.71844 3.7077C1.14781 3.96052 0.724474 4.30018 0.428793 4.73218C0.142931 5.16637 0 5.6929 0 6.31067C0 6.89216 0.207304 7.37252 0.60991 7.74406C1.0147 8.10901 1.54933 8.28708 2.18869 8.28708C2.59348 8.28488 2.90662 8.25301 3.1292 8.19914L3.85476 7.94742L4.46904 7.60446L5.03421 7.22853L5.04185 7.23952L4.98512 7.48135L4.98184 7.49124V7.49344C4.92074 7.78803 5.0975 8.02986 5.38227 8.05844L5.38772 8.06504H5.41391H6.56281H6.77884L6.79848 8.05624C7.09744 8.02107 7.37784 7.77924 7.44331 7.49124L8.53547 2.72829L8.59221 2.34026L8.61839 1.97641C8.62276 1.30149 8.33362 0.801337 7.76736 0.481462ZM5.35172 5.8369L5.11823 6.14688L4.52905 6.45357C4.25191 6.56679 3.98897 6.62395 3.74566 6.62395C3.37687 6.62395 3.08774 6.57009 2.89244 6.46016L2.6033 5.89406C2.6033 5.58738 2.67313 5.34445 2.82261 5.15758L3.45761 4.72228C3.72929 4.62995 4.06098 4.5519 4.44504 4.49804C4.78763 4.45517 5.4641 4.37713 5.55248 4.37493L5.65613 4.5585C5.6354 4.66293 5.44337 5.47196 5.35172 5.8369Z" transform="translate(18.6299 6.56445) scale(2)" fill="url(#paint3_linear)"/>
<path d="M7.76736 0.482562C7.19891 0.161588 6.3075 0 5.09095 0C4.48759 0 3.88531 0.0472668 3.27977 0.145098C2.83025 0.211052 2.78551 0.225343 2.50838 0.284701C1.93993 0.408914 1.85155 0.98381 1.85155 0.98381L1.66826 1.74228C1.56569 2.22704 1.83628 2.20505 1.96284 2.16768C2.2127 2.09293 2.3469 2.01928 2.85098 1.90057C3.33432 1.79064 3.8504 1.7093 4.25737 1.7115C4.85419 1.7115 5.31244 1.77635 5.61685 1.90606C5.92017 2.03797 6.06855 2.26661 6.06855 2.59088L6.04564 2.80303L5.83179 2.94044C4.97312 2.9921 4.35775 3.07124 3.62018 3.18007C2.89353 3.2823 2.25198 3.46037 1.71953 3.7066C1.15108 3.96052 0.722292 4.30018 0.429884 4.73328C0.14075 5.16747 0 5.6929 0 6.30517C0 6.89106 0.205122 7.37143 0.613184 7.74077C1.02015 8.10461 1.54933 8.28708 2.18869 8.28708C2.5913 8.28269 2.90444 8.2563 3.12811 8.19805L3.85149 7.94962L4.47122 7.60666L5.03204 7.22633L5.04185 7.23842L4.99057 7.48245L4.98512 7.48685L4.9873 7.49124C4.91965 7.78584 5.0975 8.02986 5.38554 8.05625L5.38772 8.06174H5.41391C5.60267 8.06174 6.25513 8.06174 6.56608 8.06174H6.77775L6.80066 8.05405C7.09635 8.01777 7.37566 7.77594 7.43785 7.48465L8.53329 2.72829L8.59111 2.33806L8.62276 1.97312C8.62385 1.30039 8.33799 0.802438 7.76736 0.482562ZM5.35717 5.838L5.11386 6.15128L4.53014 6.45577C4.25301 6.56789 3.98897 6.62615 3.75002 6.62615C3.36924 6.62615 3.08774 6.57119 2.89789 6.46126L2.60548 5.89736C2.60548 5.58958 2.6764 5.34885 2.81933 5.15868C2.96445 4.97951 3.18594 4.83221 3.46089 4.72448C3.72929 4.63215 4.06098 4.5574 4.44722 4.50134C4.78763 4.45847 5.46192 4.37823 5.5492 4.37713L5.65504 4.5607C5.63976 4.66513 5.44664 5.47086 5.35717 5.838Z" transform="translate(73.0459 6.57617) scale(2)" fill="#083482"/>
<path d="M7.76736 0.482562C7.19891 0.161588 6.3075 0 5.09095 0C4.48759 0 3.88531 0.0472668 3.27977 0.145098C2.83025 0.211052 2.78551 0.225343 2.50838 0.284701C1.93993 0.408914 1.85155 0.98381 1.85155 0.98381L1.66826 1.74228C1.56569 2.22704 1.83628 2.20505 1.96284 2.16768C2.2127 2.09293 2.3469 2.01928 2.85098 1.90057C3.33432 1.79064 3.8504 1.7093 4.25737 1.7115C4.85419 1.7115 5.31244 1.77635 5.61685 1.90606C5.92017 2.03797 6.06855 2.26661 6.06855 2.59088L6.04564 2.80303L5.83179 2.94044C4.97312 2.9921 4.35775 3.07124 3.62018 3.18007C2.89353 3.2823 2.25198 3.46037 1.71953 3.7066C1.15108 3.96052 0.722292 4.30018 0.429884 4.73328C0.14075 5.16747 0 5.6929 0 6.30517C0 6.89106 0.205122 7.37143 0.613184 7.74077C1.02015 8.10461 1.54933 8.28708 2.18869 8.28708C2.5913 8.28269 2.90444 8.2563 3.12811 8.19805L3.85149 7.94962L4.47122 7.60666L5.03204 7.22633L5.04185 7.23842L4.99057 7.48245L4.98512 7.48685L4.9873 7.49124C4.91965 7.78584 5.0975 8.02986 5.38554 8.05625L5.38772 8.06174H5.41391C5.60267 8.06174 6.25513 8.06174 6.56608 8.06174H6.77775L6.80066 8.05405C7.09635 8.01777 7.37566 7.77594 7.43785 7.48465L8.53329 2.72829L8.59111 2.33806L8.62276 1.97312C8.62385 1.30039 8.33799 0.802438 7.76736 0.482562ZM5.35717 5.838L5.11386 6.15128L4.53014 6.45577C4.25301 6.56789 3.98897 6.62615 3.75002 6.62615C3.36924 6.62615 3.08774 6.57119 2.89789 6.46126L2.60548 5.89736C2.60548 5.58958 2.6764 5.34885 2.81933 5.15868C2.96445 4.97951 3.18594 4.83221 3.46089 4.72448C3.72929 4.63215 4.06098 4.5574 4.44722 4.50134C4.78763 4.45847 5.46192 4.37823 5.5492 4.37713L5.65504 4.5607C5.63976 4.66513 5.44664 5.47086 5.35717 5.838Z" transform="translate(73.0459 6.57617) scale(2)" fill="url(#paint4_linear)"/>
<path d="M9.85833 1.51254C9.67067 1.14649 9.38917 0.850802 9.03348 0.619964C8.66906 0.391324 8.237 0.230837 7.73183 0.138502C7.23539 0.0494647 6.64294 0.00109923 5.96975 0L2.83727 0.00219725C2.51104 0.00769339 2.1979 0.262716 2.12262 0.575996L0.0157541 9.81611C-0.0606211 10.1294 0.148865 10.3888 0.467458 10.3888L1.96768 10.3866C2.28628 10.3888 2.61251 10.1316 2.68779 9.81501L3.19514 7.57148C3.26934 7.2593 3.5912 6.99659 3.91525 6.99879H4.34405C6.17814 6.99879 7.59981 6.61845 8.62324 5.86548C9.63466 5.10372 10.1464 4.10672 10.1464 2.86789C10.1409 2.32817 10.0482 1.87199 9.85833 1.51254ZM6.62766 4.53432C6.17596 4.86189 5.54532 5.02897 4.73792 5.02897H4.36477C4.04291 5.03227 3.83451 4.76845 3.90652 4.45407L4.36041 2.49635C4.42697 2.18307 4.75211 1.92035 5.07616 1.92365L5.56168 1.92035C6.13777 1.92365 6.56984 2.01928 6.86443 2.21275C7.15792 2.40621 7.29649 2.7096 7.29976 3.11192C7.30304 3.72528 7.07718 4.19795 6.62766 4.53432Z" transform="translate(54.4092 1.92969) scale(2)" fill="#083482"/>
<path d="M9.85833 1.51254C9.67067 1.14649 9.38917 0.850802 9.03348 0.619964C8.66906 0.391324 8.237 0.230837 7.73183 0.138502C7.23539 0.0494647 6.64294 0.00109923 5.96975 0L2.83727 0.00219725C2.51104 0.00769339 2.1979 0.262716 2.12262 0.575996L0.0157541 9.81611C-0.0606211 10.1294 0.148865 10.3888 0.467458 10.3888L1.96768 10.3866C2.28628 10.3888 2.61251 10.1316 2.68779 9.81501L3.19514 7.57148C3.26934 7.2593 3.5912 6.99659 3.91525 6.99879H4.34405C6.17814 6.99879 7.59981 6.61845 8.62324 5.86548C9.63466 5.10372 10.1464 4.10672 10.1464 2.86789C10.1409 2.32817 10.0482 1.87199 9.85833 1.51254ZM6.62766 4.53432C6.17596 4.86189 5.54532 5.02897 4.73792 5.02897H4.36477C4.04291 5.03227 3.83451 4.76845 3.90652 4.45407L4.36041 2.49635C4.42697 2.18307 4.75211 1.92035 5.07616 1.92365L5.56168 1.92035C6.13777 1.92365 6.56984 2.01928 6.86443 2.21275C7.15792 2.40621 7.29649 2.7096 7.29976 3.11192C7.30304 3.72528 7.07718 4.19795 6.62766 4.53432Z" transform="translate(54.4092 1.92969) scale(2)" fill="url(#paint5_linear)"/>
<path d="M4.52431 0.567258C4.59305 0.25178 4.39665 -0.00434114 4.07479 5.57785e-05H2.73276C2.45781 5.57785e-05 2.21014 0.205611 2.08903 0.458434L2.01484 0.574953L1.94719 0.873942L0.0716339 9.46332L0.010534 9.72713L0.012715 9.73372C-0.0494762 10.0162 0.122915 10.2295 0.389137 10.2701L0.412049 10.302H1.80535C2.07812 10.302 2.33452 10.0932 2.45127 9.83595L2.52328 9.72603L4.52867 0.568357L4.52431 0.567258Z" transform="translate(90.7646 2.0957) scale(2)" fill="#083482"/>
<path d="M4.52431 0.567258C4.59305 0.25178 4.39665 -0.00434114 4.07479 5.57785e-05H2.73276C2.45781 5.57785e-05 2.21014 0.205611 2.08903 0.458434L2.01484 0.574953L1.94719 0.873942L0.0716339 9.46332L0.010534 9.72713L0.012715 9.73372C-0.0494762 10.0162 0.122915 10.2295 0.389137 10.2701L0.412049 10.302H1.80535C2.07812 10.302 2.33452 10.0932 2.45127 9.83595L2.52328 9.72603L4.52867 0.568357L4.52431 0.567258Z" transform="translate(90.7646 2.0957) scale(2)" fill="url(#paint6_linear)"/>
<path d="M8.82967 0.000124954C8.47507 0.00452187 7.03376 0.000124954 7.03376 0.000124954C6.71081 0.000124954 6.2962 0.262841 6.09108 0.576121C6.09108 0.576121 3.94603 4.28492 3.73763 4.65756L3.48886 4.65426L2.82113 0.601402C2.74694 0.282626 2.41634 0.0100189 2.00501 0.0100189L0.662984 0.0122161C0.340026 0.0122161 0.141451 0.271634 0.214553 0.588212C0.214553 0.588212 1.23362 6.43061 1.43765 7.80575C1.53257 8.56421 1.42565 8.69942 1.42565 8.69942L0.0988985 11.0276C-0.0974948 11.3442 0.00833922 11.6025 0.330206 11.6025L1.88171 11.6003C2.20467 11.6003 2.6291 11.3442 2.82113 11.0265L8.7893 0.856423C8.7893 0.857522 9.36321 -0.0119666 8.82967 0.000124954Z" transform="translate(36.8613 6.79492) scale(2)" fill="#083482"/>
<path d="M8.82967 0.000124954C8.47507 0.00452187 7.03376 0.000124954 7.03376 0.000124954C6.71081 0.000124954 6.2962 0.262841 6.09108 0.576121C6.09108 0.576121 3.94603 4.28492 3.73763 4.65756L3.48886 4.65426L2.82113 0.601402C2.74694 0.282626 2.41634 0.0100189 2.00501 0.0100189L0.662984 0.0122161C0.340026 0.0122161 0.141451 0.271634 0.214553 0.588212C0.214553 0.588212 1.23362 6.43061 1.43765 7.80575C1.53257 8.56421 1.42565 8.69942 1.42565 8.69942L0.0988985 11.0276C-0.0974948 11.3442 0.00833922 11.6025 0.330206 11.6025L1.88171 11.6003C2.20467 11.6003 2.6291 11.3442 2.82113 11.0265L8.7893 0.856423C8.7893 0.857522 9.36321 -0.0119666 8.82967 0.000124954Z" transform="translate(36.8613 6.79492) scale(2)" fill="url(#paint7_linear)"/>
<defs>
<linearGradient id="paint0_linear" x2="1" gradientUnits="userSpaceOnUse" gradientTransform="matrix(9.91233 -3.92362 3.83215 27.7945 -1.51625 -7.22144)">
<stop stop-color="#4998A7"/>
<stop offset="1" stop-color="#093783" stop-opacity="0.85"/>
</linearGradient>
<linearGradient id="paint1_linear" x2="1" gradientUnits="userSpaceOnUse" gradientTransform="matrix(0.897564 -0.72452 0.347003 5.13241 -0.137297 -1.33348)">
<stop stop-color="#4998A7"/>
<stop offset="1" stop-color="#093783" stop-opacity="0.85"/>
</linearGradient>
<linearGradient id="paint2_linear" x2="1" gradientUnits="userSpaceOnUse" gradientTransform="matrix(2.08188 -0.570897 0.804865 4.04417 -0.318458 -1.05074)">
<stop stop-color="#4998A7"/>
<stop offset="1" stop-color="#093783" stop-opacity="0.85"/>
</linearGradient>
<linearGradient id="paint3_linear" x2="1" gradientUnits="userSpaceOnUse" gradientTransform="matrix(8.42032 -3.13017 3.25534 22.1738 -1.28802 -5.7611)">
<stop stop-color="#4998A7"/>
<stop offset="1" stop-color="#093783" stop-opacity="0.85"/>
</linearGradient>
<linearGradient id="paint4_linear" x2="1" gradientUnits="userSpaceOnUse" gradientTransform="matrix(8.42453 -3.13017 3.25697 22.1738 -1.28867 -5.7611)">
<stop stop-color="#4998A7"/>
<stop offset="1" stop-color="#093783" stop-opacity="0.85"/>
</linearGradient>
<linearGradient id="paint5_linear" x2="1" gradientUnits="userSpaceOnUse" gradientTransform="matrix(9.91313 -3.92403 3.83246 27.7974 -1.51637 -7.2222)">
<stop stop-color="#4998A7"/>
<stop offset="1" stop-color="#093783" stop-opacity="0.85"/>
</linearGradient>
<linearGradient id="paint6_linear" x2="1" gradientUnits="userSpaceOnUse" gradientTransform="matrix(4.43367 -3.89125 1.71408 27.5652 -0.678203 -7.16187)">
<stop stop-color="#4998A7"/>
<stop offset="1" stop-color="#093783" stop-opacity="0.85"/>
</linearGradient>
<linearGradient id="paint7_linear" x2="1" gradientUnits="userSpaceOnUse" gradientTransform="matrix(8.84856 -4.38246 3.4209 31.0448 -1.35353 -8.06594)">
<stop stop-color="#4998A7"/>
<stop offset="1" stop-color="#093783" stop-opacity="0.85"/>
</linearGradient>
</defs>
</svg>
