<svg width="24" height="24" viewBox="0 0 24 24" fill="none" xmlns="http://www.w3.org/2000/svg">
<path d="M21.8308 5.85402C18.6005 0.255933 11.4457 -1.66223 5.85098 1.57041C0.255854 4.80201 -1.66137 11.9603 1.56957 17.5581C4.79946 23.1562 11.954 25.0747 17.5488 21.8423C23.144 18.6096 25.0621 11.4517 21.8308 5.85402ZM16.3792 19.8144C11.9038 22.4006 6.17964 20.866 3.59557 16.3873C1.01091 11.9095 2.54524 6.18239 7.02082 3.59749C11.4966 1.01146 17.2204 2.54593 19.8046 7.02447C22.3889 11.5029 20.8551 17.2289 16.3792 19.8144ZM15.9114 11.2305L9.78587 7.65603C9.22766 7.32997 8.77741 7.59066 8.78054 8.23668L8.81191 15.3316C8.81474 15.9775 9.2705 16.2404 9.83035 15.9169L15.909 12.4055C16.4683 12.0825 16.4695 11.5565 15.9114 11.2305Z" fill="#083482"/>
</svg>
