<svg width="60" height="49" viewBox="0 0 60 49" fill="none" xmlns="http://www.w3.org/2000/svg">
<path d="M26.7103 11.1857C25.6424 11.841 24.2748 12.2019 22.8593 12.2019C21.4439 12.2019 20.0762 11.8411 19.0083 11.1857L1.57365 0.487959C1.57365 0.487959 0 -0.477068 0 1.70907C0 4.1916 0 11.6392 0 11.6392C0 11.7385 0 12.237 0 12.3915C0 18.0189 10.2343 24.0854 22.8589 24.0854C35.4834 24.0854 45.7177 18.019 45.7177 12.3915C45.7177 12.237 45.7177 11.7385 45.7177 11.6392C45.7177 11.6392 45.7177 3.73993 45.7177 1.10679C45.7177 -0.647987 44.599 0.209464 44.599 0.209464L26.7103 11.1857Z" transform="translate(7.14062 24.9146)" fill="url(#paint0_linear)"/>
<path d="M58.9953 16.8932C60.3349 16.0712 60.3349 14.7261 58.9953 13.904L32.4357 0.616458C31.096 -0.205486 28.9038 -0.205486 27.5642 0.616458L1.00474 13.904C-0.334912 14.726 -0.334912 16.0711 1.00474 16.8932L27.5642 33.1899C28.9038 34.0118 31.096 34.0118 32.4357 33.1899" fill="url(#paint1_linear)"/>
<path d="M4.38619 18.6264C4.38619 14.1268 4.38619 0.627996 4.38619 0.627996C4.38619 0.627996 4.39868 -0.224493 3.89307 0.0570114C3.48748 0.282847 2.49327 0.83728 2.14302 1.14211C1.73863 1.49372 1.82976 2.28302 1.82976 2.28302C1.82976 2.28302 1.82976 14.5406 1.82976 18.6264C1.82976 18.8584 1.6305 18.9691 1.53545 19.0251C0.617338 19.5651 0 20.5618 0 21.7046C0 23.4219 1.39138 24.8141 3.10805 24.8141C4.82457 24.8141 6.21596 23.4219 6.21596 21.7046C6.21596 20.5575 5.5941 19.5575 4.67012 19.0189C4.57824 18.9654 4.38619 18.8582 4.38619 18.6264Z" transform="translate(53.5107 22.4224)" fill="url(#paint2_linear)"/>
<defs>
<linearGradient id="paint0_linear" x2="1" gradientUnits="userSpaceOnUse" gradientTransform="translate(0.61362 -2619.25) scale(45.1041 5275.43)">
<stop stop-color="#33999F"/>
<stop offset="1" stop-color="#083482"/>
</linearGradient>
<linearGradient id="paint1_linear" x2="1" gradientUnits="userSpaceOnUse" gradientTransform="translate(0.805316 -3676.38) scale(59.1946 7404.6)">
<stop stop-color="#33999F"/>
<stop offset="1" stop-color="#083482"/>
</linearGradient>
<linearGradient id="paint2_linear" x2="1" gradientUnits="userSpaceOnUse" gradientTransform="translate(0.0834302 -2698.49) scale(6.13252 5435.02)">
<stop stop-color="#33999F"/>
<stop offset="1" stop-color="#083482"/>
</linearGradient>
</defs>
</svg>
