<svg width="36" height="40" viewBox="0 0 36 40" fill="none" xmlns="http://www.w3.org/2000/svg">
<path d="M0 4.6933C0 6.11431 1.15329 7.26992 2.57143 7.26992C3.98957 7.26992 5.14286 6.11431 5.14286 4.6933C5.14286 3.2723 3.98957 2.11669 2.57143 2.11669C2.538 2.11669 2.50714 2.12506 2.47436 2.12635L1.83793 0L0.606215 0.370388L1.24329 2.49803C0.501429 2.95087 0 3.76121 0 4.6933ZM2.57143 3.405C3.2805 3.405 3.85714 3.9828 3.85714 4.6933C3.85714 5.4038 3.2805 5.98161 2.57143 5.98161C1.86236 5.98161 1.28571 5.4038 1.28571 4.6933C1.28571 3.9828 1.86236 3.405 2.57143 3.405Z" transform="translate(15.4287 8.83398)" fill="white"/>
<path d="M36 27.5189V19.7059L34.7143 20.1556V13.5272C34.7143 11.7513 33.2724 10.3065 31.5 10.3065H28.8958C28.5602 4.56834 23.8089 0 18 0C12.1911 0 7.43979 4.56834 7.10421 10.3065H4.5C2.72764 10.3065 1.28571 11.7513 1.28571 13.5272V29.0442L0 28.9251V36.6601L1.29214 36.7799C1.32621 38.5262 2.7495 39.9375 4.5 39.9375H31.5C31.7713 39.9375 32.0413 39.9034 32.3029 39.8364L32.6893 39.6914L36 40V32.2644L34.7143 32.1452V27.9479L36 27.5189ZM18 1.28831C23.1004 1.28831 27.2771 5.27884 27.6101 10.3065H26.3244C25.9939 5.98998 22.3907 2.57661 18 2.57661C13.6093 2.57661 10.0061 5.98998 9.67564 10.3065H8.38993C8.72293 5.27884 12.8996 1.28831 18 1.28831ZM2.57143 13.5272C2.57143 12.4618 3.43671 11.5948 4.5 11.5948H12.2143V10.3065H10.9614C11.0944 8.83585 11.6756 7.49408 12.5691 6.41963L13.4544 7.30663L14.3634 6.3958L13.4781 5.5088C14.5504 4.61278 15.8895 4.03111 17.3571 3.89777V5.15323H18.6429V3.89777C20.1105 4.03111 21.4496 4.61343 22.5219 5.50945L21.6366 6.39644L22.5456 7.30728L23.4309 6.42028C24.3251 7.49408 24.9056 8.8365 25.0386 10.3071H23.7857V11.5954H31.5C32.5633 11.5954 33.4286 12.4624 33.4286 13.5279V20.6058L32.1429 21.0554V19.9688H30.8571V21.5038L7.60693 29.6304L5.14286 29.4017V14.1714H9.96429C10.8508 14.1714 11.5714 14.8941 11.5714 15.7818C11.5714 17.3799 12.8694 18.6805 14.4643 18.6805H21.5357C23.1306 18.6805 24.4286 17.3799 24.4286 15.7818C24.4286 14.8941 25.1492 14.1714 26.0357 14.1714H30.8571V18.6805H32.1429V12.8831H26.0357C24.4408 12.8831 23.1429 14.1836 23.1429 15.7818C23.1429 16.6694 22.4222 17.3921 21.5357 17.3921H14.4643C13.5778 17.3921 12.8571 16.6694 12.8571 15.7818C12.8571 14.1836 11.5592 12.8831 9.96429 12.8831H3.85714V29.2826L2.57143 29.1634V13.5272ZM4.5 38.6492C3.49907 38.6492 2.68393 37.8788 2.59007 36.9003L21.4425 38.6492H4.5ZM34.7143 38.5867L1.28571 35.4851V30.3371L4.5 30.6353V32.8518H5.78571V30.7551L7.71429 30.9342V32.2077H9V31.0534L10.9286 31.2324V33.496H12.2143V31.3516L14.1429 31.5307V32.8518H15.4286V31.6498L17.3571 31.8289V34.1401H18.6429V31.9481L20.5714 32.1272V33.496H21.8571V32.2463L23.7857 32.4254V34.7843H25.0714V32.5446L27 32.7236V34.1401H28.2857V32.8428L30.2143 33.0219V35.4284H31.5V33.1411L34.7143 33.4393V38.5867ZM24.8799 31.2331L30.8571 29.2362V31.787L24.8799 31.2331ZM32.1429 31.9069V28.8072L33.4286 28.3775V32.026L32.1429 31.9069ZM21.6977 30.9374L10.692 29.9164L17.3571 27.5865V28.9869H18.6429V27.1375L20.5714 26.4631V27.0544H21.8571V26.0141L23.7857 25.3397V27.0544H25.0714V24.8901L27 24.2157V25.122H28.2857V23.8337H28.0941L30.2143 23.0929V25.122H31.5V22.6433L34.7143 21.5199V26.59L21.6977 30.9374Z" fill="white"/>
</svg>
