<svg width="25" height="57" viewBox="0 0 25 57" fill="none" xmlns="http://www.w3.org/2000/svg">
<path d="M19.2341 20.8005H16.1172V9.59647C16.1172 6.02036 13.2017 3.11021 9.61703 3.11021C6.03236 3.11021 3.11687 6.01947 3.11687 9.59647V20.8014H0V9.59647C0.000891043 4.30521 4.31532 0 9.61792 0C14.9205 0 19.2349 4.30521 19.2349 9.59647V20.8005H19.2341Z" transform="translate(2.88184)" fill="#CCCCCC"/>
<g opacity="0.25">
<path opacity="0.25" d="M3.11687 0H0V1.2439H3.11687V0Z" transform="translate(2.88477 17.5195)" fill="black"/>
</g>
<g opacity="0.25">
<path opacity="0.25" d="M3.11687 0H0V1.2439H3.11687V0Z" transform="translate(19.0039 17.5195)" fill="black"/>
</g>
<path fill-rule="evenodd" clip-rule="evenodd" d="M20.7437 21.0254H4.25635C1.90576 21.0254 0 19.1235 0 16.7781V0H25V16.7781C25 19.1245 23.0942 21.0254 20.7437 21.0254ZM13.8301 11.0833C14.8867 10.585 15.6182 9.51172 15.6182 8.26807C15.6182 6.54932 14.2217 5.15601 12.4995 5.15601C10.7773 5.15601 9.38086 6.54932 9.38086 8.26807C9.38086 9.51221 10.1128 10.5859 11.1704 11.084V15.6301H13.8301V11.0833Z" transform="translate(0 18.7681)" fill="#083482"/>
<path d="M0.430375 8.7758C1.06925 9.14212 2.02712 9.46132 3.03222 9.46132C4.29394 9.46132 4.99608 8.87182 4.99608 7.99602C4.99608 7.18424 4.45343 6.70588 3.08034 6.21241C1.30894 5.5749 0.175536 4.63597 0.175536 3.08975C0.175536 1.33726 1.64308 0 3.97494 0C5.14043 0 6.00118 0.254292 6.55986 0.540594L6.08137 2.11793C5.69822 1.91165 4.94885 1.60845 3.94287 1.60845C2.69808 1.60845 2.15543 2.27797 2.15543 2.89859C2.15543 3.72727 2.77738 4.10871 4.21464 4.6662C6.08226 5.36684 6.99202 6.30755 6.99202 7.85198C6.99202 9.57246 5.68218 11.0689 2.90569 11.0689C1.77229 11.0689 0.590762 10.7515 0 10.4003L0.430375 8.7758Z" transform="translate(0.9375 45.9312)" fill="#083482"/>
<path d="M0.430375 8.77579C1.06925 9.14212 2.02712 9.46132 3.03222 9.46132C4.29394 9.46132 4.99608 8.87182 4.99608 7.99602C4.99608 7.18424 4.45343 6.70588 3.08034 6.21241C1.30894 5.5749 0.175536 4.63597 0.175536 3.08975C0.175536 1.33726 1.64308 0 3.97494 0C5.14043 0 6.00118 0.254292 6.55986 0.540594L6.08137 2.11704C5.69822 1.91076 4.94885 1.60756 3.94287 1.60756C2.69808 1.60756 2.15543 2.27708 2.15543 2.8977C2.15543 3.72638 2.77738 4.10782 4.21464 4.66531C6.08226 5.36595 6.99202 6.30666 6.99202 7.85109C6.99202 9.57157 5.68218 11.068 2.90569 11.068C1.77229 11.068 0.590762 10.7506 0 10.3994L0.430375 8.77579Z" transform="translate(9.22021 45.9312)" fill="#083482"/>
<path d="M0 0H1.96386V9.095H6.38522V10.7355H0V0Z" transform="translate(17.98 46.1055)" fill="#083482"/>
</svg>
