<svg width="23" height="21" viewBox="0 0 23 21" fill="none" xmlns="http://www.w3.org/2000/svg">
<path d="M18.1928 11.9184H1.27684C0.571299 11.9184 0 12.4673 0 13.1444C0 13.8212 0.571299 14.3705 1.27684 14.3705H18.1928C18.8983 14.3705 19.4696 13.8209 19.4696 13.1444C19.4699 12.4673 18.8983 11.9184 18.1928 11.9184ZM1.27684 2.45448H14.364C15.069 2.45448 15.6406 1.90494 15.6406 1.22605C15.6406 0.549249 15.069 0 14.364 0H1.27684C0.571299 0 0 0.549249 0 1.22635C0 1.90523 0.571299 2.45448 1.27684 2.45448ZM11.8095 18.206H1.27684C0.571299 18.206 0 18.7549 0 19.4317C0 20.1085 0.571299 20.6581 1.27684 20.6581H11.8095C12.515 20.6581 13.0863 20.1085 13.0863 19.4317C13.0863 18.7549 12.515 18.206 11.8095 18.206ZM20.7471 5.78544H1.27684C0.571299 5.78544 0 6.33469 0 7.01149C0 7.68829 0.571299 8.23754 1.27684 8.23754H20.7471C21.4523 8.23754 22.0239 7.68829 22.0239 7.01149C22.0239 6.33469 21.4523 5.78544 20.7471 5.78544Z" transform="translate(0 0.0610352)" fill="#083482"/>
</svg>
