<svg width="166" height="50" viewBox="0 0 166 50" fill="none" xmlns="http://www.w3.org/2000/svg">
<path d="M11.9236 3.35792C11.2266 2.03804 10.1424 1.10637 8.74839 0.485248C7.74162 0.0970497 6.73485 -0.0582298 5.65064 0.0194099C3.6371 0.252329 2.08822 1.26165 1.004 2.96972C0.15212 4.2896 -0.157653 5.76475 0.0746783 7.23991C0.461898 9.64674 1.77844 11.3548 4.10176 12.2089C6.50252 13.1405 8.67095 12.597 10.607 10.9666C10.7619 10.8113 10.7619 10.6561 10.607 10.5784C10.2973 10.2679 9.9875 10.0349 9.67772 9.72438C9.52284 9.5691 9.44539 9.5691 9.29051 9.72438C8.90329 10.0349 8.51607 10.3455 8.0514 10.5008C6.42508 11.1995 4.41154 10.8113 3.17243 9.5691C2.16566 8.55978 1.701 7.31755 1.77844 5.92003C1.85589 4.60015 2.47544 3.59084 3.48221 2.7368C4.02432 2.27096 4.72131 1.9604 5.49575 1.80512C7.27696 1.49457 9.13562 2.27096 10.0649 3.82376C10.4522 4.44488 10.6845 5.14363 10.7619 5.84239H12.5431C12.5431 5.76475 12.5431 5.76475 12.5431 5.68711C12.5431 4.83307 12.3108 4.05668 11.9236 3.35792Z" transform="translate(12.3965 12.3838) scale(2)" fill="#FEFEFE"/>
<path d="M11.9236 3.35792C11.2266 2.03804 10.1424 1.10637 8.74839 0.485248C7.74162 0.0970497 6.73485 -0.0582298 5.65064 0.0194099C3.6371 0.252329 2.08822 1.26165 1.004 2.96972C0.15212 4.2896 -0.157653 5.76475 0.0746783 7.23991C0.461898 9.64674 1.77844 11.3548 4.10176 12.2089C6.50252 13.1405 8.67095 12.597 10.607 10.9666C10.7619 10.8113 10.7619 10.6561 10.607 10.5784C10.2973 10.2679 9.9875 10.0349 9.67772 9.72438C9.52284 9.5691 9.44539 9.5691 9.29051 9.72438C8.90329 10.0349 8.51607 10.3455 8.0514 10.5008C6.42508 11.1995 4.41154 10.8113 3.17243 9.5691C2.16566 8.55978 1.701 7.31755 1.77844 5.92003C1.85589 4.60015 2.47544 3.59084 3.48221 2.7368C4.02432 2.27096 4.72131 1.9604 5.49575 1.80512C7.27696 1.49457 9.13562 2.27096 10.0649 3.82376C10.4522 4.44488 10.6845 5.14363 10.7619 5.84239H12.5431C12.5431 5.76475 12.5431 5.76475 12.5431 5.68711C12.5431 4.83307 12.3108 4.05668 11.9236 3.35792Z" transform="translate(12.3965 12.3838) scale(2)" fill="url(#paint0_linear)"/>
<path d="M0 2.25575H5.26619C5.1113 0.935872 3.79476 -0.0734444 2.47821 0.00419534C1.16166 0.00419534 0.154888 0.935872 0 2.25575Z" transform="translate(19.8262 19.7119) scale(2)" fill="#FEFEFE"/>
<path d="M0 2.25575H5.26619C5.1113 0.935872 3.79476 -0.0734444 2.47821 0.00419534C1.16166 0.00419534 0.154888 0.935872 0 2.25575Z" transform="translate(19.8262 19.7119) scale(2)" fill="url(#paint1_linear)"/>
<path d="M1.54888 8.79308C2.01354 5.99805 3.48497 3.90177 5.88574 2.5819C7.04739 1.96078 8.36394 1.57258 9.68049 1.57258C10.3 1.57258 10.997 1.65022 11.6166 1.8055C13.1655 2.11606 14.482 2.89246 15.5662 3.97941C16.573 4.98873 17.27 6.15333 17.6572 7.4732C17.8121 8.17196 17.967 8.79308 17.967 9.49183H19.5159C19.5159 9.4142 19.5159 9.33656 19.5159 9.25891C19.5159 8.94836 19.5159 8.6378 19.4384 8.32724C19.0512 6.07569 18.0444 4.21233 16.4181 2.65954C14.7143 1.10674 12.6234 0.175065 10.2226 0.0197852C9.21582 -0.0578545 8.13161 0.097425 7.12484 0.407984C4.33686 1.18438 2.32332 2.9701 1.00677 5.53221C0.387219 6.77444 0.0774439 8.09432 0 9.49183H1.54888C1.47143 9.25892 1.47143 9.026 1.54888 8.79308Z" transform="translate(5.5752 6.01611) scale(2)" fill="#FEFEFE"/>
<path d="M1.54888 8.79308C2.01354 5.99805 3.48497 3.90177 5.88574 2.5819C7.04739 1.96078 8.36394 1.57258 9.68049 1.57258C10.3 1.57258 10.997 1.65022 11.6166 1.8055C13.1655 2.11606 14.482 2.89246 15.5662 3.97941C16.573 4.98873 17.27 6.15333 17.6572 7.4732C17.8121 8.17196 17.967 8.79308 17.967 9.49183H19.5159C19.5159 9.4142 19.5159 9.33656 19.5159 9.25891C19.5159 8.94836 19.5159 8.6378 19.4384 8.32724C19.0512 6.07569 18.0444 4.21233 16.4181 2.65954C14.7143 1.10674 12.6234 0.175065 10.2226 0.0197852C9.21582 -0.0578545 8.13161 0.097425 7.12484 0.407984C4.33686 1.18438 2.32332 2.9701 1.00677 5.53221C0.387219 6.77444 0.0774439 8.09432 0 9.49183H1.54888C1.47143 9.25892 1.47143 9.026 1.54888 8.79308Z" transform="translate(5.5752 6.01611) scale(2)" fill="url(#paint2_linear)"/>
<path d="M1.70376 25H23.1557C24.0851 25 24.8595 24.2236 24.8595 23.2919V1.70807C24.8595 0.776397 24.0851 0 23.1557 0H1.70376C0.774437 0 0 0.776397 0 1.70807V23.2143C0 24.2236 0.774437 25 1.70376 25Z" transform="scale(2)" fill="#FEFEFE"/>
<path d="M1.70376 25H23.1557C24.0851 25 24.8595 24.2236 24.8595 23.2919V1.70807C24.8595 0.776397 24.0851 0 23.1557 0H1.70376C0.774437 0 0 0.776397 0 1.70807V23.2143C0 24.2236 0.774437 25 1.70376 25Z" transform="scale(2)" fill="url(#paint3_linear)"/>
<path d="M3.36703 3.05335C3.31297 3.51707 3.14176 3.87541 2.85342 4.12835C2.56708 4.37928 2.18562 4.50475 1.70905 4.50475C1.19243 4.50475 0.777932 4.31906 0.465558 3.94767C0.155186 3.57629 0 3.07945 0 2.45713V2.03557C0 1.62805 0.0720864 1.26972 0.216259 0.960571C0.362434 0.651422 0.568681 0.414541 0.835 0.249929C1.10132 0.0833097 1.40969 0 1.76011 0C2.22467 0 2.59711 0.130485 2.87745 0.391455C3.15778 0.650418 3.32098 1.00975 3.36703 1.46946H2.78734C2.73728 1.12016 2.62815 0.867224 2.45995 0.710642C2.29375 0.55406 2.06047 0.475769 1.76011 0.475769C1.39167 0.475769 1.10232 0.612276 0.892069 0.885291C0.683819 1.15831 0.579695 1.54675 0.579695 2.05062V2.4752C0.579695 2.95097 0.678813 3.32938 0.877051 3.61042C1.07529 3.89147 1.35262 4.03199 1.70905 4.03199C2.02943 4.03199 2.27473 3.95972 2.44493 3.81518C2.61714 3.66864 2.73127 3.41469 2.78734 3.05335H3.36703Z" transform="translate(55.5508 29.9912) scale(2)" fill="#FEFEFE"/>
<path d="M3.36703 3.05335C3.31297 3.51707 3.14176 3.87541 2.85342 4.12835C2.56708 4.37928 2.18562 4.50475 1.70905 4.50475C1.19243 4.50475 0.777932 4.31906 0.465558 3.94767C0.155186 3.57629 0 3.07945 0 2.45713V2.03557C0 1.62805 0.0720864 1.26972 0.216259 0.960571C0.362434 0.651422 0.568681 0.414541 0.835 0.249929C1.10132 0.0833097 1.40969 0 1.76011 0C2.22467 0 2.59711 0.130485 2.87745 0.391455C3.15778 0.650418 3.32098 1.00975 3.36703 1.46946H2.78734C2.73728 1.12016 2.62815 0.867224 2.45995 0.710642C2.29375 0.55406 2.06047 0.475769 1.76011 0.475769C1.39167 0.475769 1.10232 0.612276 0.892069 0.885291C0.683819 1.15831 0.579695 1.54675 0.579695 2.05062V2.4752C0.579695 2.95097 0.678813 3.32938 0.877051 3.61042C1.07529 3.89147 1.35262 4.03199 1.70905 4.03199C2.02943 4.03199 2.27473 3.95972 2.44493 3.81518C2.61714 3.66864 2.73127 3.41469 2.78734 3.05335H3.36703Z" transform="translate(55.5508 29.9912) scale(2)" fill="url(#paint4_linear)"/>
<path d="M6.62894 2.41799H4.73367V3.97176H6.93531V4.44452H4.15698V0.0602239H6.90527V0.535993H4.73367V1.94523H6.62894V2.41799Z" transform="translate(55.5508 29.9912) scale(2)" fill="#FEFEFE"/>
<path d="M6.62894 2.41799H4.73367V3.97176H6.93531V4.44452H4.15698V0.0602239H6.90527V0.535993H4.73367V1.94523H6.62894V2.41799Z" transform="translate(55.5508 29.9912) scale(2)" fill="url(#paint5_linear)"/>
<path d="M9.25709 2.67093H8.22986V4.44452H7.65017V0.0602239H9.0979C9.59049 0.0602239 9.96894 0.172642 10.2333 0.397478C10.4996 0.622313 10.6327 0.94953 10.6327 1.37913C10.6327 1.65214 10.5587 1.89003 10.4105 2.09278C10.2643 2.29553 10.0601 2.4471 9.79774 2.54747L10.825 4.40839V4.44452H10.2062L9.25709 2.67093ZM8.22986 2.19817H9.11592C9.40226 2.19817 9.62954 2.1239 9.79774 1.97534C9.96794 1.82679 10.053 1.62805 10.053 1.37913C10.053 1.10812 9.97195 0.900347 9.80975 0.75581C9.64956 0.611272 9.41728 0.538 9.11292 0.535993H8.22986V2.19817Z" transform="translate(55.5508 29.9912) scale(2)" fill="#FEFEFE"/>
<path d="M9.25709 2.67093H8.22986V4.44452H7.65017V0.0602239H9.0979C9.59049 0.0602239 9.96894 0.172642 10.2333 0.397478C10.4996 0.622313 10.6327 0.94953 10.6327 1.37913C10.6327 1.65214 10.5587 1.89003 10.4105 2.09278C10.2643 2.29553 10.0601 2.4471 9.79774 2.54747L10.825 4.40839V4.44452H10.2062L9.25709 2.67093ZM8.22986 2.19817H9.11592C9.40226 2.19817 9.62954 2.1239 9.79774 1.97534C9.96794 1.82679 10.053 1.62805 10.053 1.37913C10.053 1.10812 9.97195 0.900347 9.80975 0.75581C9.64956 0.611272 9.41728 0.538 9.11292 0.535993H8.22986V2.19817Z" transform="translate(55.5508 29.9912) scale(2)" fill="url(#paint6_linear)"/>
<path d="M14.225 0.535993H12.8194V4.44452H12.2457V0.535993H10.843V0.0602239H14.225V0.535993Z" transform="translate(55.5508 29.9912) scale(2)" fill="#FEFEFE"/>
<path d="M14.225 0.535993H12.8194V4.44452H12.2457V0.535993H10.843V0.0602239H14.225V0.535993Z" transform="translate(55.5508 29.9912) scale(2)" fill="url(#paint7_linear)"/>
<path d="M15.4926 4.44452H14.9159V0.0602239H15.4926V4.44452Z" transform="translate(55.5508 29.9912) scale(2)" fill="#FEFEFE"/>
<path d="M15.4926 4.44452H14.9159V0.0602239H15.4926V4.44452Z" transform="translate(55.5508 29.9912) scale(2)" fill="url(#paint8_linear)"/>
<path d="M18.9617 2.50832H17.1265V4.44452H16.5498V0.0602239H19.2591V0.535993H17.1265V2.03557H18.9617V2.50832Z" transform="translate(55.5508 29.9912) scale(2)" fill="#FEFEFE"/>
<path d="M18.9617 2.50832H17.1265V4.44452H16.5498V0.0602239H19.2591V0.535993H17.1265V2.03557H18.9617V2.50832Z" transform="translate(55.5508 29.9912) scale(2)" fill="url(#paint9_linear)"/>
<path d="M20.5686 4.44452H19.992V0.0602239H20.5686V4.44452Z" transform="translate(55.5508 29.9912) scale(2)" fill="#FEFEFE"/>
<path d="M20.5686 4.44452H19.992V0.0602239H20.5686V4.44452Z" transform="translate(55.5508 29.9912) scale(2)" fill="url(#paint10_linear)"/>
<path d="M24.0979 2.41799H22.2026V3.97176H24.4042V4.44452H21.6259V0.0602239H24.3742V0.535993H22.2026V1.94523H24.0979V2.41799Z" transform="translate(55.5508 29.9912) scale(2)" fill="#FEFEFE"/>
<path d="M24.0979 2.41799H22.2026V3.97176H24.4042V4.44452H21.6259V0.0602239H24.3742V0.535993H22.2026V1.94523H24.0979V2.41799Z" transform="translate(55.5508 29.9912) scale(2)" fill="url(#paint11_linear)"/>
<path d="M25.1221 4.44452V0.0602239H26.3566C26.737 0.0602239 27.0734 0.144537 27.3658 0.313164C27.6581 0.481791 27.8834 0.721683 28.0416 1.03284C28.2018 1.344 28.2829 1.70132 28.2849 2.10482V2.38487C28.2849 2.7984 28.2048 3.16075 28.0446 3.47191C27.8864 3.78306 27.6591 4.02195 27.3628 4.18857C27.0684 4.35519 26.725 4.44051 26.3326 4.44452H25.1221ZM25.6988 0.535993V3.97176H26.3055C26.7501 3.97176 27.0955 3.83325 27.3418 3.55622C27.5901 3.27919 27.7142 2.88472 27.7142 2.37282V2.11687C27.7142 1.61902 27.5971 1.23258 27.3628 0.95756C27.1305 0.68053 26.8001 0.540007 26.3716 0.535993H25.6988Z" transform="translate(55.5508 29.9912) scale(2)" fill="#FEFEFE"/>
<path d="M25.1221 4.44452V0.0602239H26.3566C26.737 0.0602239 27.0734 0.144537 27.3658 0.313164C27.6581 0.481791 27.8834 0.721683 28.0416 1.03284C28.2018 1.344 28.2829 1.70132 28.2849 2.10482V2.38487C28.2849 2.7984 28.2048 3.16075 28.0446 3.47191C27.8864 3.78306 27.6591 4.02195 27.3628 4.18857C27.0684 4.35519 26.725 4.44051 26.3326 4.44452H25.1221ZM25.6988 0.535993V3.97176H26.3055C26.7501 3.97176 27.0955 3.83325 27.3418 3.55622C27.5901 3.27919 27.7142 2.88472 27.7142 2.37282V2.11687C27.7142 1.61902 27.5971 1.23258 27.3628 0.95756C27.1305 0.68053 26.8001 0.540007 26.3716 0.535993H25.6988Z" transform="translate(55.5508 29.9912) scale(2)" fill="url(#paint12_linear)"/>
<path d="M31.2615 2.72814V4.44452H30.6848V0.0602239H32.2977C32.7763 0.0602239 33.1507 0.182679 33.421 0.42759C33.6934 0.6725 33.8295 0.996705 33.8295 1.40021C33.8295 1.82579 33.6964 2.15401 33.4301 2.38487C33.1657 2.61372 32.7863 2.72814 32.2917 2.72814H31.2615ZM31.2615 2.25538H32.2977C32.6061 2.25538 32.8423 2.18312 33.0065 2.03858C33.1707 1.89203 33.2528 1.68125 33.2528 1.40623C33.2528 1.14526 33.1707 0.936481 33.0065 0.779899C32.8423 0.623317 32.6171 0.542015 32.3307 0.535993H31.2615V2.25538Z" transform="translate(55.5508 29.9912) scale(2)" fill="#FEFEFE"/>
<path d="M31.2615 2.72814V4.44452H30.6848V0.0602239H32.2977C32.7763 0.0602239 33.1507 0.182679 33.421 0.42759C33.6934 0.6725 33.8295 0.996705 33.8295 1.40021C33.8295 1.82579 33.6964 2.15401 33.4301 2.38487C33.1657 2.61372 32.7863 2.72814 32.2917 2.72814H31.2615ZM31.2615 2.25538H32.2977C32.6061 2.25538 32.8423 2.18312 33.0065 2.03858C33.1707 1.89203 33.2528 1.68125 33.2528 1.40623C33.2528 1.14526 33.1707 0.936481 33.0065 0.779899C32.8423 0.623317 32.6171 0.542015 32.3307 0.535993H31.2615V2.25538Z" transform="translate(55.5508 29.9912) scale(2)" fill="url(#paint13_linear)"/>
<path d="M36.1693 2.67093H35.1421V4.44452H34.5624V0.0602239H36.0101C36.5027 0.0602239 36.8812 0.172642 37.1455 0.397478C37.4118 0.622313 37.545 0.94953 37.545 1.37913C37.545 1.65214 37.4709 1.89003 37.3227 2.09278C37.1765 2.29553 36.9723 2.4471 36.71 2.54747L37.7372 4.40839V4.44452H37.1185L36.1693 2.67093ZM35.1421 2.19817H36.0282C36.3145 2.19817 36.5418 2.1239 36.71 1.97534C36.8802 1.82679 36.9653 1.62805 36.9653 1.37913C36.9653 1.10812 36.8842 0.900347 36.722 0.75581C36.5618 0.611272 36.3295 0.538 36.0252 0.535993H35.1421V2.19817Z" transform="translate(55.5508 29.9912) scale(2)" fill="#FEFEFE"/>
<path d="M36.1693 2.67093H35.1421V4.44452H34.5624V0.0602239H36.0101C36.5027 0.0602239 36.8812 0.172642 37.1455 0.397478C37.4118 0.622313 37.545 0.94953 37.545 1.37913C37.545 1.65214 37.4709 1.89003 37.3227 2.09278C37.1765 2.29553 36.9723 2.4471 36.71 2.54747L37.7372 4.40839V4.44452H37.1185L36.1693 2.67093ZM35.1421 2.19817H36.0282C36.3145 2.19817 36.5418 2.1239 36.71 1.97534C36.8802 1.82679 36.9653 1.62805 36.9653 1.37913C36.9653 1.10812 36.8842 0.900347 36.722 0.75581C36.5618 0.611272 36.3295 0.538 36.0252 0.535993H35.1421V2.19817Z" transform="translate(55.5508 29.9912) scale(2)" fill="url(#paint14_linear)"/>
<path d="M38.9747 4.44452H38.398V0.0602239H38.9747V4.44452Z" transform="translate(55.5508 29.9912) scale(2)" fill="#FEFEFE"/>
<path d="M38.9747 4.44452H38.398V0.0602239H38.9747V4.44452Z" transform="translate(55.5508 29.9912) scale(2)" fill="url(#paint15_linear)"/>
<path d="M41.4797 3.67667L42.7292 0.0602239H43.3599L41.738 4.44452H41.2274L39.6085 0.0602239H40.2362L41.4797 3.67667Z" transform="translate(55.5508 29.9912) scale(2)" fill="#FEFEFE"/>
<path d="M41.4797 3.67667L42.7292 0.0602239H43.3599L41.738 4.44452H41.2274L39.6085 0.0602239H40.2362L41.4797 3.67667Z" transform="translate(55.5508 29.9912) scale(2)" fill="url(#paint16_linear)"/>
<path d="M46.1353 3.30027H44.3031L43.8916 4.44452H43.2969L44.9669 0.0602239H45.4715L47.1445 4.44452H46.5528L46.1353 3.30027ZM44.4773 2.8245H45.9641L45.2192 0.773877L44.4773 2.8245Z" transform="translate(55.5508 29.9912) scale(2)" fill="#FEFEFE"/>
<path d="M46.1353 3.30027H44.3031L43.8916 4.44452H43.2969L44.9669 0.0602239H45.4715L47.1445 4.44452H46.5528L46.1353 3.30027ZM44.4773 2.8245H45.9641L45.2192 0.773877L44.4773 2.8245Z" transform="translate(55.5508 29.9912) scale(2)" fill="url(#paint17_linear)"/>
<path d="M50.914 3.05335C50.8599 3.51707 50.6887 3.87541 50.4004 4.12835C50.114 4.37928 49.7326 4.50475 49.256 4.50475C48.7394 4.50475 48.3249 4.31906 48.0125 3.94767C47.7022 3.57629 47.547 3.07945 47.547 2.45713V2.03557C47.547 1.62805 47.6191 1.26972 47.7632 0.960571C47.9094 0.651422 48.1157 0.414541 48.382 0.249929C48.6483 0.0833097 48.9567 0 49.3071 0C49.7716 0 50.1441 0.130485 50.4244 0.391455C50.7048 0.650418 50.8679 1.00975 50.914 1.46946H50.3343C50.2842 1.12016 50.1751 0.867224 50.0069 0.710642C49.8407 0.55406 49.6074 0.475769 49.3071 0.475769C48.9386 0.475769 48.6493 0.612276 48.439 0.885291C48.2308 1.15831 48.1267 1.54675 48.1267 2.05062V2.4752C48.1267 2.95097 48.2258 3.32938 48.424 3.61042C48.6223 3.89147 48.8996 4.03199 49.256 4.03199C49.5764 4.03199 49.8217 3.95972 49.9919 3.81518C50.1641 3.66864 50.2782 3.41469 50.3343 3.05335H50.914Z" transform="translate(55.5508 29.9912) scale(2)" fill="#FEFEFE"/>
<path d="M50.914 3.05335C50.8599 3.51707 50.6887 3.87541 50.4004 4.12835C50.114 4.37928 49.7326 4.50475 49.256 4.50475C48.7394 4.50475 48.3249 4.31906 48.0125 3.94767C47.7022 3.57629 47.547 3.07945 47.547 2.45713V2.03557C47.547 1.62805 47.6191 1.26972 47.7632 0.960571C47.9094 0.651422 48.1157 0.414541 48.382 0.249929C48.6483 0.0833097 48.9567 0 49.3071 0C49.7716 0 50.1441 0.130485 50.4244 0.391455C50.7048 0.650418 50.8679 1.00975 50.914 1.46946H50.3343C50.2842 1.12016 50.1751 0.867224 50.0069 0.710642C49.8407 0.55406 49.6074 0.475769 49.3071 0.475769C48.9386 0.475769 48.6493 0.612276 48.439 0.885291C48.2308 1.15831 48.1267 1.54675 48.1267 2.05062V2.4752C48.1267 2.95097 48.2258 3.32938 48.424 3.61042C48.6223 3.89147 48.8996 4.03199 49.256 4.03199C49.5764 4.03199 49.8217 3.95972 49.9919 3.81518C50.1641 3.66864 50.2782 3.41469 50.3343 3.05335H50.914Z" transform="translate(55.5508 29.9912) scale(2)" fill="url(#paint18_linear)"/>
<path d="M53.0375 2.26141L54.1789 0.0602239H54.8337L53.3259 2.80944V4.44452H52.7492V2.80944L51.2414 0.0602239H51.9022L53.0375 2.26141Z" transform="translate(55.5508 29.9912) scale(2)" fill="#FEFEFE"/>
<path d="M53.0375 2.26141L54.1789 0.0602239H54.8337L53.3259 2.80944V4.44452H52.7492V2.80944L51.2414 0.0602239H51.9022L53.0375 2.26141Z" transform="translate(55.5508 29.9912) scale(2)" fill="url(#paint19_linear)"/>
<path d="M10.7619 5.88121C10.6845 5.10481 10.4522 4.4837 10.0649 3.86258C9.05817 2.30978 7.27696 1.53338 5.49575 1.84394C4.72131 1.99922 4.02432 2.23214 3.48221 2.77562C2.47544 3.55202 1.93333 4.63897 1.77844 5.95885C1.701 7.43401 2.16566 8.5986 3.17243 9.60792C4.41154 10.8502 6.42508 11.2384 8.0514 10.5396C8.51607 10.3067 8.90329 10.0738 9.2905 9.7632C9.44539 9.60792 9.52284 9.60792 9.67772 9.7632C9.9875 10.0738 10.2198 10.3843 10.607 10.6172C10.7619 10.7725 10.7619 10.9278 10.607 11.0054C8.67095 12.6359 6.50252 13.1017 4.10176 12.2477C1.85589 11.3936 0.461898 9.68556 0.0746783 7.27873C-0.157653 5.72593 0.15212 4.32842 1.004 3.00854C2.08822 1.30047 3.6371 0.291149 5.65064 0.0582298C6.73485 -0.0970497 7.74162 0.0582298 8.74839 0.524068C10.1424 1.14519 11.2266 2.07686 11.9236 3.39674C12.3108 4.17314 12.5431 4.94953 12.6206 5.80357C12.6206 5.88121 12.6206 5.95885 12.6206 5.95885L10.7619 5.88121Z" transform="translate(12.3965 12.4609) scale(2)" fill="white"/>
<path d="M5.26619 2.26637H0C0.232332 1.02413 1.23911 0.0924535 2.47821 0.0148138C3.79476 -0.140466 5.03386 0.946491 5.26619 2.26637Z" transform="translate(19.8262 19.6909) scale(2)" fill="white"/>
<path d="M1.08422 5.53221C2.40076 2.9701 4.49175 1.26202 7.20228 0.407984C8.20905 0.097425 9.29327 -0.0578545 10.3 0.0197852C12.7008 0.175065 14.7918 1.0291 16.4956 2.65954C18.1219 4.21233 19.1286 6.07569 19.5159 8.32724C19.5933 8.6378 19.5933 8.94836 19.5933 9.25892C19.5933 9.33656 19.5933 9.4142 19.5933 9.49184H18.0444C18.0444 8.79308 17.8895 8.17196 17.7347 7.55084C17.3474 6.23097 16.6504 5.06637 15.6437 4.05705C14.5595 2.9701 13.1655 2.1937 11.694 1.88314C11.0745 1.72786 10.3775 1.65022 9.75794 1.65022C8.44139 1.65022 7.20228 1.96078 5.96318 2.65954C3.56242 3.97941 2.09099 6.07569 1.62632 8.87072C1.54888 9.10364 1.54888 9.33656 1.54888 9.56948H0C0.0774439 8.09432 0.464665 6.77444 1.08422 5.53221Z" transform="translate(5.2666 6.01611) scale(2)" fill="white"/>
<path d="M5.88574 5.97826C5.73085 5.82298 5.80829 5.74534 5.96318 5.6677C6.42784 5.43478 6.89251 5.12422 7.12484 4.65838C7.51206 4.03727 7.5895 3.41615 7.51206 2.71739C7.43461 1.78571 7.04739 1.08696 6.27296 0.543478C5.57596 0.0776398 4.72408 0 3.94964 0C2.78798 0 1.62632 0 0.38722 0C0 0 0 0 0 0.388199C0 1.78571 0 3.10559 0 4.50311C0 5.90062 0 7.2205 0 8.61801C0 9.00621 0 9.00621 0.38722 9.00621C0.851883 9.00621 1.31654 9.00621 1.78121 9.00621C2.01354 9.00621 2.09098 8.92857 2.09098 8.69565C2.09098 7.91925 2.09098 7.2205 2.09098 6.4441C2.09098 6.21118 2.16843 6.13354 2.40076 6.13354C2.71054 6.13354 3.02031 6.13354 3.33008 6.13354C3.48497 6.13354 3.63986 6.21118 3.7173 6.36646C4.25941 7.14286 4.80152 7.99689 5.34363 8.77329C5.42107 8.92857 5.57596 9.00621 5.73085 9.00621C6.3504 9.00621 6.89251 9.00621 7.51206 9.00621C7.5895 9.00621 7.74439 9.08385 7.74439 8.92857C7.82184 8.85093 7.66695 8.77329 7.66695 8.69565C7.12484 7.76397 6.50529 6.8323 5.88574 5.97826ZM4.4143 4.27019C3.71731 4.34783 3.02031 4.27019 2.40076 4.34783C2.24587 4.34783 2.16843 4.27019 2.16843 4.11491C2.16843 3.72671 2.16843 3.41615 2.16843 3.02795C2.16843 2.71739 2.16843 2.32919 2.16843 2.01863C2.16843 1.94099 2.16843 1.78571 2.32332 1.78571C3.02031 1.78571 3.79475 1.70807 4.49174 1.86335C5.18874 1.94099 5.57596 2.40683 5.57596 3.10559C5.57596 3.72671 5.1113 4.19255 4.4143 4.27019Z" transform="translate(69.7002 7.6084) scale(2)" fill="#FEFEFE"/>
<path d="M5.88574 5.97826C5.73085 5.82298 5.80829 5.74534 5.96318 5.6677C6.42784 5.43478 6.89251 5.12422 7.12484 4.65838C7.51206 4.03727 7.5895 3.41615 7.51206 2.71739C7.43461 1.78571 7.04739 1.08696 6.27296 0.543478C5.57596 0.0776398 4.72408 0 3.94964 0C2.78798 0 1.62632 0 0.38722 0C0 0 0 0 0 0.388199C0 1.78571 0 3.10559 0 4.50311C0 5.90062 0 7.2205 0 8.61801C0 9.00621 0 9.00621 0.38722 9.00621C0.851883 9.00621 1.31654 9.00621 1.78121 9.00621C2.01354 9.00621 2.09098 8.92857 2.09098 8.69565C2.09098 7.91925 2.09098 7.2205 2.09098 6.4441C2.09098 6.21118 2.16843 6.13354 2.40076 6.13354C2.71054 6.13354 3.02031 6.13354 3.33008 6.13354C3.48497 6.13354 3.63986 6.21118 3.7173 6.36646C4.25941 7.14286 4.80152 7.99689 5.34363 8.77329C5.42107 8.92857 5.57596 9.00621 5.73085 9.00621C6.3504 9.00621 6.89251 9.00621 7.51206 9.00621C7.5895 9.00621 7.74439 9.08385 7.74439 8.92857C7.82184 8.85093 7.66695 8.77329 7.66695 8.69565C7.12484 7.76397 6.50529 6.8323 5.88574 5.97826ZM4.4143 4.27019C3.71731 4.34783 3.02031 4.27019 2.40076 4.34783C2.24587 4.34783 2.16843 4.27019 2.16843 4.11491C2.16843 3.72671 2.16843 3.41615 2.16843 3.02795C2.16843 2.71739 2.16843 2.32919 2.16843 2.01863C2.16843 1.94099 2.16843 1.78571 2.32332 1.78571C3.02031 1.78571 3.79475 1.70807 4.49174 1.86335C5.18874 1.94099 5.57596 2.40683 5.57596 3.10559C5.57596 3.72671 5.1113 4.19255 4.4143 4.27019Z" transform="translate(69.7002 7.6084) scale(2)" fill="url(#paint20_linear)"/>
<path d="M7.0474 0C5.96318 0 4.80152 0 3.7173 0C2.55565 0 1.47143 0 0.309771 0C0.0774392 0 0 0.0776397 0 0.310559C0 0.776397 0 1.1646 0 1.63043C0 1.86335 0.0774392 1.94099 0.309771 1.94099C1.00677 1.94099 1.70377 1.94099 2.32332 1.94099C2.71054 1.94099 2.71054 1.94099 2.71054 2.32919C2.71054 4.42547 2.71054 6.59938 2.71054 8.69565C2.71054 8.92857 2.78798 9.08385 3.02031 9.08385C3.48497 9.08385 3.94964 9.08385 4.33686 9.08385C4.72408 9.08385 4.72408 9.08385 4.72408 8.69565C4.72408 6.59938 4.72408 4.42547 4.72408 2.32919C4.72408 2.09627 4.80152 1.94099 5.03385 2.01863C5.73085 2.01863 6.42784 2.01863 7.12484 2.01863C7.35717 2.01863 7.35717 1.94099 7.35717 1.78571C7.35717 1.31988 7.35717 0.931677 7.35717 0.465838C7.43462 0.0776397 7.35717 0 7.0474 0Z" transform="translate(53.2822 7.45312) scale(2)" fill="#FEFEFE"/>
<path d="M7.0474 0C5.96318 0 4.80152 0 3.7173 0C2.55565 0 1.47143 0 0.309771 0C0.0774392 0 0 0.0776397 0 0.310559C0 0.776397 0 1.1646 0 1.63043C0 1.86335 0.0774392 1.94099 0.309771 1.94099C1.00677 1.94099 1.70377 1.94099 2.32332 1.94099C2.71054 1.94099 2.71054 1.94099 2.71054 2.32919C2.71054 4.42547 2.71054 6.59938 2.71054 8.69565C2.71054 8.92857 2.78798 9.08385 3.02031 9.08385C3.48497 9.08385 3.94964 9.08385 4.33686 9.08385C4.72408 9.08385 4.72408 9.08385 4.72408 8.69565C4.72408 6.59938 4.72408 4.42547 4.72408 2.32919C4.72408 2.09627 4.80152 1.94099 5.03385 2.01863C5.73085 2.01863 6.42784 2.01863 7.12484 2.01863C7.35717 2.01863 7.35717 1.94099 7.35717 1.78571C7.35717 1.31988 7.35717 0.931677 7.35717 0.465838C7.43462 0.0776397 7.35717 0 7.0474 0Z" transform="translate(53.2822 7.45312) scale(2)" fill="url(#paint21_linear)"/>
<path d="M7.89928 0.310559C7.89928 0.0776397 7.82183 0 7.5895 0C7.12484 0 6.66018 0 6.19551 0C5.80829 0 5.80829 0 5.80829 0.388199C5.80829 1.94099 5.80829 3.41615 5.80829 4.96894C5.80829 5.20186 5.80829 5.51242 5.73084 5.74534C5.6534 6.4441 5.34363 6.98758 4.64664 7.14286C3.8722 7.37578 3.1752 7.29814 2.55565 6.75466C2.16843 6.28882 2.01354 5.74534 2.01354 5.20186C2.01354 3.57143 2.01354 1.94099 2.01354 0.388199C2.01354 0.15528 1.9361 0.0776397 1.70376 0.0776397C1.2391 0.0776397 0.774434 0.0776397 0.309771 0.0776397C0.0774392 0.0776397 0 0.15528 0 0.388199C0 1.24224 0 2.17391 0 3.10559C0 3.88199 0 4.65839 0 5.43478C0 5.74534 -1.18285e-06 5.97826 0.0774427 6.28882C0.309774 7.53106 0.929325 8.46273 2.09098 9.00621C2.86542 9.31677 3.7173 9.31677 4.56919 9.23913C5.26618 9.16149 5.88573 8.92857 6.42784 8.54037C7.35717 7.84162 7.74439 6.8323 7.74439 5.6677C7.89928 3.80435 7.89928 2.01863 7.89928 0.310559Z" transform="translate(87.3584 7.45312) scale(2)" fill="#FEFEFE"/>
<path d="M7.89928 0.310559C7.89928 0.0776397 7.82183 0 7.5895 0C7.12484 0 6.66018 0 6.19551 0C5.80829 0 5.80829 0 5.80829 0.388199C5.80829 1.94099 5.80829 3.41615 5.80829 4.96894C5.80829 5.20186 5.80829 5.51242 5.73084 5.74534C5.6534 6.4441 5.34363 6.98758 4.64664 7.14286C3.8722 7.37578 3.1752 7.29814 2.55565 6.75466C2.16843 6.28882 2.01354 5.74534 2.01354 5.20186C2.01354 3.57143 2.01354 1.94099 2.01354 0.388199C2.01354 0.15528 1.9361 0.0776397 1.70376 0.0776397C1.2391 0.0776397 0.774434 0.0776397 0.309771 0.0776397C0.0774392 0.0776397 0 0.15528 0 0.388199C0 1.24224 0 2.17391 0 3.10559C0 3.88199 0 4.65839 0 5.43478C0 5.74534 -1.18285e-06 5.97826 0.0774427 6.28882C0.309774 7.53106 0.929325 8.46273 2.09098 9.00621C2.86542 9.31677 3.7173 9.31677 4.56919 9.23913C5.26618 9.16149 5.88573 8.92857 6.42784 8.54037C7.35717 7.84162 7.74439 6.8323 7.74439 5.6677C7.89928 3.80435 7.89928 2.01863 7.89928 0.310559Z" transform="translate(87.3584 7.45312) scale(2)" fill="url(#paint22_linear)"/>
<path d="M6.52398 2.36182C6.13676 1.04194 5.28488 0.265544 3.96833 0.0326245C2.65178 -0.122655 1.49012 0.265544 0.63824 1.43014C0.0961329 2.20654 -0.0587455 3.13821 0.0186984 4.06989C0.173586 5.23449 0.715687 6.08852 1.64501 6.70964C2.41945 7.17548 3.27134 7.25312 4.20067 7.17548C4.9751 7.0202 5.6721 6.70964 6.21421 6.16616C6.3691 6.01088 6.3691 5.85561 6.21421 5.70033C5.90444 5.46741 5.6721 5.23449 5.43977 5.00157C5.28488 4.84629 5.20743 4.84629 5.12999 5.00157C4.82021 5.31213 4.433 5.46741 4.04578 5.54505C3.1939 5.70033 2.41945 5.31213 2.18712 4.61337C2.10967 4.38045 2.18713 4.30281 2.34202 4.30281C3.03901 4.30281 3.736 4.30281 4.433 4.30281C5.12999 4.30281 5.82698 4.30281 6.44653 4.30281C6.67887 4.30281 6.75632 4.22517 6.75632 3.99225C6.75632 3.44877 6.67887 2.82766 6.52398 2.36182ZM4.58788 2.98293C4.20067 2.98293 3.736 2.98293 3.34878 2.98293C2.96156 2.98293 2.57434 2.98293 2.18712 2.98293C2.10967 2.98293 1.95479 2.98293 2.03223 2.82766C2.26456 1.89598 3.039 1.43014 3.736 1.66306C4.35555 1.81834 4.66533 2.36182 4.74277 2.82766C4.74277 2.98293 4.66533 2.98293 4.58788 2.98293Z" transform="translate(133.477 11.4253) scale(2)" fill="#FEFEFE"/>
<path d="M6.52398 2.36182C6.13676 1.04194 5.28488 0.265544 3.96833 0.0326245C2.65178 -0.122655 1.49012 0.265544 0.63824 1.43014C0.0961329 2.20654 -0.0587455 3.13821 0.0186984 4.06989C0.173586 5.23449 0.715687 6.08852 1.64501 6.70964C2.41945 7.17548 3.27134 7.25312 4.20067 7.17548C4.9751 7.0202 5.6721 6.70964 6.21421 6.16616C6.3691 6.01088 6.3691 5.85561 6.21421 5.70033C5.90444 5.46741 5.6721 5.23449 5.43977 5.00157C5.28488 4.84629 5.20743 4.84629 5.12999 5.00157C4.82021 5.31213 4.433 5.46741 4.04578 5.54505C3.1939 5.70033 2.41945 5.31213 2.18712 4.61337C2.10967 4.38045 2.18713 4.30281 2.34202 4.30281C3.03901 4.30281 3.736 4.30281 4.433 4.30281C5.12999 4.30281 5.82698 4.30281 6.44653 4.30281C6.67887 4.30281 6.75632 4.22517 6.75632 3.99225C6.75632 3.44877 6.67887 2.82766 6.52398 2.36182ZM4.58788 2.98293C4.20067 2.98293 3.736 2.98293 3.34878 2.98293C2.96156 2.98293 2.57434 2.98293 2.18712 2.98293C2.10967 2.98293 1.95479 2.98293 2.03223 2.82766C2.26456 1.89598 3.039 1.43014 3.736 1.66306C4.35555 1.81834 4.66533 2.36182 4.74277 2.82766C4.74277 2.98293 4.66533 2.98293 4.58788 2.98293Z" transform="translate(133.477 11.4253) scale(2)" fill="url(#paint23_linear)"/>
<path d="M5.76136 4.30901C5.21925 3.99845 4.67714 3.84317 4.13503 3.68789C3.67037 3.53261 3.2057 3.45497 2.74104 3.22205C2.5087 3.06677 2.27638 2.91149 2.27638 2.60093C2.27638 2.29037 2.50871 2.05745 2.81848 1.97981C3.12826 1.82453 3.43804 1.82453 3.82526 1.90217C4.44481 1.97981 4.98691 2.29037 5.52902 2.60093C5.68391 2.67857 5.76135 2.67857 5.83879 2.52329C6.07112 2.13509 6.30346 1.74689 6.61323 1.43634C6.76812 1.20342 6.69068 1.12578 6.53579 0.970497C5.45158 0.194099 4.21248 -0.11646 2.81848 0.0388199C1.65683 0.194099 0.417721 0.970497 0.262833 2.44565C0.185389 3.29969 0.340282 4.15373 1.11472 4.6972C1.57938 5.00776 2.19893 5.24068 2.74104 5.39596C3.36059 5.55124 3.9027 5.70652 4.52225 5.93944C4.90947 6.09472 4.98692 6.32764 4.98692 6.71584C4.98692 7.0264 4.75459 7.25932 4.44481 7.33696C4.05759 7.49224 3.67037 7.49224 3.28315 7.4146C2.58616 7.33696 1.88916 6.94876 1.34706 6.48292C1.19217 6.32764 1.11472 6.40528 0.95983 6.56056C0.650054 6.87112 0.417723 7.25932 0.107948 7.56988C-0.04694 7.72515 -0.0469412 7.88043 0.185391 7.95807C1.26961 8.81211 2.43126 9.20031 3.74781 9.20031C3.9027 9.20031 3.98014 9.20031 4.13503 9.20031C4.67714 9.12267 5.21924 9.04503 5.68391 8.81211C6.61323 8.26863 7.0779 7.49224 7.0779 6.40528C7.0779 5.4736 6.69068 4.77484 5.76136 4.30901Z" transform="translate(105.264 7.22021) scale(2)" fill="#FEFEFE"/>
<path d="M5.76136 4.30901C5.21925 3.99845 4.67714 3.84317 4.13503 3.68789C3.67037 3.53261 3.2057 3.45497 2.74104 3.22205C2.5087 3.06677 2.27638 2.91149 2.27638 2.60093C2.27638 2.29037 2.50871 2.05745 2.81848 1.97981C3.12826 1.82453 3.43804 1.82453 3.82526 1.90217C4.44481 1.97981 4.98691 2.29037 5.52902 2.60093C5.68391 2.67857 5.76135 2.67857 5.83879 2.52329C6.07112 2.13509 6.30346 1.74689 6.61323 1.43634C6.76812 1.20342 6.69068 1.12578 6.53579 0.970497C5.45158 0.194099 4.21248 -0.11646 2.81848 0.0388199C1.65683 0.194099 0.417721 0.970497 0.262833 2.44565C0.185389 3.29969 0.340282 4.15373 1.11472 4.6972C1.57938 5.00776 2.19893 5.24068 2.74104 5.39596C3.36059 5.55124 3.9027 5.70652 4.52225 5.93944C4.90947 6.09472 4.98692 6.32764 4.98692 6.71584C4.98692 7.0264 4.75459 7.25932 4.44481 7.33696C4.05759 7.49224 3.67037 7.49224 3.28315 7.4146C2.58616 7.33696 1.88916 6.94876 1.34706 6.48292C1.19217 6.32764 1.11472 6.40528 0.95983 6.56056C0.650054 6.87112 0.417723 7.25932 0.107948 7.56988C-0.04694 7.72515 -0.0469412 7.88043 0.185391 7.95807C1.26961 8.81211 2.43126 9.20031 3.74781 9.20031C3.9027 9.20031 3.98014 9.20031 4.13503 9.20031C4.67714 9.12267 5.21924 9.04503 5.68391 8.81211C6.61323 8.26863 7.0779 7.49224 7.0779 6.40528C7.0779 5.4736 6.69068 4.77484 5.76136 4.30901Z" transform="translate(105.264 7.22021) scale(2)" fill="url(#paint24_linear)"/>
<path d="M7.43461 1.63043C7.43461 1.1646 7.43461 0.776398 7.43461 0.310559C7.43461 0.0776397 7.35717 0 7.12484 0C5.96318 0 4.87897 0 3.71731 0C2.55565 0 1.47143 0 0.309771 0C0.0774392 0 0 0.0776397 0 0.310559C0 0.698758 0 1.1646 0 1.5528C0 1.86335 -4.73142e-06 1.86335 0.309771 1.86335C1.00677 1.86335 1.62632 1.86335 2.32332 1.86335C2.71054 1.86335 2.71054 1.86335 2.71054 2.25155C2.71054 4.42547 2.71054 6.52174 2.71054 8.69565C2.71054 8.92857 2.78798 9.00621 3.02031 9.00621C3.40753 9.00621 3.87219 9.00621 4.33685 9.00621C4.72407 9.00621 4.72407 9.00621 4.72407 8.61801C4.72407 6.52174 4.72407 4.34783 4.72407 2.25155C4.72407 2.01863 4.80152 1.94099 5.03385 1.94099C5.73085 1.94099 6.42784 1.94099 7.12484 1.94099C7.35717 1.94099 7.43461 1.86335 7.43461 1.63043Z" transform="translate(119.884 7.45312) scale(2)" fill="#FEFEFE"/>
<path d="M7.43461 1.63043C7.43461 1.1646 7.43461 0.776398 7.43461 0.310559C7.43461 0.0776397 7.35717 0 7.12484 0C5.96318 0 4.87897 0 3.71731 0C2.55565 0 1.47143 0 0.309771 0C0.0774392 0 0 0.0776397 0 0.310559C0 0.698758 0 1.1646 0 1.5528C0 1.86335 -4.73142e-06 1.86335 0.309771 1.86335C1.00677 1.86335 1.62632 1.86335 2.32332 1.86335C2.71054 1.86335 2.71054 1.86335 2.71054 2.25155C2.71054 4.42547 2.71054 6.52174 2.71054 8.69565C2.71054 8.92857 2.78798 9.00621 3.02031 9.00621C3.40753 9.00621 3.87219 9.00621 4.33685 9.00621C4.72407 9.00621 4.72407 9.00621 4.72407 8.61801C4.72407 6.52174 4.72407 4.34783 4.72407 2.25155C4.72407 2.01863 4.80152 1.94099 5.03385 1.94099C5.73085 1.94099 6.42784 1.94099 7.12484 1.94099C7.35717 1.94099 7.43461 1.86335 7.43461 1.63043Z" transform="translate(119.884 7.45312) scale(2)" fill="url(#paint25_linear)"/>
<defs>
<linearGradient id="paint0_linear" x2="1" gradientUnits="userSpaceOnUse" gradientTransform="translate(0.168353 -1377.11) scale(12.3748 2773.63)">
<stop stop-color="#33999F"/>
<stop offset="1" stop-color="#083482"/>
</linearGradient>
<linearGradient id="paint1_linear" x2="1" gradientUnits="userSpaceOnUse" gradientTransform="translate(0.0706824 -245.309) scale(5.1955 494.077)">
<stop stop-color="#33999F"/>
<stop offset="1" stop-color="#083482"/>
</linearGradient>
<linearGradient id="paint2_linear" x2="1" gradientUnits="userSpaceOnUse" gradientTransform="translate(0.261941 -1032.22) scale(19.2539 2079)">
<stop stop-color="#33999F"/>
<stop offset="1" stop-color="#083482"/>
</linearGradient>
<linearGradient id="paint3_linear" x2="1" gradientUnits="userSpaceOnUse" gradientTransform="translate(0.333663 -2718.71) scale(24.5258 5475.75)">
<stop stop-color="#33999F"/>
<stop offset="1" stop-color="#083482"/>
</linearGradient>
<linearGradient id="paint4_linear" x2="1" gradientUnits="userSpaceOnUse" gradientTransform="translate(0.735974 -489.884) scale(54.0977 986.675)">
<stop stop-color="#33999F"/>
<stop offset="1" stop-color="#083482"/>
</linearGradient>
<linearGradient id="paint5_linear" x2="1" gradientUnits="userSpaceOnUse" gradientTransform="translate(0.735974 -489.884) scale(54.0977 986.675)">
<stop stop-color="#33999F"/>
<stop offset="1" stop-color="#083482"/>
</linearGradient>
<linearGradient id="paint6_linear" x2="1" gradientUnits="userSpaceOnUse" gradientTransform="translate(0.735974 -489.884) scale(54.0977 986.675)">
<stop stop-color="#33999F"/>
<stop offset="1" stop-color="#083482"/>
</linearGradient>
<linearGradient id="paint7_linear" x2="1" gradientUnits="userSpaceOnUse" gradientTransform="translate(0.735974 -489.884) scale(54.0977 986.675)">
<stop stop-color="#33999F"/>
<stop offset="1" stop-color="#083482"/>
</linearGradient>
<linearGradient id="paint8_linear" x2="1" gradientUnits="userSpaceOnUse" gradientTransform="translate(0.735974 -489.884) scale(54.0977 986.675)">
<stop stop-color="#33999F"/>
<stop offset="1" stop-color="#083482"/>
</linearGradient>
<linearGradient id="paint9_linear" x2="1" gradientUnits="userSpaceOnUse" gradientTransform="translate(0.735974 -489.884) scale(54.0977 986.675)">
<stop stop-color="#33999F"/>
<stop offset="1" stop-color="#083482"/>
</linearGradient>
<linearGradient id="paint10_linear" x2="1" gradientUnits="userSpaceOnUse" gradientTransform="translate(0.735974 -489.884) scale(54.0977 986.675)">
<stop stop-color="#33999F"/>
<stop offset="1" stop-color="#083482"/>
</linearGradient>
<linearGradient id="paint11_linear" x2="1" gradientUnits="userSpaceOnUse" gradientTransform="translate(0.735974 -489.884) scale(54.0977 986.675)">
<stop stop-color="#33999F"/>
<stop offset="1" stop-color="#083482"/>
</linearGradient>
<linearGradient id="paint12_linear" x2="1" gradientUnits="userSpaceOnUse" gradientTransform="translate(0.735974 -489.884) scale(54.0977 986.675)">
<stop stop-color="#33999F"/>
<stop offset="1" stop-color="#083482"/>
</linearGradient>
<linearGradient id="paint13_linear" x2="1" gradientUnits="userSpaceOnUse" gradientTransform="translate(0.735974 -489.884) scale(54.0977 986.675)">
<stop stop-color="#33999F"/>
<stop offset="1" stop-color="#083482"/>
</linearGradient>
<linearGradient id="paint14_linear" x2="1" gradientUnits="userSpaceOnUse" gradientTransform="translate(0.735974 -489.884) scale(54.0977 986.675)">
<stop stop-color="#33999F"/>
<stop offset="1" stop-color="#083482"/>
</linearGradient>
<linearGradient id="paint15_linear" x2="1" gradientUnits="userSpaceOnUse" gradientTransform="translate(0.735974 -489.884) scale(54.0977 986.675)">
<stop stop-color="#33999F"/>
<stop offset="1" stop-color="#083482"/>
</linearGradient>
<linearGradient id="paint16_linear" x2="1" gradientUnits="userSpaceOnUse" gradientTransform="translate(0.735974 -489.884) scale(54.0977 986.675)">
<stop stop-color="#33999F"/>
<stop offset="1" stop-color="#083482"/>
</linearGradient>
<linearGradient id="paint17_linear" x2="1" gradientUnits="userSpaceOnUse" gradientTransform="translate(0.735974 -489.884) scale(54.0977 986.675)">
<stop stop-color="#33999F"/>
<stop offset="1" stop-color="#083482"/>
</linearGradient>
<linearGradient id="paint18_linear" x2="1" gradientUnits="userSpaceOnUse" gradientTransform="translate(0.735974 -489.884) scale(54.0977 986.675)">
<stop stop-color="#33999F"/>
<stop offset="1" stop-color="#083482"/>
</linearGradient>
<linearGradient id="paint19_linear" x2="1" gradientUnits="userSpaceOnUse" gradientTransform="translate(0.735974 -489.884) scale(54.0977 986.675)">
<stop stop-color="#33999F"/>
<stop offset="1" stop-color="#083482"/>
</linearGradient>
<linearGradient id="paint20_linear" x2="1" gradientUnits="userSpaceOnUse" gradientTransform="translate(0.104236 -981.521) scale(7.66183 1976.88)">
<stop stop-color="#33999F"/>
<stop offset="1" stop-color="#083482"/>
</linearGradient>
<linearGradient id="paint21_linear" x2="1" gradientUnits="userSpaceOnUse" gradientTransform="translate(0.0991224 -987.854) scale(7.28598 1989.64)">
<stop stop-color="#33999F"/>
<stop offset="1" stop-color="#083482"/>
</linearGradient>
<linearGradient id="paint22_linear" x2="1" gradientUnits="userSpaceOnUse" gradientTransform="translate(0.106024 -1009.43) scale(7.79325 2033.09)">
<stop stop-color="#33999F"/>
<stop offset="1" stop-color="#083482"/>
</linearGradient>
<linearGradient id="paint23_linear" x2="1" gradientUnits="userSpaceOnUse" gradientTransform="translate(0.0906829 -783.174) scale(6.66563 1577.39)">
<stop stop-color="#33999F"/>
<stop offset="1" stop-color="#083482"/>
</linearGradient>
<linearGradient id="paint24_linear" x2="1" gradientUnits="userSpaceOnUse" gradientTransform="translate(0.0949991 -1000.52) scale(6.98289 2015.14)">
<stop stop-color="#33999F"/>
<stop offset="1" stop-color="#083482"/>
</linearGradient>
<linearGradient id="paint25_linear" x2="1" gradientUnits="userSpaceOnUse" gradientTransform="translate(0.0997868 -979.41) scale(7.33481 1972.63)">
<stop stop-color="#33999F"/>
<stop offset="1" stop-color="#083482"/>
</linearGradient>
</defs>
</svg>
