<svg width="76" height="24" viewBox="0 0 76 24" fill="none" xmlns="http://www.w3.org/2000/svg">
<path d="M1.93122 0L0 11.6259H3.08868L5.02149 0H1.93122Z" transform="translate(26.5684 0.399414) scale(2)" fill="#083482"/>
<path d="M1.93122 0L0 11.6259H3.08868L5.02149 0H1.93122Z" transform="translate(26.5684 0.399414) scale(2)" fill="url(#paint0_linear)"/>
<path d="M7.62638 0.00244503L4.60125 7.931L4.27871 6.73385C3.68211 5.29141 1.98842 3.21983 0 1.91429L2.76615 11.6096L6.03437 11.6039L10.8986 0L7.62638 0.00244503Z" transform="translate(6.13672 0.419922) scale(2)" fill="#083482"/>
<path d="M7.62638 0.00244503L4.60125 7.931L4.27871 6.73385C3.68211 5.29141 1.98842 3.21983 0 1.91429L2.76615 11.6096L6.03437 11.6039L10.8986 0L7.62638 0.00244503Z" transform="translate(6.13672 0.419922) scale(2)" fill="url(#paint1_linear)"/>
<path d="M6.17419 0.944517C5.99465 0.236333 5.47431 0.0252632 4.82845 0H0.0397207L0 0.231443C3.7266 1.15885 6.19246 3.39341 7.21566 6.08027L6.17419 0.944517Z" transform="translate(0 0.200195) scale(2)" fill="#083482"/>
<path d="M6.17419 0.944517C5.99465 0.236333 5.47431 0.0252632 4.82845 0H0.0397207L0 0.231443C3.7266 1.15885 6.19246 3.39341 7.21566 6.08027L6.17419 0.944517Z" transform="translate(0 0.200195) scale(2)" fill="url(#paint2_linear)"/>
<path d="M6.25998 2.42852C7.27048 2.41222 8.00293 2.63878 8.57173 2.87348L8.85056 3.00795L9.26843 0.488149C8.65673 0.252631 7.69787 0 6.50148 0C3.44935 0 1.29807 1.57691 1.28139 3.83674C1.26153 5.50655 2.81382 6.43885 3.98637 6.99545C5.18991 7.56591 5.59347 7.92856 5.58791 8.4379C5.57838 9.21616 4.62826 9.57311 3.7409 9.57311C2.50399 9.57311 1.84701 9.3979 0.832546 8.96435L0.434545 8.77854L0 11.3806C0.722917 11.7058 2.05674 11.9853 3.4414 12C6.68817 12 8.79814 10.4418 8.82038 8.02716C8.83388 6.70615 8.01008 5.69806 6.22503 4.8709C5.14463 4.33141 4.48367 3.97283 4.49003 3.42845C4.49003 2.94519 5.05089 2.42852 6.25998 2.42852Z" transform="translate(36.6113) scale(2)" fill="#083482"/>
<path d="M6.25998 2.42852C7.27048 2.41222 8.00293 2.63878 8.57173 2.87348L8.85056 3.00795L9.26843 0.488149C8.65673 0.252631 7.69787 0 6.50148 0C3.44935 0 1.29807 1.57691 1.28139 3.83674C1.26153 5.50655 2.81382 6.43885 3.98637 6.99545C5.18991 7.56591 5.59347 7.92856 5.58791 8.4379C5.57838 9.21616 4.62826 9.57311 3.7409 9.57311C2.50399 9.57311 1.84701 9.3979 0.832546 8.96435L0.434545 8.77854L0 11.3806C0.722917 11.7058 2.05674 11.9853 3.4414 12C6.68817 12 8.79814 10.4418 8.82038 8.02716C8.83388 6.70615 8.01008 5.69806 6.22503 4.8709C5.14463 4.33141 4.48367 3.97283 4.49003 3.42845C4.49003 2.94519 5.05089 2.42852 6.25998 2.42852Z" transform="translate(36.6113) scale(2)" fill="url(#paint3_linear)"/>
<path d="M8.59079 0H6.20437C5.46318 0 4.91186 0.206995 4.58615 0.96489L0 11.6194H3.24359C3.24359 11.6194 3.77267 10.1868 3.89263 9.87301C4.24773 9.87301 7.39917 9.8779 7.84801 9.8779C7.94017 10.2837 8.22457 11.6194 8.22457 11.6194H11.09L8.59079 0ZM4.78158 7.49338C5.03579 6.82594 6.01213 4.24421 6.01213 4.24421C5.99544 4.27599 6.26395 3.57188 6.42363 3.13426L6.63177 4.13664C6.63177 4.13664 7.22361 6.91233 7.34754 7.49338H4.78158Z" transform="translate(53.8203 0.425781) scale(2)" fill="#083482"/>
<path d="M8.59079 0H6.20437C5.46318 0 4.91186 0.206995 4.58615 0.96489L0 11.6194H3.24359C3.24359 11.6194 3.77267 10.1868 3.89263 9.87301C4.24773 9.87301 7.39917 9.8779 7.84801 9.8779C7.94017 10.2837 8.22457 11.6194 8.22457 11.6194H11.09L8.59079 0ZM4.78158 7.49338C5.03579 6.82594 6.01213 4.24421 6.01213 4.24421C5.99544 4.27599 6.26395 3.57188 6.42363 3.13426L6.63177 4.13664C6.63177 4.13664 7.22361 6.91233 7.34754 7.49338H4.78158Z" transform="translate(53.8203 0.425781) scale(2)" fill="url(#paint4_linear)"/>
<defs>
<linearGradient id="paint0_linear" x2="1" gradientUnits="userSpaceOnUse" gradientTransform="matrix(4.90605 -4.39132 1.8967 31.1076 -0.750461 -8.08225)">
<stop stop-color="#4998A7"/>
<stop offset="1" stop-color="#093783" stop-opacity="0.85"/>
</linearGradient>
<linearGradient id="paint1_linear" x2="1" gradientUnits="userSpaceOnUse" gradientTransform="matrix(10.648 -4.38516 4.11658 31.064 -1.62879 -8.07092)">
<stop stop-color="#4998A7"/>
<stop offset="1" stop-color="#093783" stop-opacity="0.85"/>
</linearGradient>
<linearGradient id="paint2_linear" x2="1" gradientUnits="userSpaceOnUse" gradientTransform="matrix(7.04979 -2.29662 2.72548 16.269 -1.07838 -4.22695)">
<stop stop-color="#4998A7"/>
<stop offset="1" stop-color="#093783" stop-opacity="0.85"/>
</linearGradient>
<linearGradient id="paint3_linear" x2="1" gradientUnits="userSpaceOnUse" gradientTransform="matrix(9.05536 -4.53261 3.50085 32.1085 -1.38517 -8.34229)">
<stop stop-color="#4998A7"/>
<stop offset="1" stop-color="#093783" stop-opacity="0.85"/>
</linearGradient>
<linearGradient id="paint4_linear" x2="1" gradientUnits="userSpaceOnUse" gradientTransform="matrix(10.8351 -4.38886 4.18889 31.0902 -1.6574 -8.07771)">
<stop stop-color="#4998A7"/>
<stop offset="1" stop-color="#093783" stop-opacity="0.85"/>
</linearGradient>
</defs>
</svg>
